
<svg version="1.1" xmlns="http://www.w3.org/2000/svg" xmlns:xlink="http://www.w3.org/1999/xlink" x="0px" y="0px"
	 viewBox="0 0 800 718.5" style="enable-background:new 0 0 800 718.5;" xml:space="preserve">
<style type="text/css">
	.st0{fill:#D3D2CD;}
	.st1{fill:#FECE9A;}
	.st2{fill:#EEB881;}
	.st3{fill:#F5714D;}
	.st4{fill:#55495B;}
	.st5{fill:#2B75A6;}
	.st6{fill:#F4D13B;}
	.st7{fill:#DDB50E;}
	.st8{fill:#F78469;}
	.st9{fill:#FDCC9B;}
	.st10{opacity:0.2;fill:#ED7BB0;}
	.st11{fill:#F1A58D;}
	.st12{fill:#352213;}
	.st13{fill:#FFFFFF;}
	.st14{fill:#853D1F;}
	.st15{fill:#3F3D3D;}
	.st16{fill:#271714;}
	.st17{fill:#2D2C2B;}
	.st18{fill:#222A2C;}
	.st19{fill:#3B4244;}
	.st20{fill:#ECECEC;}
	.st21{fill:#DCDEE0;}
	.st22{fill:#FBFFFF;}
	.st23{fill:#F45A37;}
	.st24{fill:#221F1F;}
	.st25{fill:#F2B579;}
	.st26{fill:#E2E1DC;}
	.st27{fill:#F2B13D;}
	.st28{fill:#E89818;}
	.st29{fill:#F4BD64;}
	.st30{fill:#F4F3ED;}
	.st31{fill:#193747;}
	.st32{fill:#F4D7A8;}
	.st33{fill:#111415;}
	.st34{fill:#475050;}
	.st35{fill:#353F40;}
	.st36{fill:#FCFCFC;}
	.st37{fill:#197BBF;}
	.st38{fill:#0F6899;}
	.st39{fill:#8C5438;}
	.st40{fill:#303136;}
	.st41{fill:#F080B0;}
	.st42{fill:#50535A;}
	.st43{fill:#45484F;}
	.st44{fill:#323854;}
	.st45{fill:#525354;}
	.st46{fill:#5D6AA0;}
	.st47{fill:#603814;}
	.st48{fill:#3B4165;}
	.st49{fill:#232A3F;}
	.st50{fill:#63453D;}
	.st51{fill:#1A1819;}
	.st52{fill:#F96243;}
	.st53{fill:#C14637;}
	.st54{fill:#302E2E;}
	.st55{fill:#3F3F3F;}
	.st56{fill:#121112;}
</style>
<g id="DESIGNED_BY_FREEPIK">
</g>
<g id="OBJECTS">
	<g>
		<g id="three">
			<ellipse class="st0" cx="591.9" cy="438.3" rx="44.5" ry="10.3"/>
			<g>
				<path class="st1" d="M546.8,278.9c0,0,0.4,2.2,1.7,4.3c1.2,2.1,0.8,12.6-1.7,12.5c-3.5-0.2-2.7-8.2-4-8.8c0,0-2.7-1.3-3.2,4.1
					c-0.5,5.3,0.5,7.5,2,9.9c1.9,2.9-3.5,4.3-7.8,1.3c-5.9-4-4.9-15.2-3.6-24.1L546.8,278.9z"/>
				<path class="st1" d="M608.6,162.8c4.9-9,9.7-7.1,8.4-20.2c0,0-15.9-4.7-15.8-20.3c0,0-5.6,2.9-10.4,3.1
					c-4.8,0.2-10.3-3.8-10.3-3.8s1.3,16.9-12.3,20.4c-1.7,13.7,1.6,15,9.6,22.1C583.6,169.1,604.1,171.1,608.6,162.8z"/>
				<path class="st2" d="M605.7,135.1C605.7,135.1,605.7,135.1,605.7,135.1c-2.6-3-4.6-7.1-4.6-12.9c0,0-5.6,2.9-10.4,3.1
					c-3.7,0.1-7.8-2.2-9.5-3.3l-0.9,1c0,0.2,0,0.3,0,0.5C581.9,125.6,593.3,140.2,605.7,135.1z"/>
				<polygon class="st3" points="621.6,237.8 561.9,237.8 550.3,188.2 638,201 				"/>
				<path class="st3" d="M613.8,141.2l-22.2,21.5l-23.4-20.8c0,0-25.1,6.2-32.5,12.3c-7.4,6.2-3.7,17.1-3.7,17.1l18.3,16.8
					l39.5,19.8v0.1l1.1,0l1.1,0V208l48.9-2l9-34.7c0,0,0.3-13.7-6-19.7C637.6,145.7,613.8,141.2,613.8,141.2z"/>
				<g>
					<path class="st1" d="M574.7,412c0,1.1,0,2-0.2,2.5c-1.4,5.8-3.8,20.6,1.4,21.8c5.2,1.2,15.3,3.6,15.6,0.1
						c0.2-2.7-3.1-14.7-4.6-24.5H574.7z"/>
					<path class="st1" d="M609.9,412c0,1.1,0,2,0.2,2.5c1.4,5.8,3.8,20.6-1.4,21.8c-5.2,1.2-15.3,3.6-15.6,0.1
						c-0.2-2.7,3.1-14.7,4.6-24.5H609.9z"/>
				</g>
				<g>
					<path class="st4" d="M610.2,412.8c0,0-0.2,4.9,1.1,9.8c1.3,5.2,1.2,7.1-4.7,7.8c-5.8,0.7-11.3-0.1-11.4-2.1
						c-0.1-2,2.9-13.5,3-18.1c0,0-1.4,1.4-1.7,4.5c-0.3,3.1-3.2,9-3.9,15.2c-0.7,5.5-0.3,8.8,4.8,11.5c3.5,1.8,8.2,1.8,12.6-0.9
						c2.7-1.7,4.5-4,4.3-8.8c-0.2-4.7-2.6-13.5-2.7-16.1c0-2.6,0.1-6-1.2-7.5C610.6,408.3,610.2,411.2,610.2,412.8z"/>
					<path class="st4" d="M574.8,412.8c0,0,0.2,4.9-1.1,9.8c-1.3,5.2-1.2,7.1,4.7,7.8c5.8,0.7,11.3-0.1,11.4-2.1
						c0.1-2-2.9-13.5-3-18.1c0,0,1.4,1.4,1.7,4.5c0.3,3.1,3.2,9,3.9,15.2c0.7,5.5,0.3,8.8-4.8,11.5c-3.5,1.8-8.2,1.8-12.6-0.9
						c-2.7-1.7-4.5-4-4.3-8.8c0.2-4.7,2.6-13.5,2.7-16.1c0-2.6-0.1-6,1.2-7.5C574.4,408.3,574.8,411.2,574.8,412.8z"/>
				</g>
				<path class="st3" d="M631.9,208.4c0,4.4,3.6,8,8,8h2c4.4,0,8-3.6,8-8v-37.7c0-4.4-3.6-8-8-8h-2c-4.4,0-8,3.6-8,8V208.4z"/>
				<path class="st3" d="M584.2,187.4l-16.3-45.5c0,0-23.2,6.3-32.4,10.8c-9.2,4.5-11.7,60-12.1,67.1c-0.5,7.1,4.4,61.7,4.4,61.7
					h20.9c0,0-8.2-77.3,1.7-93.3c0,0,5.8,30.3,11.6,49.7l22.2,1.9V187.4z"/>
				<g>
					<path class="st5" d="M621.6,237.8h-59.7c0,0-9.8,27.7-6.1,47.2c3.7,19.5,7.8,34.8,7.2,51.2c-0.7,16.4-1.4,68.6-3.5,83.4h33h0.7
						h33c-2.1-14.8-2.8-67-3.5-83.4c-0.7-16.4,3.5-31.7,7.2-51.2C633.6,265.5,621.6,237.8,621.6,237.8z M596,381.6
						c0.7,12.2-2.1,30.2-3.1,36.1c-1-5.9-3.8-23.8-3.1-36.1c0.8-14.8-1.5-42.1,0-52.7c1.5-10.2,0.6-44,3.1-46.7
						c2.5,2.6,1.6,36.5,3.1,46.7C597.5,339.5,595.1,366.9,596,381.6z"/>
				</g>
				<g>
					
						<rect x="568.9" y="165.8" transform="matrix(0.9792 -0.203 0.203 0.9792 -29.3041 125.5976)" class="st6" width="57.7" height="79.8"/>
					<g>
						<g>
							<path class="st7" d="M592.5,178.9c8.1,5.7,16.2,11.5,24.4,17.2c2.3,1.7,4.8-2.1,2.4-3.7c-8.1-5.7-16.2-11.5-24.4-17.2
								C592.6,173.6,590.2,177.3,592.5,178.9L592.5,178.9z"/>
						</g>
						<g>
							<path class="st7" d="M606.6,235c5.7-8.1,11.5-16.2,17.2-24.4c1.7-2.3-2.1-4.8-3.7-2.4c-5.7,8.1-11.5,16.2-17.2,24.4
								C601.2,234.9,604.9,237.3,606.6,235L606.6,235z"/>
						</g>
					</g>
				</g>
				<g>
					<path class="st1" d="M579.2,213.5c2.7,0,4.9-2.3,4.9-5.1l0-5.2c0-2.8-2.2-5.2-4.8-5.2l-3,0c-2.7,0-4.9,2.3-4.9,5.1l0,5.2
						c0,2.8,2.2,5.2,4.8,5.2L579.2,213.5z"/>
					<path class="st8" d="M580.5,196.2c0.1,0,64.3,5.9,64.3,5.9c3.6,0.5,6.4,4.9,6.2,9.8l-0.1,2.2c-0.2,4.9-3.4,8.5-7,8l-64-5.8
						L580.5,196.2z"/>
				</g>
				<g>
					<g>
						<g>
							<path class="st1" d="M628.4,82.9c0,0,2.4-4.7,5.1-1.5c2.7,3.2,2.2,16.2-6.4,16.2C627.1,97.6,628.4,86,628.4,82.9z"/>
							<path class="st2" d="M628.5,87.7c0,0,1.7-4.6,3.4-2.2c1.7,2.4,0.8,5.5-1.7,7.6C630.2,93,631.3,84.6,628.5,87.7z"/>
						</g>
						<g>
							<path class="st1" d="M552.1,82.9c0,0-2.4-4.7-5.1-1.5c-2.7,3.2-1.9,16.2,6.6,16.2C553.7,97.6,552.2,86,552.1,82.9z"/>
							<path class="st2" d="M552.1,87.7c0,0-1.7-4.6-3.4-2.2c-1.7,2.4-0.8,5.5,1.7,7.6C550.4,93,549.2,84.6,552.1,87.7z"/>
						</g>
					</g>
					<path class="st9" d="M629.4,78.3c1.8-54.5-38.8-50.5-38.8-50.5c0,0-40.6-3.9-38.8,50.5c0,0-0.1,22.7,6.1,31.3
						c8,11.2,22.7,17,32.8,17c10,0,24.9-5.1,32.8-17C629.6,100.2,629.4,78.3,629.4,78.3z"/>
					<g>
						<path class="st10" d="M623.7,96.7c0,2.4-3.4,4.4-7.6,4.4c-4.2,0-7.6-2-7.6-4.5c0-2.4,3.4-4.4,7.6-4.4
							C620.3,92.3,623.7,94.3,623.7,96.7z"/>
					</g>
					<g>
						<path class="st10" d="M573,96.7c0,2.4-3.4,4.4-7.6,4.4c-4.2,0-7.6-2-7.6-4.5c0-2.4,3.4-4.4,7.6-4.4
							C569.6,92.3,573,94.3,573,96.7z"/>
					</g>
					<g>
						<g>
							<g>
								<path class="st2" d="M595.5,98.6c0,1.6-2.1,2.9-4.6,2.9c-2.6,0-4.6-1.3-4.6-2.9c0-1.6,2.1-2.9,4.6-2.9
									C593.5,95.7,595.5,97,595.5,98.6z"/>
								<g>
									<g>
										<path class="st11" d="M578.4,109.2c3.6,8.4,21.5,8.5,24.7-0.3c0.5-1.3-1.6-1.9-2.1-0.6c-2.6,7-17.9,6.2-20.7-0.3
											C579.8,106.8,577.9,107.9,578.4,109.2L578.4,109.2z"/>
									</g>
								</g>
							</g>
							<g>
								<g>
									<circle class="st12" cx="611.8" cy="86.7" r="4.9"/>
									<circle class="st13" cx="613.3" cy="84.4" r="1.6"/>
								</g>
								<g>
									<circle class="st12" cx="569.8" cy="86.7" r="4.9"/>
									<circle class="st13" cx="571.4" cy="84.4" r="1.6"/>
								</g>
							</g>
						</g>
					</g>
					<g>
						<path class="st14" d="M542.6,80.3c0,0,40.6,6.7,65.8-23.9c0,0,3.8,18.7,21,26.4c0,0,1.1-3.3,4.8,0c0,0,10-55.7-43.8-58.3
							S554.9,74.4,542.6,80.3z"/>
						<circle class="st14" cx="600.7" cy="24.4" r="20.4"/>
					</g>
				</g>
			</g>
		</g>
		<g id="two">
			<ellipse class="st0" cx="384.1" cy="434.9" rx="69.4" ry="10.3"/>
			<g>
				<g>
					<g>
						<polygon class="st15" points="428.6,280 419.1,420 398.8,420 384.5,310.9 368.3,420 347.9,420 343,280 						"/>
					</g>
					<path class="st16" d="M419.2,420c0,0,15.5,2.9,16.5,9.3c0.9,6.5-25.8,6.1-33.1,4.7c-7.3-1.3-3.8-14-3.8-14H419.2z"/>
					<path class="st16" d="M347.9,420c0,0-15.5,2.9-16.5,9.3c-0.9,6.5,25.8,6.1,33.1,4.7c7.3-1.3,3.8-14,3.8-14H347.9z"/>
				</g>
				<g>
					<g>
						<path class="st1" d="M402.4,171.5c4.9-9,9.1-7.7,7.8-20.9c0,0-15.3-4.1-15.2-19.7c0,0-5.6,2.9-10.4,3.1
							c-4.8,0.2-10.3-3.8-10.3-3.8s1.3,16.9-12.3,20.4c-1.7,13.7,1.6,15,9.6,22.1C377.4,177.8,397.9,179.8,402.4,171.5z"/>
						<path class="st2" d="M399.5,143.8C399.5,143.8,399.5,143.8,399.5,143.8c-2.6-3-4.6-7.1-4.6-12.9c0,0-5.6,2.9-10.4,3.1
							c-3.7,0.1-7.8-2.2-9.5-3.3l-0.9,1c0,0.2,0,0.3,0,0.5C375.6,134.3,387.1,148.9,399.5,143.8z"/>
					</g>
					<path class="st9" d="M423.2,87c1.8-54.5-38.8-50.5-38.8-50.5c0,0-40.6-3.9-38.8,50.5c0,0-0.1,22.7,6.1,31.3
						c8,11.2,22.7,17,32.8,17c10,0,24.9-5.1,32.8-17C423.4,108.8,423.2,87,423.2,87z"/>
					<g>
						<g>
							<path class="st1" d="M422.2,91.6c0,0,2.4-4.7,5.1-1.5c2.7,3.2,2.2,16.2-6.4,16.2C420.9,106.3,422.2,94.7,422.2,91.6z"/>
							<path class="st2" d="M422.2,96.4c0,0,1.7-4.6,3.4-2.2c1.7,2.4,0.8,5.5-1.7,7.6C424,101.7,425.1,93.3,422.2,96.4z"/>
						</g>
						<g>
							<path class="st1" d="M345.9,91.6c0,0-2.4-4.7-5.1-1.5c-2.7,3.2-2.2,16.2,6.4,16.2C347.2,106.3,346,94.7,345.9,91.6z"/>
							<path class="st2" d="M345.9,96.4c0,0-1.7-4.6-3.4-2.2c-1.7,2.4-0.8,5.5,1.7,7.6C344.2,101.7,343,93.3,345.9,96.4z"/>
						</g>
					</g>
					<path class="st17" d="M423.4,89.2c0,0,5.6-28.3-2.5-30.2c0,0,2.8-5.9-1.6-10.6c-3.7-4-4.7-8.1-4.7-8.1s-0.3,2,0,4.4
						c0,0-5-5.4-9.7-6.9c0,0,3.1,3.2,2.5,4.7c0,0-3.3-6.5-13.5-7.9c0,0,4.1,2.7,3.8,3.9c0,0-2.5-3-7.1-3.9c0,0,1.5,1.2,1.4,1.7
						c0,0-3.3-1.4-6.2-2.1c0,0,2,1.2,1.6,1.4c-0.3,0.1-5.3-0.4-6-2.2c0,0-0.3,1.2,0.6,1.7c0,0-4.2-0.3-5.3-1.5c0,0,0.2,1.1,1.5,1.7
						c0,0-5.2-0.9-7.3-2.2c0,0,1.7,1.7,3.3,2.3c0,0-6.8,0.6-9.3-0.2c0,0,1,1.5,2.4,1.7c0,0-2,0.3-2.9-0.1c0,0,1.6,2.2,0.6,2.5
						c-1.1,0.3-1.8-0.7-1.7-1.4c0,0-0.8,1.5-2,1.4c-1.2-0.1,0.2-2.2,0.2-2.2s-4.9,1-7.6,4.3c-2.7,3.3-5.6,10.2-5.6,10.2
						s-4.7,10.6-4.6,16.3c0.3,12.7,1.5,24.5,3.3,27.3c0,0,0.8-11,5.9-13.8c1.2-0.6-1.5-8.3,2.2-13.9c4.6-6.8,8.6-6,18.7-3.4
						c13.7,3.6,25.4-3.2,29.4-2.9c16,1.3,11.7,18.3,13.5,20.8c4.2,5.6,3.7,9.4,6.2,13.1L423.4,89.2z"/>
					<g>
						<g>
							<g>
								<ellipse class="st2" cx="384.2" cy="106" rx="4.6" ry="2.9"/>
								<g>
									<g>
										<path class="st11" d="M371.8,116.6c3.6,8.4,21.5,8.5,24.7-0.3c0.5-1.3-1.6-1.9-2.1-0.6c-2.6,7-17.9,6.2-20.7-0.3
											C373.1,114.2,371.2,115.3,371.8,116.6L371.8,116.6z"/>
									</g>
								</g>
							</g>
							<g>
								<g>
									<circle class="st12" cx="405.1" cy="94.1" r="4.9"/>
									<circle class="st13" cx="406.7" cy="91.9" r="1.6"/>
								</g>
								<g>
									<circle class="st12" cx="363.1" cy="94.1" r="4.9"/>
									<circle class="st13" cx="364.7" cy="91.9" r="1.6"/>
								</g>
							</g>
						</g>
						<g>
							<path class="st17" d="M398.3,85.4c4.2-3.6,9.7-3,13.8,0.3c1,0.8,2.2-0.8,1.2-1.6c-4.7-3.9-11.4-4.5-16.2-0.4
								C396.1,84.6,397.3,86.2,398.3,85.4L398.3,85.4z"/>
						</g>
						<g>
							<path class="st17" d="M370,85.4c-4.2-3.6-9.7-3-13.8,0.3c-1,0.8-2.2-0.8-1.2-1.6c4.7-3.9,11.4-4.5,16.2-0.4
								C372.2,84.6,371,86.2,370,85.4L370,85.4z"/>
						</g>
					</g>
				</g>
				<rect x="343" y="273.6" class="st18" width="85.6" height="9.8"/>
				<rect x="378.5" y="272.9" class="st19" width="13.5" height="11.8"/>
				<g>
					<path class="st1" d="M449,244.1c1.9,3.3,1.2,7.3-1.7,9l-5.2,3.1c-2.9,1.7-6.8,0.4-8.7-2.8l-2.2-3.6c-1.9-3.3-1.2-7.3,1.7-9
						l5.2-3.1c2.9-1.7,6.8-0.4,8.7,2.8L449,244.1z"/>
					<path class="st1" d="M329,255.8c3.3,1.9,7.3,1.2,9-1.7l3.1-5.2c1.7-2.9,0.4-6.8-2.8-8.7l-3.6-2.2c-3.3-1.9-7.3-1.2-9,1.7
						l-3.1,5.2c-1.7,2.9-0.4,6.8,2.8,8.7L329,255.8z"/>
					<g>
						<g>
							<path class="st20" d="M439.6,160.6c-3.8-6.7-33.8-12.5-33.8-12.5c-4.1,5.9-16.6,7-21.1,7.1c-4.5-0.1-16.6-1.4-20.7-7.3
								c0,0-30,7.9-33.8,14.6c-1.4,2.4,13.3,29.8,13.3,29.8s0.4,55.8-0.4,81.3c0,0,7.8,9.3,40,9.8c0,0,1.1,0,1.7,0
								c0.6,0,1.7,0,1.7,0c32.3-0.5,42.1-9.8,42.1-9.8c-0.2-35.4-2.5-81.3-2.5-81.3S443.4,167.3,439.6,160.6z"/>
							<path class="st21" d="M426,192.3c0,0-1.9-23.8,10.4-31.1c0,0-16.2,7.1-10.6,33.9L426,192.3z"/>
							<path class="st21" d="M343.5,192.5c0,0,1.9-23.8-10.4-31.1c0,0,16.2,7.1,10.6,33.9L343.5,192.5z"/>
						</g>
					</g>
					<g>
						<polygon class="st22" points="371.2,143.5 385.3,155.2 375,168.9 359,148.9 						"/>
						<polygon class="st22" points="399.4,143.5 384.9,155.2 395.1,168.9 410.5,149 						"/>
					</g>
					<g>
						<path class="st23" d="M396.6,259.2l-8.2-90.5h-3.2h-0.5h-3.2l-8.2,90.5c0,0,0.1,7,11.5,12.8c0,0,0.2,0.2,0.2,0.1
							c0.1,0,0.2-0.1,0.2-0.1C396.5,266.2,396.6,259.2,396.6,259.2z"/>
						<polygon class="st3" points="385.1,155.5 385,155.4 384.9,155.5 378.8,163.8 381,168.9 388.7,168.9 390.9,163.5 						"/>
					</g>
					<path class="st24" d="M446.9,161.2c-5.3-5.4-36.4-12.3-36.4-12.3L386,208.8l-27-59.9c0,0-28.5,7-33.9,12.3
						c-5.3,5.4-41.3,42-40.7,51.4c0.7,9.3,41.7,43.3,41.7,43.3l12.8-19.3l-25.1-26l28.1-21.5v106.8h43.2h1.6H430V189.1l28.1,21.5
						l-25.1,26l12.8,19.3c0,0,41.1-34,41.7-43.3C488.2,203.3,452.2,166.6,446.9,161.2z"/>
					<g>
						<g>
							<polygon class="st15" points="359.1,148.9 347.9,151.9 345.4,163.8 353.5,165.8 348.5,175.4 386,208.8 							"/>
						</g>
						<g>
							<polygon class="st15" points="410.5,149 423.6,152.2 426.5,163.8 418.5,165.8 423.4,175.4 386,208.8 							"/>
						</g>
					</g>
				</g>
			</g>
		</g>
		<g id="one">
			<ellipse class="st0" cx="185.4" cy="438.3" rx="44.5" ry="10.3"/>
			<g>
				<g>
					<path class="st14" d="M221.5,92.9c-0.9,4.7-2.1,9.1-3.5,13c-2.6,7.2-19.9,9.8-23.6,14.1c0.2,9.9,15.1,27.6,19.4,33.4
						c0,0,7.3,8.5,19.5,14.4c9.7-14.2,11.7-36.1-2.4-62.5c-2.6-4.9-4.7-9.5-6.4-13.7C223.4,93,222.4,93.6,221.5,92.9z"/>
					<path class="st14" d="M160.3,153.5c4.1-5.6,15.7-22.7,16-32.5c-4.1-4.6-19.4-7.1-22.2-15c-1.4-4-2.7-8.5-3.6-13.2
						c-0.8,0.8-1.8,0.4-2.8-0.7c-1.6,4.1-3.3,8.6-5.3,13.4c-12.4,29.7-10.6,49.5-1.7,62.2C152.5,161.8,160.3,153.5,160.3,153.5z"/>
				</g>
				<g>
					<path class="st1" d="M203.4,159.8c4.9-9,9.7-7.1,8.4-20.2c0,0-15.9-4.7-15.8-20.3c0,0-5.6,2.9-10.4,3.1
						c-4.8,0.2-10.3-3.8-10.3-3.8s1.3,16.9-12.3,20.4c-1.7,13.7,1.6,15,9.6,22.1C178.4,166.1,198.9,168.1,203.4,159.8z"/>
					<path class="st2" d="M200.5,132.1C200.5,132.1,200.5,132.1,200.5,132.1c-2.6-3-4.6-7.1-4.6-12.9c0,0-5.6,2.9-10.4,3.1
						c-3.7,0.1-7.8-2.2-9.5-3.3l-0.9,1c0,0.2,0,0.3,0,0.5C176.6,122.6,188,137.2,200.5,132.1z"/>
				</g>
				<g>
					<g>
						<g>
							<g>
								<g>
									<path class="st1" d="M158.3,250c0,0-6.5,10.9-5.7,25.1c0.9,14.2,9.9,48.1,10.2,54.2c0.3,6.1-3.1,21-1.7,30.6
										c1.4,9.6,9.7,47.3,8.2,52.8c-1.4,5.5-3.8,19.5,1.4,20.7c5.2,1.2,15.3,3.5,15.6,0.1c0.3-3.3-5.4-21.6-5.4-30.7
										c0-9,2.8-41.2,2.3-51.5c-0.6-10.2-1.4-20.1,0-26.3c1.4-6.2,6.5-40.1,5.7-55.3C188.9,270,175.3,256.4,158.3,250z"/>
								</g>
								<g>
									<path class="st1" d="M216.2,250c0,0,6.5,10.9,5.7,25.1c-0.9,14.2-9.9,48.1-10.2,54.2c-0.3,6.1,3.1,21,1.7,30.6
										c-1.4,9.6-9.7,47.3-8.2,52.8c1.4,5.5,3.8,19.5-1.4,20.7c-5.2,1.2-15.3,3.5-15.6,0.1c-0.3-3.3,5.4-21.6,5.4-30.7
										c0-9-2.8-41.2-2.3-51.5c0.6-10.2,1.4-20.1,0-26.3c-1.4-6.2-6.5-40.1-5.7-55.3C185.5,270,199.1,256.4,216.2,250z"/>
								</g>
							</g>
							<path class="st25" d="M195.2,324.3c0,0,1.6,7.4,6.1,7.4c4.5,0,4.5-8.3,4.5-8.3s0.3,11.3-4.5,11.7
								C196.5,335.4,195.2,324.3,195.2,324.3z"/>
							<path class="st25" d="M166.9,324.3c0,0,1.6,7.4,6.1,7.4c4.5,0,4.5-8.3,4.5-8.3s0.3,11.3-4.5,11.7
								C168.2,335.4,166.9,324.3,166.9,324.3z"/>
						</g>
						<g>
							<path class="st4" d="M205,409.8c0,0-0.2,4.9,1.1,9.8c1.3,5.2,1.2,7.1-4.7,7.8c-5.8,0.7-11.3-0.1-11.4-2.1
								c-0.1-2,2.9-13.5,3-18.1c0,0-1.4,1.4-1.7,4.5c-0.3,3.1-3.2,9-3.9,15.2c-0.7,5.5-0.3,8.8,4.8,11.5c3.5,1.8,8.2,1.8,12.6-0.9
								c2.7-1.7,4.5-4,4.3-8.8c-0.2-4.7-2.6-13.5-2.7-16.1c0-2.6,0.1-6-1.2-7.5C205.3,405.3,205,408.2,205,409.8z"/>
							<path class="st4" d="M169.5,409.8c0,0,0.2,4.9-1.1,9.8c-1.3,5.2-1.2,7.1,4.7,7.8c5.8,0.7,11.3-0.1,11.4-2.1
								c0.1-2-2.9-13.5-3-18.1c0,0,1.4,1.4,1.7,4.5c0.3,3.1,3.2,9,3.9,15.2c0.7,5.5,0.3,8.8-4.8,11.5c-3.5,1.8-8.2,1.8-12.6-0.9
								c-2.7-1.7-4.5-4-4.3-8.8c0.2-4.7,2.6-13.5,2.7-16.1c0-2.6-0.1-6,1.2-7.5C169.2,405.3,169.6,408.2,169.5,409.8z"/>
						</g>
					</g>
					<g>
						<rect x="167.7" y="165.4" class="st26" width="44.3" height="31.6"/>
						<polygon class="st27" points="221.9,251.1 149.6,251.1 140.4,198 232.8,198 						"/>
						<g>
							<path class="st27" d="M208.5,138.9L186.8,205l-23.9-66.1c0,0-22.7,3.6-30.1,9.8c-7.4,6.2-6,19.7-6,19.7l9,34.7l48.9,2v0.1
								l1.1,0l1.1,0V205l48.9-2l9-34.7c0,0,0.3-13.7-6-19.7C232.3,142.7,208.5,138.9,208.5,138.9z"/>
							<path class="st27" d="M144.7,205.4c0,4.4-3.6,8-8,8h-2c-4.4,0-8-3.6-8-8v-37.7c0-4.4,3.6-8,8-8h2c4.4,0,8,3.6,8,8V205.4z"/>
						</g>
						<g>
							<g>
								<polygon class="st28" points="171.3,133.2 160.5,139.6 157.6,148.1 165.7,150.1 160.8,159.7 185.9,203.5 								"/>
							</g>
							<g>
								<polygon class="st28" points="201,133.2 211.8,139.6 214.6,148.1 206.6,150.1 211.5,159.7 186.3,203.5 								"/>
							</g>
						</g>
						<g>
							<path class="st1" d="M213.7,197c-3.2,0.5-6.2-1.3-6.7-4.1l-0.8-5.1c-0.5-2.8,1.8-5.5,5-6.1l3.6-0.6c3.2-0.5,6.2,1.3,6.7,4.1
								l0.8,5.1c0.5,2.8-1.8,5.5-5,6.1L213.7,197z"/>
							<path class="st29" d="M209.5,180.2c-0.1,0-76.1,16.1-76.1,16.1c-4.3,1.1-6.9,5.4-5.9,9.7l0.5,1.9c1,4.3,5.4,6.9,9.7,5.9
								l75.7-16L209.5,180.2z"/>
						</g>
						<path class="st5" d="M223.8,241.8h-75.9c0,0-9.1,28,5,90.3h67.3C234.3,269.7,223.8,241.8,223.8,241.8z"/>
						<g>
							<g>
								<polygon class="st30" points="172.2,132.1 186.3,164.9 176.1,179.1 158.6,138.5 								"/>
							</g>
							<g>
								<polygon class="st30" points="200.5,132.1 186.3,164.9 196.6,179.1 214.1,138.5 								"/>
							</g>
						</g>
						<path class="st27" d="M226.7,205.4c0,4.4,3.6,8,8,8h2c4.4,0,8-3.6,8-8v-37.7c0-4.4-3.6-8-8-8h-2c-4.4,0-8,3.6-8,8V205.4z"/>
						<g>
							<path class="st1" d="M158.2,197c3.2,0.5,6.2-1.3,6.7-4.1l0.8-5.1c0.5-2.8-1.8-5.5-5-6.1l-3.6-0.6c-3.2-0.5-6.2,1.3-6.7,4.1
								l-0.8,5.1c-0.5,2.8,1.8,5.5,5,6.1L158.2,197z"/>
							<path class="st29" d="M162.4,180.2c0.1,0,76.1,16.1,76.1,16.1c4.3,1.1,6.9,5.4,5.9,9.7l-0.5,1.9c-1,4.3-5.4,6.9-9.7,5.9
								l-75.7-16L162.4,180.2z"/>
						</g>
					</g>
				</g>
				<g>
					<g>
						<g>
							<path class="st1" d="M223.2,79.9c0,0,2.4-4.7,5.1-1.5c2.7,3.2,2.2,16.2-6.4,16.2C221.9,94.6,223.1,83,223.2,79.9z"/>
							<path class="st2" d="M223.2,84.7c0,0,1.7-4.6,3.4-2.2c1.7,2.4,0.8,5.5-1.7,7.6C224.9,90,226.1,81.6,223.2,84.7z"/>
						</g>
						<g>
							<path class="st1" d="M146.9,79.9c0,0-2.4-4.7-5.1-1.5c-2.7,3.2-1.9,16.2,6.6,16.2C148.4,94.6,146.9,83,146.9,79.9z"/>
							<path class="st2" d="M146.9,84.7c0,0-1.7-4.6-3.4-2.2c-1.7,2.4-0.8,5.5,1.7,7.6C145.1,90,144,81.6,146.9,84.7z"/>
						</g>
					</g>
					<path class="st9" d="M224.2,75.3c1.8-54.5-38.8-50.5-38.8-50.5c0,0-40.6-3.9-38.8,50.5c0,0-0.1,22.7,6.1,31.3
						c8,11.2,22.7,17,32.8,17c10,0,24.9-5.1,32.8-17C224.4,97.2,224.2,75.3,224.2,75.3z"/>
					<g>
						<g>
							<path class="st10" d="M218.4,93.7c0,2.4-3.4,4.4-7.6,4.4c-4.2,0-7.6-2-7.6-4.5c0-2.4,3.4-4.4,7.6-4.4
								C215,89.3,218.4,91.3,218.4,93.7z"/>
						</g>
						<g>
							<path class="st10" d="M167.8,93.7c0,2.4-3.4,4.4-7.6,4.4c-4.2,0-7.6-2-7.6-4.5c0-2.4,3.4-4.4,7.6-4.4
								C164.4,89.3,167.8,91.3,167.8,93.7z"/>
						</g>
						<g>
							<g>
								<g>
									<path class="st2" d="M190.3,95.6c0,1.6-2.1,2.9-4.6,2.9c-2.6,0-4.6-1.3-4.6-2.9c0-1.6,2.1-2.9,4.6-2.9
										C188.2,92.7,190.3,94,190.3,95.6z"/>
									<g>
										<g>
											<path class="st11" d="M173.2,106.2c3.6,8.4,21.5,8.5,24.7-0.3c0.5-1.3-1.6-1.9-2.1-0.6c-2.6,7-17.9,6.2-20.7-0.3
												C174.5,103.8,172.6,104.9,173.2,106.2L173.2,106.2z"/>
										</g>
									</g>
								</g>
								<g>
									<g>
										<circle class="st12" cx="206.5" cy="83.7" r="4.9"/>
										<circle class="st13" cx="208.1" cy="81.4" r="1.6"/>
									</g>
									<g>
										<circle class="st12" cx="164.5" cy="83.7" r="4.9"/>
										<circle class="st13" cx="166.1" cy="81.4" r="1.6"/>
									</g>
								</g>
							</g>
						</g>
					</g>
					<path class="st14" d="M147.8,81.5c0,0,17.5-9,21-30.4c0,0,8.5,21.6,53.8,30.4c0,0,0.8-1.7,1.9-2.5c1.2-1,4.8-0.8,5.2,2.8
						c0,0,2.8-60.9-44.3-59c0.1,0-47.8-1.3-44.7,58.7C140.6,81.4,143.4,74.7,147.8,81.5z"/>
				</g>
			</g>
		</g>
		<g id="four">
			<ellipse class="st0" cx="85.7" cy="644.2" rx="69.4" ry="10.3"/>
			<g>
				<g>
					<g>
						<path class="st1" d="M104.9,382.9c4.9-9,9.1-7.7,7.8-20.9c0,0-15.3-4.1-15.2-19.7c0,0-5.6,2.9-10.4,3.1
							c-4.8,0.2-10.3-3.8-10.3-3.8s1.3,16.9-12.3,20.4c-1.7,13.7,1.6,15,9.6,22.1C79.9,389.3,100.4,391.3,104.9,382.9z"/>
						<path class="st2" d="M102,355.2C102,355.2,102,355.2,102,355.2c-2.6-3-4.6-7.1-4.6-12.9c0,0-5.6,2.9-10.4,3.1
							c-3.7,0.1-7.8-2.2-9.5-3.3l-0.9,1c0,0.2,0,0.3,0,0.5C78.1,345.8,89.6,360.3,102,355.2z"/>
					</g>
					<g>
						<g>
							<polygon class="st31" points="131.1,491.4 121.6,631.5 101.3,631.5 87,522.4 70.8,631.5 50.4,631.5 45.5,491.4 							"/>
						</g>
						<path class="st16" d="M121.7,631.5c0,0,15.5,2.9,16.5,9.3c0.9,6.5-25.8,6.1-33.1,4.7c-7.3-1.3-3.8-14-3.8-14H121.7z"/>
						<path class="st16" d="M50.4,631.5c0,0-15.5,2.9-16.5,9.3c-0.9,6.5,25.8,6.1,33.1,4.7c7.3-1.3,3.8-14,3.8-14H50.4z"/>
					</g>
					<g>
						<path class="st32" d="M138.4,490.9c0,0-0.6,2.2-2,4.3c-1.4,2.1-1.6,13,1,13c3.6,0,3.3-8.4,4.7-8.9c0,0,2.8-1.2,3,4.4
							c0.2,5.5-1,7.7-2.7,10.1c-2.1,2.9,3.3,4.6,8,1.8c6.3-3.8,5.9-15.4,5.1-24.7H138.4z"/>
						<path class="st32" d="M35.6,490.9c0,0,0.6,2.2,2,4.3c1.4,2.1,1.6,13-1,13c-3.6,0-3.3-8.4-4.7-8.9c0,0-2.8-1.2-3,4.4
							c-0.2,5.5,1,7.7,2.7,10.1c2.1,2.9-3.3,4.6-8,1.8c-6.3-3.8-5.9-15.4-5.1-24.7H35.6z"/>
					</g>
					<g>
						<polygon class="st18" points="134,594.2 116.6,594.2 116.6,523.2 133.8,523.2 						"/>
						<polygon class="st33" points="134,594.2 184.3,568.9 183.8,523.2 133.9,548.2 						"/>
						<path class="st34" d="M185,497l0.3,29.8c0,4.5-3.1,9.7-7,11.7L141,557c-3.9,2-7.1-0.1-7.1-4.6l-0.1-29.3L185,497z"/>
						<g>
							<polygon class="st35" points="116.6,523.2 169.8,497 185,497 133.8,523.2 							"/>
							<g>
								<path class="st33" d="M139.4,515.7c-0.3,0.2-0.6,0-0.6-0.4l0-7.2c0-0.4,0.3-0.9,0.6-1.1l5.6-3.4c0.3-0.2,0.6,2.4-0.1,3.7
									l-2.1,1.5c-0.3,0.2-0.6,0.7-0.6,1.1l0,3.4c0,0.4-0.3,0.9-0.6,1.1L139.4,515.7z"/>
								<path class="st33" d="M156,498.8l3.2-1.6c0.4-0.2,0.7,0,0.8,0.4l0.7,5.9c0.1,0.4-0.1,0.9-0.5,1.1l-1.5,0.8
									c-0.3,0.2-0.7,0-0.7-0.4l-0.1-3.6c0-0.4-0.3-0.6-0.7-0.4l-1,0.3c-0.4,0.2-0.4-0.1-0.4-0.5L156,498.8z"/>
							</g>
						</g>
						<path class="st18" d="M158.1,547.6c0-1.2,0.8-2.7,1.9-3.2l3.4-1.8c1-0.6,1.9,0,1.9,1.2l0,2.6c0,1.2-0.8,2.7-1.9,3.2l-3.4,1.8
							c-1,0.6-1.9,0-1.9-1.2L158.1,547.6z"/>
					</g>
					<g>
						<path class="st9" d="M125.7,298.5c1.8-54.5-38.8-50.5-38.8-50.5c0,0-40.6-3.9-38.8,50.5c0,0-0.1,22.7,6.1,31.3
							c8,11.2,22.7,17,32.8,17c10,0,24.9-5.1,32.8-17C125.9,320.3,125.7,298.5,125.7,298.5z"/>
						<g>
							<g>
								<path class="st1" d="M124.7,303.1c0,0,2.4-4.7,5.1-1.5c2.7,3.2,2.2,16.2-6.4,16.2C123.4,317.8,124.7,306.2,124.7,303.1z"/>
								<path class="st2" d="M124.7,307.8c0,0,1.7-4.6,3.4-2.2c1.7,2.4,0.8,5.5-1.7,7.6C126.5,313.2,127.6,304.8,124.7,307.8z"/>
							</g>
							<g>
								<path class="st1" d="M48.4,303.1c0,0-2.4-4.7-5.1-1.5c-2.7,3.2-1.8,16.2,6.7,16.2C50.1,317.8,48.5,306.2,48.4,303.1z"/>
								<path class="st2" d="M48.4,307.8c0,0-1.7-4.6-3.4-2.2c-1.7,2.4-0.8,5.5,1.7,7.6C46.7,313.2,45.5,304.8,48.4,307.8z"/>
							</g>
						</g>
						<g>
							<path class="st17" d="M130.7,303.3c0,0,1.1-17.4-2.7-30c-3.7-12.7-8.4-21.1-20.6-26.4c-12.2-5.3-34.4-15.5-44.9,3.5
								c0,0-13.2,2-17.5,20.7c-4.4,18.7-2.7,32.7-2.7,32.7s3.5-4.7,7.4,3.1c0,0,2.7-12.2,2.4-20.3c0,0,9.5-8.8,9.5-14.1
								c0,0,6.1,5.3,21.6,4.2c15.5-1.1,22.6-5,26.7-2.7c4.1,2.3,14,16.8,13.6,33.7C123.4,307.8,126.4,297.7,130.7,303.3z"/>
						</g>
						<g>
							<g>
								<g>
									<ellipse class="st2" cx="86.7" cy="317.5" rx="4.6" ry="2.9"/>
									<g>
										<g>
											<path class="st11" d="M74.3,328.1c3.6,8.4,21.5,8.5,24.7-0.3c0.5-1.3-1.6-1.9-2.1-0.6c-2.6,7-17.9,6.2-20.7-0.3
												C75.6,325.7,73.7,326.8,74.3,328.1L74.3,328.1z"/>
										</g>
									</g>
								</g>
								<g>
									<g>
										<circle class="st12" cx="107.6" cy="305.6" r="4.9"/>
										<circle class="st13" cx="109.2" cy="303.3" r="1.6"/>
									</g>
									<g>
										<circle class="st12" cx="65.6" cy="305.6" r="4.9"/>
										<circle class="st13" cx="67.2" cy="303.3" r="1.6"/>
									</g>
								</g>
							</g>
							<g>
								<path class="st17" d="M100.8,296.9c4.2-3.6,9.7-3,13.8,0.3c1,0.8,2.2-0.8,1.2-1.6c-4.7-3.9-11.4-4.5-16.2-0.4
									C98.6,296.1,99.8,297.7,100.8,296.9L100.8,296.9z"/>
							</g>
							<g>
								<path class="st17" d="M72.5,296.9c-4.2-3.6-9.7-3-13.8,0.3c-1,0.8-2.2-0.8-1.2-1.6c4.7-3.9,11.4-4.5,16.2-0.4
									C74.7,296.1,73.5,297.7,72.5,296.9L72.5,296.9z"/>
							</g>
						</g>
					</g>
					<g>
						<g>
							<g>
								<path class="st36" d="M157.1,492.6c0,0-1.8-40.3-1.8-54.7c0-16.8-9.9-60.3-13.7-67c-3.8-6.7-33.3-11.4-33.3-11.4
									c-4.1,5.9-16.6,7-21.1,7.1c-4.5-0.1-16.6-1.4-20.7-7.3c0,0-30,4.8-33.7,11.5c-1.4,2.4-13.6,54.5-13.7,67
									c0,14.4-1.8,54.7-1.8,54.7h21.6c0,0-1.1-48.2,2.1-60.9c3.2-12.7,5-27.9,5-27.9s0.4,55.8-0.4,81.3c0,0,7.8,9.3,40,9.8
									c0,0,1.1,0,1.7,0c0.6,0,1.7,0,1.7,0c32.3-0.5,42.1-9.8,42.1-9.8c-0.2-35.4-2.5-81.3-2.5-81.3s1.8,15.2,5,27.9
									c3.2,12.7,2.1,60.9,2.1,60.9H157.1z"/>
								<path class="st21" d="M128.5,403.8c0,0-1.9-23.8,10.4-31.1c0,0-16.2,7.1-10.6,33.9L128.5,403.8z"/>
								<path class="st21" d="M46,404c0,0,1.9-23.8-10.4-31.1c0,0,16.2,7.1,10.6,33.9L46,404z"/>
							</g>
						</g>
						<g>
							<g>
								<polygon class="st21" points="73.7,355 87.8,366.7 77.5,380.4 61.5,360.3 								"/>
								<polygon class="st21" points="101.9,355 87.4,366.7 97.6,380.4 113,360.4 								"/>
							</g>
							<g>
								<path class="st37" d="M99.1,470.7l-8.2-90.5h-3.2h-0.5h-3.2l-8.2,90.5c0,0,0.1,7,11.5,12.8c0,0,0.2,0.2,0.2,0.1
									c0.1,0,0.2-0.1,0.2-0.1C99,477.7,99.1,470.7,99.1,470.7z"/>
								<polygon class="st38" points="87.6,366.9 87.5,366.8 87.4,366.9 81.3,375.3 83.5,380.3 91.2,380.3 93.4,375 								"/>
							</g>
						</g>
					</g>
				</g>
				<rect x="45.5" y="485.1" class="st18" width="85.6" height="9.8"/>
				<rect x="81" y="484.3" class="st19" width="13.5" height="11.8"/>
			</g>
		</g>
		<g id="five">
			<ellipse class="st0" cx="290.1" cy="644.2" rx="44.5" ry="10.3"/>
			<g>
				<g>
					<path class="st39" d="M223.5,288.6c-2.1,2.7,2.4,14.7,9,12.4c7.1-2.6,5.9-11.1,5.4-24.9c-0.5-13.8-0.3-34,14.6-46.1
						c14.9-12,32.1-4.8,38.7,2.6c4.9,5.5,5.6,12.5,5.6,15.2c-2.7-0.6-5.7-0.9-8.9-1v0c-0.2,0-0.3,0-0.5,0c-0.2,0-0.3,0-0.5,0v0
						c-31.1,0.5-39.2,28.5-38.5,55.3c-0.2,4.6,0.7,15.6,0.8,16c-13.9,11.8-34.7,7.9-35.3-10.8C213.9,297.2,221.3,290.4,223.5,288.6z
						"/>
					<g>
						<path class="st1" d="M306.5,384.1c5-9.2,10.8-9.3,9.5-22.7c0,0-17.2-2.7-17.1-18.6c0,0-5.7,3-10.6,3.1
							c-4.9,0.2-10.5-3.9-10.5-3.9s-1.4,17.3-14.1,20.5c-1.7,14,3.9,28,12,35.2C281.6,402.8,301.9,392.5,306.5,384.1z"/>
						<path class="st2" d="M304.4,355.7C304.4,355.7,304.4,355.7,304.4,355.7c-2.6-3-5.5-7.2-5.5-13c0,0-5.7,3-10.6,3.1
							c-3.8,0.1-8-2.2-9.7-3.3l-0.9,1c0,0.2,0,0.3,0,0.5C279.3,346.2,291.7,360.9,304.4,355.7z"/>
					</g>
					<path class="st1" d="M327.7,297.9c1.8-55.5-39.6-51.5-39.6-51.5c0,0-41.4-4-39.6,51.5c0,0-0.1,23.2,6.2,31.9
						c8.2,11.4,23.2,17.4,33.4,17.4c10.2,0,25.4-5.2,33.4-17.4C327.9,320.2,327.7,297.9,327.7,297.9z"/>
					<g>
						<g>
							<path class="st1" d="M326.7,302.6c0,0,2.5-4.8,5.2-1.6c2.7,3.3,2.2,16.5-6.5,16.5C325.4,317.6,326.7,305.8,326.7,302.6z"/>
							<path class="st2" d="M326.8,307.5c0,0,1.8-4.7,3.5-2.3c1.7,2.4,0.9,5.6-1.8,7.7C328.5,312.9,329.7,304.3,326.8,307.5z"/>
						</g>
						<g>
							<path class="st1" d="M249,302.6c0,0-2.5-4.8-5.2-1.6c-2.7,3.3-1.9,16.5,6.8,16.5C250.6,317.6,249,305.8,249,302.6z"/>
							<path class="st2" d="M248.9,307.5c0,0-1.8-4.7-3.5-2.3c-1.7,2.4-0.9,5.6,1.7,7.7C247.2,312.9,246,304.3,248.9,307.5z"/>
						</g>
					</g>
					<g>
						<g>
							<path class="st10" d="M321,316.4c0,2.4-3.4,4.4-7.6,4.4c-4.2,0-7.6-2-7.6-4.5c0-2.4,3.4-4.4,7.6-4.4
								C317.6,311.9,321,313.9,321,316.4z"/>
						</g>
						<g>
							<path class="st10" d="M270.3,316.4c0,2.4-3.4,4.4-7.6,4.4c-4.2,0-7.6-2-7.6-4.5c0-2.4,3.4-4.4,7.6-4.4
								C267,311.9,270.3,313.9,270.3,316.4z"/>
						</g>
						<g>
							<g>
								<g>
									<ellipse class="st2" cx="288.2" cy="318.3" rx="4.6" ry="2.9"/>
									<g>
										<g>
											<path class="st11" d="M275.8,328.9c3.6,8.4,21.5,8.5,24.7-0.3c0.5-1.3-1.6-1.9-2.1-0.6c-2.6,7-17.9,6.2-20.7-0.3
												C277.1,326.4,275.2,327.6,275.8,328.9L275.8,328.9z"/>
										</g>
									</g>
								</g>
								<g>
									<g>
										<circle class="st12" cx="309.1" cy="306.3" r="4.9"/>
										<circle class="st13" cx="310.7" cy="304.1" r="1.6"/>
									</g>
									<g>
										<circle class="st12" cx="267.1" cy="306.3" r="4.9"/>
										<circle class="st13" cx="268.7" cy="304.1" r="1.6"/>
									</g>
								</g>
							</g>
						</g>
					</g>
					<path class="st39" d="M247.8,304.1c0,0-9-60,39-60c51.2,0,42,58.4,42,58.4s-7.4-6.7-15.4-9.2l-2.7-12.7l-0.7,12.5l-9.3-1
						l-2.1-17.2l-3.2,16.8C295.5,291.8,255.1,290.7,247.8,304.1z"/>
				</g>
				<g>
					<g>
						<g>
							<g>
								<g>
									<g>
										<path class="st1" d="M261,484.4c0,0-6.5,9.3-5.7,21.4c0.9,12.1,9.9,41,10.2,46.2c0.3,5.2-3.1,17.9-1.7,26.1
											c1.4,8.2,9.7,40.4,8.2,45.1c-1.4,4.7-3.8,16.7,1.4,17.7c5.2,1,15.3,2.9,15.6,0.1c0.3-2.8-5.4-18.4-5.4-26.1
											c0-7.7,2.8-35.2,2.3-43.9c-0.6-8.7-1.4-17.1,0-22.4c1.4-5.2,6.5-34.2,5.7-47.1C291.7,501.4,278.1,489.9,261,484.4z"/>
									</g>
									<g>
										<path class="st1" d="M318.9,484.4c0,0,6.5,9.3,5.7,21.4c-0.9,12.1-9.9,41-10.2,46.2c-0.3,5.2,3.1,17.9,1.7,26.1
											c-1.4,8.2-9.7,40.4-8.2,45.1c1.4,4.7,3.8,16.7-1.4,17.7c-5.2,1-15.3,2.9-15.6,0.1c-0.3-2.8,5.4-18.4,5.4-26.1
											c0-7.7-2.8-35.2-2.3-43.9c0.6-8.7,1.4-17.1,0-22.4c-1.4-5.2-6.5-34.2-5.7-47.1C288.2,501.4,301.9,489.9,318.9,484.4z"/>
									</g>
								</g>
								<path class="st25" d="M298,547.8c0,0,1.6,6.3,6.1,6.3c4.5,0,4.5-7,4.5-7s0.3,9.6-4.5,9.9C299.3,557.3,298,547.8,298,547.8z"
									/>
								<path class="st25" d="M269.7,547.8c0,0,1.6,6.3,6.1,6.3c4.5,0,4.5-7,4.5-7s0.3,9.6-4.5,9.9
									C271,557.3,269.7,547.8,269.7,547.8z"/>
							</g>
							<g>
								<path class="st4" d="M307.7,620.7c0,0-0.2,4.2,1.1,8.4c1.3,4.4,1.2,6.1-4.7,6.7c-5.8,0.6-11.3-0.1-11.4-1.8
									c-0.1-1.7,2.9-11.5,3-15.4c0,0-1.4,1.2-1.7,3.8c-0.3,2.6-3.2,7.7-3.9,13c-0.7,4.7-0.3,7.5,4.8,9.8c3.5,1.6,8.2,1.5,12.6-0.8
									c2.7-1.4,4.5-3.4,4.3-7.5c-0.2-4-2.6-11.5-2.7-13.7c0-2.2,0.1-5.1-1.2-6.4C308.1,616.8,307.7,619.4,307.7,620.7z"/>
								<path class="st4" d="M272.3,620.7c0,0,0.2,4.2-1.1,8.4c-1.3,4.4-1.2,6.1,4.7,6.7c5.8,0.6,11.3-0.1,11.4-1.8
									c0.1-1.7-2.9-11.5-3-15.4c0,0,1.4,1.2,1.7,3.8c0.3,2.6,3.2,7.7,3.9,13c0.7,4.7,0.3,7.5-4.8,9.8c-3.5,1.6-8.2,1.5-12.6-0.8
									c-2.7-1.4-4.5-3.4-4.3-7.5c0.2-4,2.6-11.5,2.7-13.7c0-2.2-0.1-5.1,1.2-6.4C271.9,616.8,272.3,619.4,272.3,620.7z"/>
							</g>
						</g>
						<path class="st40" d="M325.1,476.2H288h-37.1c0,0-10.6,4.5,3.4,56.5h67.3C335.8,480.7,325.1,476.2,325.1,476.2z"/>
					</g>
					<g>
						<path class="st1" d="M244,489.7c0,0,0.4,2.2,1.7,4.3c1.2,2.1,0.8,12.6-1.7,12.5c-3.5-0.2-2.7-8.2-4-8.8c0,0-2.7-1.3-3.2,4.1
							c-0.5,5.3,0.5,7.5,2,9.9c1.9,2.9-3.5,4.3-7.8,1.3c-5.9-4-4.9-15.2-3.6-24.1L244,489.7z"/>
						<path class="st1" d="M332.9,489.7c0,0-0.4,2.2-1.7,4.3c-1.2,2.1-0.8,12.6,1.7,12.5c3.5-0.2,2.7-8.2,4-8.8c0,0,2.7-1.3,3.2,4.1
							c0.5,5.3-0.5,7.5-2,9.9c-1.9,2.9,3.5,4.3,7.8,1.3c5.9-4,4.9-15.2,3.6-24.1L332.9,489.7z"/>
						<g>
							<path class="st41" d="M278.9,378.6l9.1,16.2l9.3-15.7l20.8,100.1c0,0-60.4,1.1-60.2-0.7C258.1,476.6,278.9,378.6,278.9,378.6
								z"/>
							<g>
								<g>
									<path class="st42" d="M285.3,490.3c0,0-40-5.1-41.1-7.2c0,0,7.3-20.4,8.9-27.1c5.4-22,4.9-31,4.9-31l-8.9-19.7
										c0,0-2.7-35.5-8-44.2c0,0,22.5-6.8,27.9-9l-5.2,13.7l3.6,1.8l-4.2,4.9c0,0,19.9,52.9,22.1,55.8V490.3z"/>
									<path class="st43" d="M246.3,490.3c0.9-5.3-0.1-72.7,2.8-85c-0.1-0.2,0-1.3,0-1.3c-2-27.1-5.5-37.2-7.1-41l-0.9-1.8
										c0,0-4.5-1-5.5,4.7c-1,5.8-7.2,59.3-7.4,75.8c-0.2,16.4-2.9,48.8-2.9,48.8H246.3z"/>
									<g>
										<path class="st43" d="M285.3,428.3c0,0-7-58.7-8.1-63.8c-0.7-3.4-1.1-15.3-1.1-15.3L269,352l-5.2,13.7l3.6,1.8l-4.2,4.9
											c0,0,2.4,9.8,6.3,21.2C273.4,405.1,285.3,428.3,285.3,428.3L285.3,428.3z"/>
									</g>
								</g>
								<g>
									<path class="st42" d="M291,490.3c0,0,40-5.1,41.1-7.2c0,0-7.3-20.4-8.9-27.1c-5.4-22-4.9-31-4.9-31l8.9-19.7
										c0,0,2.7-35.5,8-44.2c0,0-22.5-6.8-27.9-9l5.2,13.7l-3.6,1.8l4.2,4.9c0,0-19.9,52.9-22.1,55.8V490.3z"/>
									<path class="st43" d="M330.6,491c-0.9-5.3-0.5-73.4-3.4-85.8c0.1-0.2,0-1.3,0-1.3c2-27.1,5.5-37.2,7.1-41l0.9-1.8
										c0,0,4.5-1,5.5,4.7c1,5.8,7.6,62,7.7,78.4c0.2,20.4,0.7,23.1,3.6,46.8H330.6z"/>
									<g>
										<path class="st43" d="M291,428.3c0,0,7-58.7,8.1-63.8c0.7-3.4,1-15.3,1-15.3l7.3,2.8l5.2,13.7l-3.6,1.8l4.2,4.9
											c0,0-2.4,9.8-6.3,21.2C302.9,405.1,291,428.3,291,428.3L291,428.3z"/>
									</g>
								</g>
							</g>
						</g>
					</g>
				</g>
			</g>
		</g>
		<g id="seven">
			<ellipse class="st0" cx="684.9" cy="644.2" rx="44.5" ry="10.3"/>
			<g>
				<g>
					<g>
						<g>
							<g>
								<g>
									<path class="st1" d="M655.8,464.3c0,0-6.5,10.5-5.7,24.1c0.9,13.6,9.9,46.3,10.2,52.1c0.3,5.9-3.1,20.2-1.7,29.5
										c1.4,9.3,9.7,45.5,8.2,50.8c-1.4,5.3-3.8,18.8,1.4,19.9c5.2,1.1,15.3,3.3,15.6,0.1c0.3-3.2-5.4-20.8-5.4-29.5
										c0-8.7,2.8-39.7,2.3-49.5c-0.6-9.8-1.4-19.3,0-25.2c1.4-5.9,6.5-38.6,5.7-53.1C686.5,483.5,672.9,470.5,655.8,464.3z"/>
								</g>
								<g>
									<path class="st1" d="M713.7,464.3c0,0,6.5,10.5,5.7,24.1c-0.9,13.6-9.9,46.3-10.2,52.1c-0.3,5.9,3.1,20.2,1.7,29.5
										c-1.4,9.3-9.7,45.5-8.2,50.8c1.4,5.3,3.8,18.8-1.4,19.9c-5.2,1.1-15.3,3.3-15.6,0.1c-0.3-3.2,5.4-20.8,5.4-29.5
										c0-8.7-2.8-39.7-2.3-49.5c0.6-9.8,1.4-19.3,0-25.2c-1.4-5.9-6.5-38.6-5.7-53.1C683,483.5,696.7,470.5,713.7,464.3z"/>
								</g>
							</g>
							<path class="st25" d="M692.8,547.8c0,0,1.6,6.3,6.1,6.3c4.5,0,4.5-7,4.5-7s0.3,9.6-4.5,9.9
								C694.1,557.3,692.8,547.8,692.8,547.8z"/>
							<path class="st25" d="M664.5,547.8c0,0,1.6,6.3,6.1,6.3c4.5,0,4.5-7,4.5-7s0.3,9.6-4.5,9.9S664.5,547.8,664.5,547.8z"/>
						</g>
						<g>
							<path class="st44" d="M702.5,620.7c0,0-0.2,4.2,1.1,8.4c1.3,4.4,1.2,6.1-4.7,6.7c-5.8,0.6-11.3-0.1-11.4-1.8
								c-0.1-1.7,2.9-11.5,3-15.4c0,0-1.4,1.2-1.7,3.8c-0.3,2.6-3.2,7.7-3.9,13c-0.7,4.7-0.3,7.5,4.8,9.8c3.5,1.6,8.2,1.5,12.6-0.8
								c2.7-1.4,4.5-3.4,4.3-7.5c-0.2-4-2.6-11.5-2.7-13.7c0-2.2,0.1-5.1-1.2-6.4C702.9,616.8,702.5,619.4,702.5,620.7z"/>
							<path class="st44" d="M667.1,620.7c0,0,0.2,4.2-1.1,8.4c-1.3,4.4-1.2,6.1,4.7,6.7c5.8,0.6,11.3-0.1,11.4-1.8
								c0.1-1.7-2.9-11.5-3-15.4c0,0,1.4,1.2,1.7,3.8c0.3,2.6,3.2,7.7,3.9,13c0.7,4.7,0.3,7.5-4.8,9.8c-3.5,1.6-8.2,1.5-12.6-0.8
								c-2.7-1.4-4.5-3.4-4.3-7.5c0.2-4,2.6-11.5,2.7-13.7c0-2.2-0.1-5.1,1.2-6.4C666.7,616.8,667.1,619.4,667.1,620.7z"/>
						</g>
					</g>
					<path class="st44" d="M712.6,502.2c-1.5,0-3-0.7-3.8-2.1l-1.5-2.5l-5,3c-1.5,0.9-3.5,0.4-4.5-1.1c-0.9-1.5-0.4-3.5,1.1-4.5l5-3
						l-1.5-2.5c-0.8-1.4-0.8-3,0-4.4l-10.2-16.9l20.8-12.5c-0.7-1.2-1.1-1.8-1.1-1.8h-58.2c0,0-18.6,26.7-4.6,78.7h67.3
						c1.7-6.3,2.9-12.3,3.8-17.8L712.6,502.2z"/>
				</g>
				<g>
					<g>
						<polygon class="st45" points="758.9,428.3 783.7,471.9 722.8,519.1 692.3,468.4 						"/>
						<polygon class="st13" points="758.3,432.9 780.3,470.9 724.5,513.8 697.7,469.3 						"/>
					</g>
					<path class="st46" d="M716.2,495.6l-6.3-10.5c-1.2-2-3.9-2.7-5.9-1.5c-2,1.2-2.7,3.9-1.5,5.9l1.5,2.5l-5,3
						c-1.5,0.9-2,2.9-1.1,4.5c0.9,1.5,2.9,2,4.5,1.1l5-3l1.5,2.5c1.2,2,3.9,2.7,5.9,1.5C716.8,500.3,717.4,497.7,716.2,495.6z"/>
				</g>
				<g>
					<g>
						<path class="st47" d="M653.8,371.1c0,0,3.4,6.3,22.8,8.3c2.9-5,4-35.4,4.3-40.5c-7.9-3.6-15.5-8.3-21.1-14.5
							c-2.8-3.1-5.7-6.9-7.4-10.7c-2.9,1.2-6.4-0.5-9.5-3.3c0,0-3,56.7-9.8,66C633.1,376.5,650.1,375.8,653.8,371.1z"/>
					</g>
					<g>
						<path class="st47" d="M710.9,371.1c0,0-3.4,6.3-22.8,8.3c-2.9-5-4-35.4-4.3-40.5c7.9-3.6,15.5-8.3,21.1-14.5
							c2.8-3.1,5.7-6.9,7.4-10.7c2.9,1.2,6.4-0.5,9.5-3.3c0,0,3,56.7,9.8,66C731.5,376.5,714.5,375.8,710.9,371.1z"/>
					</g>
				</g>
				<g>
					<path class="st1" d="M721.5,302.6c0,0,2.5-4.8,5.2-1.6c2.7,3.3,2.2,16.5-6.5,16.5C720.2,317.6,721.5,305.8,721.5,302.6z"/>
					<path class="st2" d="M721.6,307.5c0,0,1.8-4.7,3.5-2.3c1.7,2.4,0.9,5.6-1.8,7.7C723.3,312.9,724.5,304.3,721.6,307.5z"/>
				</g>
				<g>
					<path class="st1" d="M643.8,302.6c0,0-2.5-4.8-5.2-1.6c-2.7,3.3-1.2,16.5,7.5,16.5C646.1,317.6,643.8,305.8,643.8,302.6z"/>
					<path class="st2" d="M643.7,307.5c0,0-1.8-4.7-3.5-2.3c-1.7,2.4-0.9,5.6,1.7,7.7C642,312.9,640.8,304.3,643.7,307.5z"/>
				</g>
				<path class="st1" d="M727.7,489.7c0,0-0.4,2.2-1.7,4.3c-1.2,2.1-0.8,12.6,1.7,12.5c3.5-0.2,2.7-8.2,4-8.8c0,0,2.7-1.3,3.2,4.1
					c0.5,5.3-0.5,7.5-2,9.9c-1.9,2.9,3.5,4.3,7.8,1.3c5.9-4,4.9-15.2,3.6-24.1L727.7,489.7z"/>
				<path class="st1" d="M638.8,489.7c0,0,0.4,2.2,1.7,4.3c1.2,2.1,0.8,12.6-1.7,12.5c-3.5-0.2-2.7-8.2-4-8.8c0,0-2.7-1.3-3.2,4.1
					c-0.5,5.3,0.5,7.5,2,9.9c1.9,2.9-3.5,4.3-7.8,1.3c-5.9-4-4.9-15.2-3.6-24.1L638.8,489.7z"/>
				<g>
					<path class="st1" d="M701.3,384.1c5-9.2,10.8-9.3,9.5-22.7c0,0-17.2-2.7-17.1-18.6c0,0-5.7,3-10.6,3.1
						c-4.9,0.2-10.5-3.9-10.5-3.9s-1.4,17.3-14.1,20.5c-1.7,14,3.9,28,12,35.2C676.4,402.8,696.7,392.5,701.3,384.1z"/>
					<path class="st2" d="M699.2,355.7C699.2,355.7,699.2,355.7,699.2,355.7c-2.6-3-5.5-7.2-5.5-13c0,0-5.7,3-10.6,3.1
						c-3.8,0.1-8-2.2-9.7-3.3l-0.9,1c0,0.2,0,0.3,0,0.5C674.1,346.2,686.5,360.9,699.2,355.7z"/>
				</g>
				<g>
					<path class="st1" d="M722.5,297.9c1.8-55.5-39.6-51.5-39.6-51.5c0,0-41.4-4-39.6,51.5c0,0-0.1,23.2,6.2,31.9
						c8.2,11.4,23.2,17.4,33.4,17.4c10.2,0,25.4-5.2,33.4-17.4C722.7,320.2,722.5,297.9,722.5,297.9z"/>
					<g>
						<g>
							<path class="st10" d="M715.8,316.4c0,2.4-3.4,4.4-7.6,4.4c-4.2,0-7.6-2-7.6-4.5c0-2.4,3.4-4.4,7.6-4.4
								C712.4,311.9,715.8,313.9,715.8,316.4z"/>
							<path class="st10" d="M665.1,316.4c0,2.4-3.4,4.4-7.6,4.4c-4.2,0-7.6-2-7.6-4.5c0-2.4,3.4-4.4,7.6-4.4
								C661.8,311.9,665.1,313.9,665.1,316.4z"/>
							<g>
								<ellipse class="st2" cx="683" cy="318.3" rx="4.6" ry="2.9"/>
								<g>
									<g>
										<path class="st11" d="M670.6,328.9c3.6,8.4,21.5,8.5,24.7-0.3c0.5-1.3-1.6-1.9-2.1-0.6c-2.6,7-17.9,6.2-20.7-0.3
											C671.9,326.4,670,327.6,670.6,328.9L670.6,328.9z"/>
									</g>
								</g>
							</g>
						</g>
						<g>
							<g>
								<circle class="st12" cx="703.9" cy="306.3" r="4.9"/>
								<circle class="st13" cx="705.5" cy="304.1" r="1.6"/>
							</g>
							<g>
								<circle class="st12" cx="661.9" cy="306.3" r="4.9"/>
								<circle class="st13" cx="663.5" cy="304.1" r="1.6"/>
							</g>
						</g>
					</g>
					<path class="st47" d="M719.7,304.5c2.6-2,5.7-4.4,5.7-4.4c3.7-69.1-43.6-56.5-43.6-56.5c0,0-46.1-13.3-42.5,56.8
						c0,0,3.2,1.6,5.8,3.6c0,0,1.1-9.7,9.3-21.5c0,0-2.4,4.5-3.6,12.8h61.9c-1.2-8.3-3.6-12.8-3.6-12.8
						C717.4,294.4,719.7,304.5,719.7,304.5z"/>
				</g>
				<path class="st48" d="M746.8,436c-0.5-7.1-3.1-63.5-12.3-68c-9.2-4.5-34.5-11.8-34.5-11.8l-16.3,45.5l-16.3-45.5
					c0,0-25.4,7.3-34.5,11.8c-9.2,4.5-11.8,60.9-12.3,68c-0.5,7.1,0,59.7,0,59.7h22.7c0,0-5.7-64,1.4-80.2c0,0,3.2,19.2,9,38.5h58.2
					c6.8-17.5,10.7-38.5,10.7-38.5c7,16.2,1.4,80.2,1.4,80.2h22.7C746.8,495.8,747.2,443.1,746.8,436z"/>
				<polygon class="st46" points="667.4,356.2 655.3,359.8 651.2,372.8 662,370.5 653.5,379.4 683.7,401.6 				"/>
				<polygon class="st46" points="699.9,356.2 712,359.8 716.1,372.8 705.4,370.5 713.9,379.4 683.7,401.6 				"/>
				<path class="st13" d="M673.1,372c0,0,9.5,8,21.2,0l-10.6,29.7L673.1,372z"/>
				<polygon class="st49" points="652.4,449.4 653.7,454 711.9,454 713.6,449.4 				"/>
			</g>
		</g>
		<g id="six">
			<ellipse class="st0" cx="485.6" cy="645.2" rx="69.4" ry="10.3"/>
			<g>
				<g>
					<g>
						<g>
							<g>
								<path class="st1" d="M504.1,383.9c4.9-9,9.7-7.1,8.4-20.2c0,0-15.9-4.7-15.8-20.3c0,0-5.6,2.9-10.4,3.1
									c-4.8,0.2-10.3-3.8-10.3-3.8s1.3,16.9-12.3,20.4c-1.7,13.7,1.6,15,9.6,22.1C479.1,390.3,499.6,392.3,504.1,383.9z"/>
								<path class="st2" d="M501.2,356.2C501.2,356.2,501.2,356.2,501.2,356.2c-2.6-3-4.6-7.1-4.6-12.9c0,0-5.6,2.9-10.4,3.1
									c-3.7,0.1-7.8-2.2-9.5-3.3l-0.9,1c0,0.2,0,0.3,0,0.5C477.4,346.8,488.8,361.3,501.2,356.2z"/>
							</g>
							<g>
								<path class="st9" d="M524.9,299.5c1.8-54.5-38.8-50.5-38.8-50.5c0,0-40.6-3.9-38.8,50.5c0,0-0.1,22.7,6.1,31.3
									c8,11.2,22.7,17,32.8,17c10,0,24.9-5.1,32.8-17C525.1,321.3,524.9,299.5,524.9,299.5z"/>
								<g>
									<g>
										<path class="st1" d="M523.9,304.1c0,0,2.4-4.7,5.1-1.5c2.7,3.2,2.2,16.2-6.4,16.2C522.6,318.8,523.9,307.2,523.9,304.1z"
											/>
										<path class="st2" d="M524,308.8c0,0,1.7-4.6,3.4-2.2c1.7,2.4,0.8,5.5-1.7,7.6C525.7,314.2,526.8,305.8,524,308.8z"/>
									</g>
									<g>
										<path class="st1" d="M447.6,304.1c0,0-2.4-4.7-5.1-1.5c-2.7,3.2-1.8,16.2,6.7,16.2C449.2,318.8,447.7,307.2,447.6,304.1z"
											/>
										<path class="st2" d="M447.6,308.8c0,0-1.7-4.6-3.4-2.2s-0.8,5.5,1.7,7.6C445.9,314.2,444.7,305.8,447.6,308.8z"/>
									</g>
								</g>
								<g>
									<path class="st50" d="M448.4,307.4c0,0,0.7-6.7,3.4-12.1c1.5-2.9,4.3-10.1,8.3-14c6.8-6.7,28.6,2.3,49.5-5c0,0-0.7,5,3,10
										c3.7,5,11.5,11.4,11.3,19.6c0,0,2.3-5.7,5.1-3.5c0,0,5.4-29-9.4-34.8c0,0,0.5-14.3-11.1-21.7
										c-13.6-8.7-20.4-15.7-20.4-15.7s1.8,5.8,4.4,7.8c0,0-7.6-0.6-12.4-9c0,0-4,6.3,2.2,10c0,0-4.8,0-6.7-3.5c0,0-1.7,6.1,7,7.8
										c0,0-10.5,0.6-9.6-8.3c0,0-8.2,5.3-15.3,16c0,0,2.6-6.3,4-7.6c0,0-6,3.3-9.8,15.3c0,0-5.9,9.5-8,19.9
										c-2.2,10.4-2.7,18.1-1.4,23.9C442.6,302.6,447.2,300.8,448.4,307.4z"/>
								</g>
								<g>
									<g>
										<g>
											<path class="st2" d="M490.6,318.5c0,1.6-2.1,2.9-4.6,2.9c-2.6,0-4.6-1.3-4.6-2.9c0-1.6,2.1-2.9,4.6-2.9
												C488.5,315.6,490.6,316.9,490.6,318.5z"/>
											<g>
												<g>
													<path class="st11" d="M473.5,329.1c3.6,8.4,21.5,8.5,24.7-0.3c0.5-1.3-1.6-1.9-2.1-0.6c-2.6,7-17.9,6.2-20.7-0.3
														C474.8,326.7,472.9,327.8,473.5,329.1L473.5,329.1z"/>
												</g>
											</g>
										</g>
										<g>
											<g>
												<circle class="st12" cx="506.8" cy="306.6" r="4.9"/>
												<circle class="st13" cx="508.4" cy="304.3" r="1.6"/>
											</g>
											<g>
												<circle class="st12" cx="464.8" cy="306.6" r="4.9"/>
												<circle class="st13" cx="466.4" cy="304.3" r="1.6"/>
											</g>
										</g>
									</g>
									<g>
										<path class="st50" d="M500,297.9c4.2-3.6,9.7-3,13.8,0.3c1,0.8,2.2-0.8,1.2-1.6c-4.7-3.9-11.4-4.5-16.2-0.4
											C497.8,297.1,499,298.7,500,297.9L500,297.9z"/>
									</g>
									<g>
										<path class="st50" d="M471.7,297.9c-4.2-3.6-9.7-3-13.8,0.3c-1,0.8-2.2-0.8-1.2-1.6c4.7-3.9,11.4-4.5,16.2-0.4
											C473.9,297.1,472.7,298.7,471.7,297.9L471.7,297.9z"/>
									</g>
								</g>
							</g>
						</g>
						<g>
							<g>
								<g>
									<polygon class="st51" points="530.3,492.4 520.9,632.5 500.5,632.5 486.2,523.4 470,632.5 449.6,632.5 444.7,492.4 
																			"/>
								</g>
								<path class="st16" d="M520.9,632.5c0,0,15.5,2.9,16.5,9.3c0.9,6.5-25.8,6.1-33.1,4.7c-7.3-1.3-3.8-14-3.8-14H520.9z"/>
								<path class="st16" d="M449.6,632.5c0,0-15.5,2.9-16.5,9.3c-0.9,6.5,25.8,6.1,33.1,4.7c7.3-1.3,3.8-14,3.8-14H449.6z"/>
							</g>
							<g>
								<rect x="468.3" y="370.3" class="st13" width="40.8" height="50.9"/>
								<g>
									<polygon class="st30" points="472.8,356.2 486.6,370.1 476.5,384.3 461.3,363.7 472.1,357.3 									"/>
									<polygon class="st30" points="501.2,356.2 486.2,370.1 496.3,384.3 510.8,362.7 501.7,357.3 									"/>
								</g>
								<g>
									<path class="st52" d="M498.1,474.1l-8.2-90.5h-3.2h-0.5H483l-8.2,90.5c0,0,0.1,7,11.5,12.8c0,0,0.2,0.2,0.2,0.1
										c0.1,0,0.2-0.1,0.2-0.1C498.1,481.2,498.1,474.1,498.1,474.1z"/>
									<polygon class="st53" points="486.6,370.4 486.6,370.3 486.5,370.4 480.4,378.7 482.6,383.8 490.2,383.8 492.5,378.4 
																			"/>
								</g>
								<polygon class="st24" points="537.5,502.6 437.1,502.6 441.1,422.1 533.5,422.1 								"/>
								<g>
									<g>
										<path class="st24" d="M527.4,429.5c0,4.4,3.6,8,8,8h2c4.4,0,8-3.6,8-8v-37.7c0-4.4-3.6-8-8-8h-2c-4.4,0-8,3.6-8,8V429.5z"
											/>
										<g>
											<path class="st24" d="M509.3,363.1l-21.7,66.1l-23.9-66.1c0,0-29.8,3.8-36.1,9.8v19.7l9,34.7l48.9,2v0.1l1.1,0l1.1,0
												v-0.1l48.9-2l9-34.7v-19.7C539.1,366.8,509.3,363.1,509.3,363.1z"/>
											<path class="st24" d="M445.4,429.5c0,4.4-3.6,8-8,8h-2c-4.4,0-8-3.6-8-8v-37.7c0-4.4,3.6-8,8-8h2c4.4,0,8,3.6,8,8V429.5z
												"/>
										</g>
									</g>
									<g>
										<g>
											<polygon class="st15" points="472.1,357.3 461.3,363.7 458.4,372.3 466.5,374.3 461.5,383.8 486.7,427.6 											"/>
										</g>
										<g>
											<polygon class="st15" points="501.7,357.3 512.5,363.7 515.4,372.3 507.3,374.3 512.3,383.8 487.1,427.6 											"/>
										</g>
									</g>
								</g>
							</g>
						</g>
					</g>
					<g>
						<g>
							<path class="st1" d="M514.5,421.1c-3.2,0.5-6.2-1.3-6.7-4.1l-0.8-5.1c-0.5-2.8,1.8-5.5,5-6.1l3.6-0.6
								c3.2-0.5,6.2,1.3,6.7,4.1l0.8,5.1c0.5,2.8-1.8,5.5-5,6.1L514.5,421.1z"/>
							<path class="st54" d="M510.2,404.3c-0.1,0-76.1,16.1-76.1,16.1c-4.3,1.1-6.9,5.4-5.9,9.7l0.5,1.9c1,4.3,5.4,6.9,9.7,5.9
								l75.7-16L510.2,404.3z"/>
						</g>
						<g>
							<path class="st1" d="M458.9,421.1c3.2,0.5,6.2-1.3,6.7-4.1l0.8-5.1c0.5-2.8-1.8-5.5-5-6.1l-3.6-0.6c-3.2-0.5-6.2,1.3-6.7,4.1
								l-0.8,5.1c-0.5,2.8,1.8,5.5,5,6.1L458.9,421.1z"/>
							<path class="st55" d="M463.2,404.3c0.1,0,76.1,16.1,76.1,16.1c4.3,1.1,6.9,5.4,5.9,9.7l-0.5,1.9c-1,4.3-5.4,6.9-9.7,5.9
								l-75.7-16L463.2,404.3z"/>
						</g>
					</g>
				</g>
				<g>
					<g>
						<path class="st56" d="M511.8,298.5c-7.9,0-12,1-15.5,1.6c-3.5,0.6-7.4,1.8-10.7,1.8c-3.3,0-7.2-1.2-10.7-1.8
							c-3.5-0.6-7.6-1.6-15.5-1.6c-9.5,0-14.3,0.8-14.3,0.8l0.5,3.5c2.3,0.5,2.4,1.3,2.9,2.8c0.5,1.6,1.9,5.1,2.6,7.2
							c0.5,1.5,1.9,5.2,10.5,6.2c8.4,0.9,12.6-0.3,14.8-1.9c2.6-1.9,5-7.6,5.6-9.9c0.6-2.2,1.6-1.9,1.6-1.9h1.9h0.2h1.9
							c0,0,0.9-0.3,1.6,1.9c0.6,2.2,3,8,5.6,9.9c2.2,1.6,6.4,2.8,14.8,1.9c8.7-0.9,10-4.6,10.5-6.2c0.7-2,2-5.6,2.6-7.2
							c0.5-1.6,0.6-2.3,2.9-2.8l0.5-3.5C526.1,299.3,521.3,298.5,511.8,298.5z M473.6,315.6c-2.4,1.2-7.4,1.6-11.7,1.1
							c-4.3-0.5-7-1.6-8.3-5.5c-1.3-3.9-1.6-6-1.4-7.4c0.2-1.4,1-2.6,4.8-2.7c3.9-0.2,9.9,0.1,14.2,0.8c4.3,0.8,6.6,1.5,6.8,5
							C478.3,310.4,476.1,314.4,473.6,315.6z M517.2,311.3c-1.3,3.9-4,5-8.3,5.5c-4.3,0.5-9.3,0.1-11.7-1.1
							c-2.5-1.2-4.7-5.3-4.5-8.8c0.2-3.5,2.5-4.2,6.8-5c4.3-0.8,10.3-1,14.2-0.8c3.9,0.2,4.7,1.4,4.8,2.7
							C518.8,305.3,518.5,307.4,517.2,311.3z"/>
					</g>
				</g>
			</g>
		</g>
	</g>
</g>
</svg>
