<?xml version="1.0" encoding="utf-8"?>
<!-- Generator: Adobe Illustrator 19.0.0, SVG Export Plug-In . SVG Version: 6.00 Build 0)  -->
<svg version="1.1" xmlns="http://www.w3.org/2000/svg" xmlns:xlink="http://www.w3.org/1999/xlink" x="0px" y="0px"
	 viewBox="0 0 460 361" style="enable-background:new 0 0 460 361;" xml:space="preserve">
<style type="text/css">

	
	.st0{display:none;}
	.st1{display:inline;fill:#B8D0F2;}
	.st2{fill:#5353C6;}
	.st3{opacity:0.3;fill:url(#SVGID_1_);}
	.st4{opacity:0.3;fill:url(#SVGID_2_);}
	.st5{opacity:0.3;fill:url(#SVGID_3_);}
	.st6{fill:#B8D0F2;}
	.st7{opacity:0.3;fill:#FFFFFF;}
	.st8{fill:#F9CCDA;}
	.st9{fill:#D37897;}
	.st10{fill:url(#SVGID_4_);}
	.st11{fill:#E28DA5;}
	.st12{fill:url(#SVGID_5_);}
	.st13{fill:#FFFFFF;}
	.st14{fill:#3535A5;}
	.st15{fill:#D3805F;}
	.st16{fill:#B2664F;}
	.st17{fill:url(#SVGID_6_);}
	.st18{fill:#D6A659;}
	.st19{fill:#EABD70;}
	.st20{fill:url(#SVGID_7_);}
	.st21{fill:url(#SVGID_8_);}
	.st22{fill:url(#SVGID_9_);}
	.st23{opacity:0.4;fill:url(#SVGID_10_);}
	.st24{fill:#9AC670;}
	.st25{fill:#92BC6A;}


</style>
<g id="BACKGROUND" class="st0">
	<rect x="-14" y="-95" class="st1" width="500" height="500"/>
</g>
<g id="OBJECTS">
	<g>
		<polygon class="st2" points="446.5,255.8 13.5,293.5 13.5,292.5 446.5,254.8 		"/>
	</g>
	<linearGradient id="SVGID_1_" gradientUnits="userSpaceOnUse" x1="165.5" y1="330.5031" x2="315.5" y2="330.5031">
		<stop  offset="0" style="stop-color:#5353C6"/>
		<stop  offset="1" style="stop-color:#5353C6;stop-opacity:2.927700e-002"/>
	</linearGradient>
	<ellipse class="st3" cx="240.5" cy="330.5" rx="75" ry="11.5"/>
	<linearGradient id="SVGID_2_" gradientUnits="userSpaceOnUse" x1="53.5" y1="325.9133" x2="114.4219" y2="325.9133">
		<stop  offset="0" style="stop-color:#5353C6"/>
		<stop  offset="1" style="stop-color:#5353C6;stop-opacity:2.927700e-002"/>
	</linearGradient>
	<ellipse class="st4" cx="84" cy="325.9" rx="30.5" ry="4.1"/>
	<linearGradient id="SVGID_3_" gradientUnits="userSpaceOnUse" x1="297.5" y1="325.5031" x2="447.5" y2="325.5031">
		<stop  offset="0" style="stop-color:#5353C6"/>
		<stop  offset="1" style="stop-color:#5353C6;stop-opacity:2.927700e-002"/>
	</linearGradient>
	<ellipse class="st5" cx="372.5" cy="325.5" rx="75" ry="11.5"/>
	<polygon class="st6" points="252.9,247.2 70.6,262 70.6,33 252.9,47.8 	"/>
	<path class="st7" d="M127.5,90.4c0.8,7,6.6,12.7,6.9,19.8c0.4,8.4-6.9,14.8-13.4,20.2c-6.4,5.3-12.7,11-16.1,18.6
		c-3.4,7.5-3.1,17.3,2.7,23.2c7,7,18.8,6.1,26.6,12c6,4.5,8.6,12.1,12.6,18.5c8.6,13.6,25,21.9,41.1,20.7c4.4-0.3,9.3-1.6,11.7-5.3
		c3-4.5,1.4-10.6-1.3-15.2c-2.7-4.6-6.4-8.9-7.5-14.1c-2.5-11.1,7.1-21.1,16.4-27.7c9.3-6.5,20.3-13.4,22.4-24.6
		c2.3-11.9-6.6-23.1-16.3-30.4c-5.8-4.3-12.3-8.3-15.5-14.8c-2.6-5.3-2.4-11.6-4.5-17.2c-2.8-7.7-10.1-13.6-18.2-14.8
		c-14.9-2.2-17.6,9.9-28.3,15.1C139,78.1,125.8,76,127.5,90.4z"/>
	<g>
		<path class="st8" d="M280.9,319.6c-0.1,2.1-0.3,4.4-1.7,6c-1.6,1.9-4.3,2.4-6.8,2.8c-3.6,0.5-7.2,1.1-10.8,1.6
			c-0.2,0.5,0.4,1,1,1.2c2.7,0.9,5.6,0.5,8.4,0.2c3.2-0.3,6.5-0.5,9.8-0.6c1.5,0,3.2-0.1,3.9-1.4c0.5-0.9,0.3-2.1,0.2-3.2
			c-0.4-3.3,0.5-6.6,0.1-9.9c-0.1-0.4-0.2-0.8-0.5-0.9c-0.2-0.1-0.4,0-0.6,0C281,316,281.1,317.1,280.9,319.6z"/>
		<path class="st2" d="M281.9,328.1c-2.7,1.6-5.4,2.1-8.5,1.7c-0.2,0-1.2-0.3-1.4-0.3c-0.1-0.6-0.1-1.2-0.5-1.2
			c-2.3,0.1-4.5,0.3-6.8,0.6c-0.7,0.1-3.4,0.2-3.7,0.7c-0.3,0.5-0.1,1.1,0.3,1.5c0.4,0.4,0.9,0.7,1.4,0.9c2.6,1,5.4,0.9,8.1,0.7
			c3.4-0.2,6.7-0.3,10.1-0.5c1.1-0.1,2.4-0.1,3.3-0.8c1.4-0.9,1.9-2.8,1.9-4.5C286.1,324,282.9,327.5,281.9,328.1z"/>
		<path class="st8" d="M265.8,172.6c0,0,12.2-0.7,12.2-1c-0.3-3.6-3.5-8.8-1.8-12c1.7-3.2,2.9-4.9,4.6-8.1c0.2-0.5,0.5-1.1,0.1-1.5
			c-0.3-0.3-0.8-0.2-1.2-0.1c-2.2,0.7-4.4,1.4-6.6,2.3c-3.7,1.5-7.1,1.4-7.3,5.3C265.7,161.8,265.8,172.6,265.8,172.6z"/>
		<path class="st8" d="M228.2,325.3c-0.4,2.1-0.9,4.3-2.4,5.8c-1.8,1.7-4.6,1.8-7.1,1.9c-3.6,0.1-7.3,0.1-10.9,0.2
			c-0.3,0.5,0.3,1,0.8,1.3c2.5,1.2,5.5,1.2,8.3,1.3c3.3,0.1,6.5,0.3,9.7,0.7c1.4,0.2,3.2,0.3,4.1-0.9c0.7-0.9,0.6-2,0.6-3.1
			c0-3.3,1.4-6.5,1.4-9.8c0-0.4-0.1-0.8-0.4-1c-0.2-0.1-0.4-0.1-0.6-0.1C228.8,321.7,228.7,322.8,228.2,325.3z"/>
		<path class="st9" d="M288.2,225.1c0,0-2.4,18-3.4,31.7c-0.9,13.7,3.7,43.3,3.4,51.2c-0.3,7.9-2.1,12.5-2.1,12.5h-7
			c0,0-8.5-36.9-8.8-44.8c-0.3-7.9-5.5-48.5-5.5-48.5L288.2,225.1z"/>
		<linearGradient id="SVGID_4_" gradientUnits="userSpaceOnUse" x1="277.1249" y1="279.6751" x2="277.1249" y2="239.8111">
			<stop  offset="0" style="stop-color:#D37897;stop-opacity:0"/>
			<stop  offset="0.8988" style="stop-color:#BC547C"/>
		</linearGradient>
		<path class="st10" d="M288.2,225.1l-13.4,1.2c-4.1,2.6-7.2,6.8-8.8,11.4c1.3,10.7,3.3,26.9,3.9,34.8c0.6,0.1,1.2,0.1,1.8,0.1
			c3.5-0.1,6.8-1.6,9.8-3.5c1.1-0.7,2.2-1.4,3.2-2.2c-0.2-3.8-0.2-7.3,0-10.1C285.8,243.1,288.2,225.1,288.2,225.1z"/>
		<path class="st2" d="M194.7,159.2c0.1,0.8-1.1,1-1.3,0.3c-2.9-10.6-9.7-37.4-9.6-41.1c0.1-2.3,1.7-4,1.7-4h2.1c0,0,1.7,1.7,1.9,4
			C189.7,119.9,193.6,148.6,194.7,159.2z"/>
		<path class="st8" d="M267.1,132.3c-1.4,2.6-3.1,5.5-5.9,5.9c-0.5,0.1-1,0.1-1.4,0.3c-0.7,0.4-0.8,1.5-0.8,2.3
			c0.1,3.3,0.2,6.6,0.4,9.9c0.1,3,0.5,6.5,3.1,8.1c1.8,1.1,4.2,0.8,6.3,0.4c1.7-0.3,3.4-0.7,5-1.4c5-2.1,8.3-7,9.8-12.2
			c1.2-4.1,1.4-8.6-0.3-12.4C279.7,125.8,271,125.1,267.1,132.3z"/>
		<path class="st11" d="M284.8,224.3c-1.4,0.2-2.7,0.4-4.1,0.7c-0.2-0.2-0.6-0.3-0.9-0.3c-9.4-1.8-19.2-1.3-28.1,2.1
			c-4.6,14.1-17,65.1-19.6,71.9c-3.1,8.1-5,16.6-7,25.1c3,0.7,5.7,1.2,8.8,1.3c10.8-25.6,15.5-24.3,17.1-41.4
			c0.3-3.5,4.9-9.3,6.9-12.1c9.5-13.5,25.7-32.3,28.2-36.3C288.4,231.7,292.9,223.1,284.8,224.3z"/>
		<linearGradient id="SVGID_5_" gradientUnits="userSpaceOnUse" x1="269.5765" y1="242.1313" x2="269.5765" y2="221.2273">
			<stop  offset="0" style="stop-color:#D37897;stop-opacity:0"/>
			<stop  offset="0.8988" style="stop-color:#BC547C"/>
		</linearGradient>
		<path class="st12" d="M284.8,224.3c-1.4,0.2-2.7,0.4-4.1,0.7c-0.2-0.2-0.6-0.3-0.9-0.3c-9.4-1.8-19.2-1.3-28.1,2.1
			c-0.6,1.8-1.3,4.1-2.1,6.8c3.1,1.9,8.1,3.6,16.3,4.1c8.6,0.5,16.3-2.7,22.2-6.3C289.9,227.7,290.6,223.5,284.8,224.3z"/>
		<path class="st8" d="M195.3,136c-0.2-0.6-0.4-1.3-0.9-1.7c-0.7-0.5-1.6-0.4-2.3-0.1c-0.8,0.3-1.4,0.8-2.2,1
			c-1.4,0.4-3.1-0.1-4.3,0.7c-0.7,0.5-1,1.5-0.8,2.3c0.1,0.4,0.4,0.8,0.5,1.2c0.6,1.4,0.5,3.1,1.4,4.3c0.7,0.9,1.8,1.4,2.9,1.8
			c2.6,1,5.2,2.1,7.7,3.1c0.2,0.1,0.4,0.1,0.5,0.1c0.1-0.1,0.2-0.2,0.3-0.4c1.1-2.7,0.6-4-0.7-6.2
			C196.2,140.4,195.9,138.1,195.3,136z"/>
		<g>
			
				<ellipse transform="matrix(0.9558 0.2941 -0.2941 0.9558 51.7827 -71.4042)" class="st13" cx="263.3" cy="136.4" rx="2" ry="6.6"/>
			<path class="st14" d="M261.5,143.1c-0.1,0-0.2,0-0.3,0c-0.6-0.2-0.9-1.1-0.9-2.5c0-1.3,0.3-3,0.8-4.7c0.5-1.7,1.2-3.3,2-4.4
				c0.8-1.2,1.6-1.7,2.2-1.6c0.6,0.2,0.9,1.1,0.9,2.5c0,1.3-0.3,3-0.8,4.7c-0.5,1.7-1.2,3.3-2,4.4
				C262.7,142.5,262.1,143.1,261.5,143.1z M265,130.3c-0.3,0-0.8,0.4-1.5,1.4c-0.7,1.1-1.4,2.6-1.9,4.3c-0.5,1.7-0.8,3.3-0.8,4.6
				c0,1.4,0.3,1.9,0.6,2c0.3,0.1,0.9-0.2,1.6-1.3c0.7-1.1,1.4-2.6,1.9-4.3c0.5-1.7,0.8-3.3,0.8-4.6c0-1.4-0.3-1.9-0.6-2
				C265.1,130.3,265.1,130.3,265,130.3z"/>
		</g>
		<path class="st2" d="M228.1,333.8c-2.9,1.3-5.6,1.4-8.7,0.6c-0.2,0-1.2-0.4-1.4-0.5c0-0.6,0.1-1.2-0.4-1.2
			c-2.2-0.2-4.5-0.3-6.8-0.3c-0.7,0-3.4-0.3-3.8,0.2c-0.3,0.5-0.2,1.1,0.1,1.6c0.3,0.5,0.8,0.8,1.3,1.1c2.4,1.3,5.2,1.6,8,1.8
			c3.4,0.3,6.7,0.6,10.1,0.9c1.1,0.1,2.4,0.2,3.4-0.3c1.5-0.7,2.3-2.5,2.5-4.2C232.8,330.3,229.1,333.4,228.1,333.8z"/>
		<path class="st2" d="M292.1,173.5c-3.6-3.2-7.6-6.5-12.4-6.5c-1.6,0-25.9-5.4-28.7-5.7c-18.9-1.5-34.3-16.5-53-19
			c-1.9,0.6-2.5,3.1-1.7,4.9c0.8,1.8,2.4,3,4.1,4.1c16.9,11.5,33.3,22.6,51.6,31.6c-4.2,10.9,6,16.7,5.3,19.4
			c-0.8,2.9-7.7,22-6.9,24.9c6.8,2.1,12.3,2.4,19.4,3c7.1,0.6,14.8-0.7,20.8-4.5c-0.7-3.5-3.8-6.8-1.4-8.1
			c6.9-4.4,13.7-7.8,18.3-14.6c0.9-1.3,1.7-2.7,1.9-4.3C309.9,194.5,297.1,178.1,292.1,173.5z M288,210c0.9-4,5.4-15.9,5.4-15.9
			c2.1,1.1,4.4,5.1,4.4,5.1S290,208.6,288,210z"/>
		<path class="st13" d="M187.9,114.2c-1.3,0.7-3.1,0.4-4.1-0.7c-0.6-0.6-1-1.5-0.6-2.6c0.9-2.4,2.6-5.2,1.9-6.7
			c-0.8-1.6-0.8-1.5-0.8-1.6s4.4,2.5,5,4.6C190.6,111.6,189.3,113.5,187.9,114.2z"/>
		<path class="st8" d="M193.6,129.1c-0.2-0.5-0.5-1-0.9-1.2c-0.6-0.2-1.2,0.3-1.5,0.8c-0.2,0.6-0.2,1.2-0.1,1.8
			c0.2,1.7,0.3,3.4,0.5,5.1c0.1,1,0.3,2.1,1.2,2.5c0.7,0.3,1.5,0,2-0.6c0.9-1.1,0.3-2.4,0.1-3.6
			C194.6,132.4,194.2,130.7,193.6,129.1z"/>
		<path class="st2" d="M189.7,109.3c-0.1-0.6-0.2-1.3-0.4-2c-0.6-2.2-5-4.8-5-4.6c0,0,0,0.1,0,0.1c0,0,0,0,0,0.1
			c0.1,0.2,0.3,0.5,0.7,1.4c0.8,1.5-0.8,4.1-1.7,6.4c0.3,0.1,0.6,0.2,0.9,0.1c0.6-0.3,1-1.2,1.7-1.1c1,0.1,0.6,2,1.5,2.4
			c0.6,0.2,1.1-0.3,1.4-0.9c0.2-0.6,0.3-1.2,0.8-1.6C189.6,109.3,189.7,109.3,189.7,109.3z"/>
		<g>
			<line class="st13" x1="264.3" y1="137.8" x2="269.1" y2="140.5"/>
			
				<rect x="264" y="138.9" transform="matrix(0.8663 0.4995 -0.4995 0.8663 105.1602 -114.6224)" class="st14" width="5.5" height="0.5"/>
		</g>
		<path class="st15" d="M292.3,132.6c-2.5-2.5-5.8-4.2-9.1-5.5c-2.6-1-5.3-2-8-1.9c-2.8,0.1-5.7,1.2-7.1,3.6
			c-1.1,1.8-1.3,4.1-0.9,6.1c0.3,1.4,0.8,4.3,1.9,5.3c0.9,0.8,2.3,0.3,3,1.5c0.5,0.9,0.5,1.9,0.2,2.9c-0.3,1-0.8,2-1.6,2.6
			c-0.2,0.2-0.5,0.3-0.8,0.4c-1.4,0.4-2.2,1.7-2.1,3.1c0.3,2.2,1.1,4.3,2.4,6.1c0.3,0.4,0.6,0.8,1,1.2c-0.1,0.6-0.3,1.3-0.3,1.9
			c-0.3,1.9,0.5,4.1,2.4,4.6c-0.6-0.7-1.3-1.6-1.3-2.5c0-1,0.8-2,1.8-1.8c0.7,0.2,1.1,1,1.2,1.8c0.3,1.8-0.3,3.6-1.4,5
			c1.2-0.7,2.5-1.4,3.3-2.5c0.9-1.2,1.2-2.8,2.1-4c0.2-0.3,0.4-0.5,0.7-0.7c0.1,0.1,0.2,0.3,0.3,0.4c0.7,1.1,0.8,1.8,0.2,3.5
			c-0.1,0.3-0.7,1.3-0.7,1.3c0.1-0.1,3.2-2.4,1.1-5.9c0.5-0.1,1-0.2,1.5-0.4c3.8-1.2,6.5-4.4,9.1-7.4c2.2-2.7,4.6-5.6,5-9.1
			C296.5,138.7,294.8,135.1,292.3,132.6z"/>
		<path class="st14" d="M292.1,173.5c-2.1-1.9-4.4-3.8-6.9-5.1c1,1.9,2.6,3.7,3.1,5.8c0.4,1.8,0.5,3.7,0.5,5.6
			c0.1,4,0.2,8.1,0.3,12.1c0.1,2.7,0.1,5.6-1.1,8c-1.4,2.7-4.1,4.5-6.7,5.9c-0.6,0.3-1.2,0.7-1.5,1.2c-0.7,1.2,0.1,2.7,1.2,3.6
			c1.1,0.8,2.4,1.4,3.3,2.5c0,5.1,0.1,10.3,0.1,15.4c2.2-0.7,4.3-1.7,6.2-2.9c-0.7-3.5-3.8-6.8-1.4-8.1c6.9-4.4,13.7-7.8,18.3-14.6
			c0.9-1.3,1.7-2.7,1.9-4.3C309.9,194.5,297.1,178.1,292.1,173.5z M288,210c0.9-4,5.4-15.9,5.4-15.9c2.1,1.1,4.4,5.1,4.4,5.1
			S290,208.6,288,210z"/>
		<path class="st2" d="M294.7,185.4c0.4,0.4-1.5,7.5-1.6,8.5c0,0.3,0,0.7-0.1,1c0.2-0.5,0.3-0.8,0.3-0.8c2.1,1.1,4.4,5.1,4.4,5.1
			s-7.7,9.4-9.7,10.8c0,0,0-0.1,0-0.1c-0.2,0.4-0.5,0.8-0.7,1.3c-0.4,0.8-0.6,2.1,0.3,2.2c0.3,0,0.6-0.2,0.8-0.4
			c1.9-1.5,3.8-3,5.7-4.5c1-0.8,2-1.6,2.9-2.6c1.2-1.3,2.1-2.8,3-4.4c0.7-1.2,1.5-2.5,2.2-3.7c0.3-0.6,0.7-1.2,0.6-1.9
			c0-0.5-0.3-0.9-0.6-1.4C300,191.2,297.5,188.1,294.7,185.4z"/>
		<path class="st14" d="M257.7,180.6c2.2-1.3,4.6-2.8,5.7-5.1c0.5-1.2,0.8-2.6,1.8-3.4c2.2,2.8,4,5.9,5.2,9.3c0.5,1.3,0.9,2.7,0.6,4
			c-0.3,1.4-1.4,2.6-2.8,2.7c-0.7,0-1.3-0.3-1.9-0.5c-3.3-1.4-9.2-3.1-11.5-5.8C255.9,181.5,256.8,181.1,257.7,180.6z"/>
		<path class="st14" d="M262.7,202.9c-1.7-0.8-4.1-2.2-6-2.3c0.5,0.7,0.7,1.3,0.6,1.8c-0.4,1.5-2.5,7.5-4.3,13.2
			c1.4,0,2.8-0.6,4.1-1.1c3-1.2,6.1-2.7,7.9-5.4c0.7-1.1,1.2-2.6,0.6-3.9C265,204.1,263.8,203.4,262.7,202.9z"/>
		<path class="st14" d="M261.4,177.1c-1.3-0.6-2.8-0.5-4.2-0.5c-6.9,0-13.7-1.8-19.6-5.3c-3.7-2.2-7.1-5-11.1-6.6
			c-3.2-1.3-6.8-1.9-9.9-3.5c-2.6-1.4-4.8-3.4-7.1-5.3c-1.5-1.2-8.5-6.8-12.1-6.9c0.8,0.9,1.9,1.7,2.9,2.4
			c16.9,11.5,33.3,22.6,51.6,31.6c-0.3,0.7-0.5,1.3-0.6,2c0.3,0,0.5,0,0.8-0.1c2-0.4,3.7-1.5,5.7-1.9c2.2-0.4,5.1-0.5,5.7-2.6
			C263.8,179.1,262.7,177.7,261.4,177.1z"/>
		<path class="st16" d="M290.2,130.8c-4,0.1-7.4,2.3-7.1,7.8c0.1,1.4,0.5,2.8,0.7,4.3c0.6,5.8-3.9,10.6-6.6,15.8
			c-0.9,1.7-1.5,3.9-0.3,5.3c0,0,0,0,0.1,0.1c0.7-1.2,1-2.5,1.9-3.6c0.2-0.3,0.4-0.5,0.7-0.7c0.1,0.1,0.2,0.3,0.3,0.4
			c0.7,1.1,0.8,1.8,0.2,3.5c-0.1,0.3-0.7,1.3-0.7,1.3c0.1-0.1,3.2-2.4,1.1-5.9c0.5-0.1,1-0.2,1.5-0.4c3.8-1.2,6.5-4.4,9.1-7.4
			c2.2-2.7,4.6-5.6,5-9.1c0.5-3.6-1.2-7.1-3.8-9.7C291.6,131.9,290.9,131.4,290.2,130.8z"/>
		<circle class="st15" cx="294.1" cy="137.4" r="9.9"/>
		<linearGradient id="SVGID_6_" gradientUnits="userSpaceOnUse" x1="230.2941" y1="299.1585" x2="256.7484" y2="299.1585">
			<stop  offset="0" style="stop-color:#D37897;stop-opacity:0"/>
			<stop  offset="0.8988" style="stop-color:#BC547C"/>
		</linearGradient>
		<path class="st17" d="M234,325.1c10.8-25.6,15.5-24.3,17.1-41.4c0.3-2.9,3.5-7.4,5.7-10.5c-0.3,0.2-0.7,0.3-1.1,0.6
			c-6.4,3.7-10.7,10.5-13.5,17.2c-3.5,8.8-5.1,18.3-9.4,26.8c-1.1,2.2-2.3,4.7-2.6,7C231.5,324.9,232.7,325.1,234,325.1z"/>
	</g>
	<g>
		<path class="st9" d="M358.3,157.9c0,0-6.1,1.1-22.1,21.1c-6.9,14.7-7.2,21.3-7.2,21.3s0.3,3.2,4.8,1.1
			c4.5-2.1,19.7-23.2,19.7-23.2L358.3,157.9z"/>
		<path class="st11" d="M351.4,161.5c-3.4,4-5.9,36-3.1,37.4c6.1,3.1,13.3,2.9,20.2,2.8c1.9,0,3.8-0.1,5.5-0.8
			c2.1-0.8,3.7-2.6,4.8-4.5c2.1-3.6,2.5-7.9,1.7-12c-0.8-4.1-2.7-7.8-5.2-11.1c-2.4-3.2-5.3-6-6.9-9.6c-1.6-3.6-1.5-8.4-6.3-8
			C357.8,155.9,354,158.3,351.4,161.5z"/>
		<path class="st2" d="M333.9,319.3l-3.3,6.7l-18.8-10.1c0,0,0-2.5,3.8-1.4c3.8,1.1,13.1,6.3,13.1,6.3l2.2-4.1L333.9,319.3z"/>
		<path class="st2" d="M385.5,321.2l0.2,7.6l-7.3,6.6c-2.2,2-5.3,3-8.3,2.4c-1.1-0.2-1.8-0.6-1.5-1.3c1-2,11.7-8.1,11.7-8.1l0.5-9.7
			L385.5,321.2z"/>
		<path class="st18" d="M350,207.6c-5.9,20.7-10.6,41.7-14.1,62.9c-2.6,15.9-3.7,32.2-9.5,47.3c2.6,1,4.6,1.5,7.5,2
			c3.3-5.5,6.1-9.9,8.8-15.7c1.7-3.6,3.2-7.4,3.9-11.3c1.1-6.2,0.1-12.8,2.3-18.8c7.1-19.7,15.9-37.8,21.7-57.9
			c0.2-0.8,0.4-1.6,0.1-2.3c-0.4-1-1.7-1.4-2.7-1.6C361.8,210.7,356.3,208.2,350,207.6z"/>
		<path class="st19" d="M382.1,200.5c1.5,40.8,3,81.6,4.5,122.3c-2.9,0-6.7,0-9.5,0c-2.6-8.9-4.2-17.8-4.8-27
			c-1.6-28.1-6.5-56-14.5-83c3.4-3.6,6.3-6.3,10.4-9.2C372.4,200.8,377.2,199.6,382.1,200.5z"/>
		<path class="st11" d="M326.1,185.9c-1.2,3.3-3,6.4-2.4,9.9s3.7,6.8,7.2,6.2c2.9-0.5,4.2-7.4,4.2-7.4l6.9-29.9l-5.8-0.9
			C336.3,163.9,328.1,180.7,326.1,185.9z"/>
		<path class="st11" d="M348.4,207.1c0,0-0.4,3.6,0.3,5.2c1.3,3.3,8.7,5.1,8.7,5.1s26-0.8,26.4-3.2c0.8-4.7-0.5-9.2-0.5-14
			c0-0.5,0-1.1-0.3-1.5c-0.3-0.3-0.7-0.5-1.1-0.6c-6.7-2.3-13.9-2.9-20.9-2c-2.7,0.4-7.7,0.8-10,2.5
			C348.3,200.7,348.4,207.1,348.4,207.1z"/>
		<path class="st8" d="M328.7,192.2c-0.2-0.1-0.5-0.2-0.8-0.1c-0.2,0.1-0.2,0.3-0.3,0.4c-1.1,1.8-4.3,1.1-5.3,2.9
			c-0.4,0.7-0.2,1.7,0.2,2.4c0.4,0.7,1.1,1.2,1.8,1.7c1.8,1.3,6.1,1.3,6.1,1.3l5.5,0.9l0-2.3l-2.8-1.7c0,0,0.5-1.5,0.3-1.7
			C331.8,194.3,329.8,192.8,328.7,192.2z"/>
		<linearGradient id="SVGID_7_" gradientUnits="userSpaceOnUse" x1="366.1868" y1="219.109" x2="366.1868" y2="193.4809">
			<stop  offset="0" style="stop-color:#D37897;stop-opacity:0"/>
			<stop  offset="0.8988" style="stop-color:#BC547C"/>
		</linearGradient>
		<path class="st20" d="M348.6,203.8c-0.1,0.8-0.2,1.5-0.2,2.1c2.2,2,6.6,5.3,13,5.6c5.4,0.3,13.9,2.3,20.2,3.8c1.2-0.3,2-0.6,2-1
			c0.8-4.7-0.5-9.2-0.5-14c0-0.3,0-0.6-0.1-0.9c-4.5-0.3-8.8-0.6-8.8-0.6L348.6,203.8z"/>
		<path class="st8" d="M328.9,192.1c-0.2-0.2-0.5-0.4-0.8-0.5c-0.4-0.1-0.8-0.1-1.1-0.1c-0.5,0-1.1,0-1.6,0.1
			c-0.3,0-0.6,0.1-0.7,0.3c-0.1,0.2,0.1,0.5,0.3,0.7c0.7,0.5,1.5,0.7,2.2,1.2c0.7,0.5,1.1,1.3,1.8,1.7c0.2,0.1,0.4,0.2,0.7,0.2
			c0.2,0,0.5-0.1,0.7-0.2c0.9-0.5,0.9-0.8,0.2-1.6C330.2,193.3,329.6,192.7,328.9,192.1z"/>
		<path class="st11" d="M357.2,157.8l14.6-2.5l8.1,1.5c6.3,1.2,11,6.7,11.1,13.1c0.2,10.6-0.2,26-3.7,33.7
			c-1.6,3.5-7.1,2.9-10.9,2.9c-11.2,0-33.3-0.3-43.7-4.6c0.2-1.6,0-3,0.7-4.5c9.9-1.6,30.8-4.8,40.6-3.1
			c-7.9-8.9-13.6-20.1-15.8-31.8C358,160.9,357.2,157.8,357.2,157.8z"/>
		<linearGradient id="SVGID_8_" gradientUnits="userSpaceOnUse" x1="366.0457" y1="162.6985" x2="391.0074" y2="162.6985">
			<stop  offset="0" style="stop-color:#D37897;stop-opacity:0"/>
			<stop  offset="0.8988" style="stop-color:#BC547C"/>
		</linearGradient>
		<path class="st21" d="M391,170.1c0,0,0-0.1,0-0.1c-0.1-6.5-4.7-11.9-11.1-13.1l-8.1-1.5l-2.3,0.4l-3.4,10.8c0.6,0,14.6-2.3,24,3.1
			C390.4,169.8,390.7,170,391,170.1z"/>
		<path class="st13" d="M361,158.1c-0.2,0.4-0.3,0.9-0.3,1.3c-0.2,2.4,0.1,4.9,0.8,7.3c0.1,0.3,0.2,0.6,0.4,0.9
			c0.6,0.8,1.9,0.7,2.9,0.4c1.5-0.5,2.8-1.4,4.2-2.2c2.5-1.6,5.1-3.4,6.4-6.1c0.2-0.4,0.4-0.9,0.3-1.3c-0.1-1-1.3-1.6-2.3-1.9
			C370.8,155.8,362.6,155.1,361,158.1z"/>
		<path class="st8" d="M372.1,158.8c-3.4,2.6-8.1,5-8.1,5l-2.7-12.6c0,0-4.9,0.7-6.2,0.5c-5.1-0.7-10-4.1-11.1-9.1
			c-0.6-3.1,0.3-6.3,1.2-9.3c1.9-6.2,3.8-12.6,7.7-17.8c1.3-1.7,3.3-2.4,5.5-2.5c2.9-0.1,5.9,0.2,8.7,1.1c2.8,1,5.3,2.7,6.8,5.2
			c1.7,2.9,1.9,6.6,1.4,9.9c-0.5,3.4-1.6,6.7-2.1,10c-0.2,1.1-1.8,3.6-2,6C370.8,150.5,371.7,156.6,372.1,158.8z"/>
		<path class="st2" d="M367.9,138.9c0.6,2.6,2.8,6,3.5,6.4c0-1,1.7-4.9,1.8-5.9c0.5-3.4,1.6-6.6,2.1-10c0.5-3.4,0.4-7-1.4-9.9
			c-1.5-2.5-4.1-4.3-6.8-5.2c-2.8-1-5.7-1.2-8.7-1.1c-0.9,0-1.8,0.2-2.6,0.4c2.6,3.2,11.2,5.6,12.2,4
			C363.6,124.7,366.1,130.6,367.9,138.9z"/>
		<path class="st8" d="M369.9,129.2c1.8-0.3,3.9,0.1,5,1.6c1.3,1.7,0.8,4.1-0.3,5.9c-0.8,1.4-2,2.7-3.5,3.5c-2,1-4.6,0.8-6.4-0.5
			C358.6,135.5,364.8,129.9,369.9,129.2z"/>
		<path class="st2" d="M339.3,148.7c0.5,4.2,2.8,7.6,7,8.4c3.2,0.6,7.1,1,10.1-0.1c10.8-4,6.2-14,7.2-16.7c1.3-3.4,2.5-6.8,3.1-10.3
			c-2-0.5-3.7,1.4-5,3.1c-1.2,1.7-4.2,5.8-6.2,5.3c-1.5-3.1-4.2-6.1-7.6-6.6c-1.3-0.2-3.2-0.6-3.8,0.5
			C340.6,139.3,338.8,145.1,339.3,148.7z"/>
		<path class="st8" d="M341.5,164.8c0.1,0.1,0.2,0.2,0.3,0.3c1.4-2.5,2.7-5.1,3.8-7.8c0.3-0.7,0.6-1.4,0.5-2.2
			c-0.1-0.9-0.8-1.7-1.4-2.4c-0.7-0.8-1.5-1.9-2.2-2.7c0.7-1.2,1.3-2.4,2-3.6c0.3-0.5,0.5-1,0.6-1.5c0.1-0.5-0.1-1.2-0.5-1.5
			c-0.5-0.3-1-0.3-1.3,0.1c-1.6,2.1-7,17.7-6.8,19.8c0.1,1.2,0.3,2.6,1.3,3.3C339.1,167.4,340.7,166,341.5,164.8z"/>
		
			<ellipse transform="matrix(0.9505 0.3106 -0.3106 0.9505 56.0577 -101.5326)" class="st13" cx="346.8" cy="125.3" rx="3" ry="6.4"/>
		<ellipse transform="matrix(0.9505 0.3106 -0.3106 0.9505 57.0523 -104.2632)" class="st13" cx="355.9" cy="127" rx="5.7" ry="7"/>
		<linearGradient id="SVGID_9_" gradientUnits="userSpaceOnUse" x1="370.2924" y1="200.6163" x2="370.2924" y2="164.5612">
			<stop  offset="0" style="stop-color:#D37897;stop-opacity:0"/>
			<stop  offset="0.8988" style="stop-color:#BC547C"/>
		</linearGradient>
		<path class="st22" d="M379.1,172l-5,15.7c0,0-8.1,7.2-12.6,7.5c0.3,0.3,15.2-0.4,15.2-0.4L379.1,172z"/>
		<linearGradient id="SVGID_10_" gradientUnits="userSpaceOnUse" x1="366.9243" y1="135.4035" x2="372.3326" y2="135.4035">
			<stop  offset="0" style="stop-color:#D37897;stop-opacity:0"/>
			<stop  offset="0.8988" style="stop-color:#BC547C"/>
		</linearGradient>
		<path class="st23" d="M366.9,134.9c0,0,2.5-3.2,4.7-1.9c2.2,1.3-1.3,5-1.3,5l-3.4,0.1V134.9z"/>
		<path class="st2" d="M352.4,132.9c0.4,0.3,0.9,0.5,1.4,0.7c3,1,6.4-1.2,7.6-4.9c0.9-2.7,0.3-5.4-1.2-7.1L352.4,132.9z"/>
		<path class="st13" d="M349.7,126.2c0.8-2.5,0.8-4.8,0.1-6.1l-4.9,11.2C346.4,131.8,348.6,129.5,349.7,126.2z"/>
	</g>
	<g>
		<path class="st24" d="M384.5,64.7c0-9.9-8.3-17.9-18.3-17.4c-8.9,0.5-16.1,7.8-16.4,16.7c-0.2,4.8,1.6,9.3,4.7,12.5
			c2.5,2.7,4.6,5.7,6,9.1l0.9,2.2v3.3h4.5h2.3h4.5v-3.3l0.6-1.5c1.6-3.7,3.9-7.1,6.6-10.1C382.8,73.2,384.5,69.1,384.5,64.7z"/>
		<rect x="361" y="87.9" class="st2" width="12.3" height="8.6"/>
		<g>
			<polygon class="st2" points="369.2,91.8 365.7,91.8 359.4,62.4 360.8,62.1 366.9,90.4 368.1,90.4 373.4,61.6 374.8,61.8 			"/>
		</g>
		<circle class="st2" cx="367.1" cy="96.7" r="2.7"/>
		<g>
			<g>
				<g>
					<rect x="366.7" y="26.6" class="st25" width="1" height="14.2"/>
				</g>
			</g>
			<g>
				<g>
					<rect x="387.9" y="61" class="st25" width="14.2" height="1"/>
				</g>
				<g>
					<rect x="332.3" y="61" class="st25" width="14.2" height="1"/>
				</g>
			</g>
			<g>
				<g>
					
						<rect x="339.2" y="42.7" transform="matrix(0.7527 0.6584 -0.6584 0.7527 114.0815 -217.3094)" class="st25" width="14.2" height="1"/>
				</g>
			</g>
			<g>
				<g>
					
						<rect x="385" y="33.5" transform="matrix(0.7525 0.6586 -0.6586 0.7525 122.15 -243.8621)" class="st25" width="1" height="14.2"/>
				</g>
			</g>
		</g>
	</g>
	<polygon class="st11" points="273.5,66.5 242.5,65 242.5,16 273.5,18.5 	"/>
	<polygon class="st11" points="81.3,147.5 59.5,146.4 59.5,112 81.3,113.8 	"/>
	<polygon class="st2" points="87,166.5 69.5,165.7 69.5,138 87,139.4 	"/>
	<polygon class="st19" points="232.1,64.3 204.8,65.3 204.8,31 232.1,32 	"/>
	<polygon class="st19" points="149.2,271.2 121.8,272.2 121.8,237.8 149.2,238.8 	"/>
	<g>
		<path class="st25" d="M80.7,255.1c-0.7-3.3-1.3-6.6-1-10c0.5-4.3,2.8-8.2,5.3-11.7c1.5-2.1,4-4.4,6.4-3.3c0.9,0.4,1.6,1.3,2.1,2.2
			c3.6,6.4,2.6,14.2,2.2,21.5c-0.3,5-0.3,10.1-2,14.9c-0.6,1.6-1.3,3.1-2.6,4.3c-1.2,1.1-3,1.8-4.6,1.4c-3.7-0.9-4.6-5.9-4.7-9.1
			C81.7,261.7,81.4,258.6,80.7,255.1z"/>
		<path class="st14" d="M91.5,291.3c2,0.6,4.1,1.4,5,3.1c-1.2,1.8-2.7,3.5-4.3,5.1c-2.4,2.3-5.5,4.4-8.9,4c-3.4-0.3-6-3-8.5-5.1
			c-2.2-1.9-5.5-3.1-7.5-5c-2.8-2.7,0.9-3.2,3.5-3.5C77.7,288.9,84.9,289.4,91.5,291.3z"/>
		<path class="st24" d="M81.7,298.2c-3.1-3.9-19.3-10.1-22.9-13.6c-6.3-6.1-9.9-14.8-9.9-23.6c0-10.6,5.1-20.6,5.2-31.2
			c0.1-4.9-0.9-9.7-0.7-14.5c0.2-4.8,2-10,6.1-12.6c5.9-3.7,14.3,0,17.8,6c3.6,6,3.6,13.4,2.9,20.4s-1.8,14.1-0.1,20.9
			c2.7,11,12.3,19.2,15.3,30.1c1.2,4.2-9.8,13-9.9,17.3c-0.1,4.9-0.4,11.4-2.5,15.8c-3,6.2,4.8,8.8-1.1,1.8
			C77.9,310.5,86.2,303.8,81.7,298.2z"/>
		<g>
			<path class="st2" d="M82.8,303.9l-0.5-0.1c2-11.5-0.3-23.9-6.4-33.9c-0.7-1.1-1.4-2.2-2.1-3.3c-2-3-4.1-6.2-5.1-9.7
				c-1.5-5.3-0.5-10.9,0.6-16.3c0.3-1.4,0.5-2.9,0.8-4.3c1.7-10.9-0.1-20.7-5-27.6l0.4-0.3c5,6.9,6.8,16.9,5,27.9
				c-0.2,1.4-0.5,2.9-0.8,4.3c-1,5.3-2,10.8-0.6,16c1,3.5,3,6.6,5,9.6c0.7,1.1,1.5,2.2,2.1,3.3C82.6,279.8,84.9,292.2,82.8,303.9z"
				/>
		</g>
		<g>
			<path class="st2" d="M70.4,233.8c-3.1-3.7-6-6.5-9.4-9.2l0.3-0.4c3.4,2.7,6.3,5.5,9.4,9.2L70.4,233.8z"/>
		</g>
		<g>
			<path class="st2" d="M71.4,261.8l-0.4-0.3c0.8-1.3,1.7-2.9,2.7-4.4c0.9-1.6,1.9-3.2,2.7-4.4l0.4,0.3c-0.8,1.3-1.7,2.9-2.7,4.4
				C73.1,259,72.2,260.6,71.4,261.8z"/>
		</g>
		<g>
			<path class="st2" d="M81.7,284.3c-1.4-2.3-4.3-2.9-7-3.6l-0.7-0.2c-4.1-1-8-2.7-11.5-4.9l0.3-0.4c3.5,2.2,7.4,3.8,11.4,4.8
				l0.7,0.2c2.7,0.7,5.8,1.4,7.3,3.8L81.7,284.3z"/>
		</g>
		<g>
			<path class="st2" d="M68.3,246.7c-2.8-2.6-5.4-5.5-7.7-8.5l0.4-0.3c2.4,3,5,5.8,7.7,8.4L68.3,246.7z"/>
		</g>
		<g>
			
				<rect x="72.2" y="214.5" transform="matrix(0.8994 0.4371 -0.4371 0.8994 103.014 -9.6463)" class="st2" width="0.5" height="9"/>
		</g>
		<g>
			<path class="st2" d="M78.6,273.6l-0.5-0.2c1.1-2.8,2.4-5.5,3.8-8.1l0.4,0.2C81,268.1,79.7,270.8,78.6,273.6z"/>
		</g>
		<path class="st2" d="M96.7,294.5c-10,2.9-21,1.9-30.3-2.6l5.4,33.5h16.6L96.7,294.5z"/>
		<path class="st13" d="M91.7,312.8l0.7-2.6c-0.4,0.1-0.8,0.3-1.3,0.4c-2.5,0.6-5.2,0.7-7.8,0.6c-4.2-0.1-8.4-0.8-12.4-2.2
			c-0.7-0.3-1.4-0.6-2.1-0.9l0.4,2.8c0.3,0.1,0.5,0.2,0.8,0.3C77,313.9,84.8,315.4,91.7,312.8z"/>
	</g>
	<path class="st6" d="M348.3,94.1l-2-0.3c-0.2-0.7-0.5-1.3-0.8-1.9l1.2-1.6c0.5-0.7,0.4-1.7-0.2-2.3l-1.8-1.8
		c-0.3-0.3-0.8-0.5-1.2-0.5c-0.4,0-0.7,0.1-1,0.3l-1.7,1.2c-0.6-0.3-1.3-0.6-2-0.8l-0.3-2c-0.1-0.8-0.9-1.5-1.7-1.5h-2.5
		c-0.9,0-1.6,0.6-1.7,1.5l-0.3,2c-0.7,0.2-1.3,0.5-1.9,0.8l-1.6-1.2c-0.3-0.2-0.7-0.3-1-0.3c-0.5,0-0.9,0.2-1.2,0.5l-1.8,1.8
		c-0.6,0.6-0.7,1.6-0.2,2.3l1.2,1.7c-0.3,0.6-0.6,1.3-0.8,1.9l-2,0.3c-0.8,0.1-1.5,0.9-1.5,1.7v2.5c0,0.9,0.6,1.6,1.5,1.7l2,0.3
		c0.2,0.7,0.5,1.3,0.8,1.9l-1.2,1.6c-0.5,0.7-0.4,1.7,0.2,2.3l1.8,1.8c0.3,0.3,0.8,0.5,1.2,0.5c0.4,0,0.7-0.1,1-0.3l1.7-1.2
		c0.6,0.3,1.2,0.6,1.9,0.8l0.3,2c0.1,0.8,0.9,1.5,1.7,1.5h2.5c0.9,0,1.6-0.6,1.7-1.5l0.3-2c0.7-0.2,1.3-0.5,1.9-0.8l1.6,1.2
		c0.3,0.2,0.7,0.3,1,0.3c0.5,0,0.9-0.2,1.2-0.5l1.8-1.8c0.6-0.6,0.7-1.6,0.2-2.3l-1.2-1.7c0.3-0.6,0.6-1.3,0.8-1.9l2-0.3
		c0.8-0.1,1.5-0.9,1.5-1.7v-2.5C349.7,94.9,349.1,94.2,348.3,94.1z M335.5,103c-3.3,0-5.9-2.7-5.9-5.9c0-3.3,2.7-5.9,5.9-5.9
		c3.3,0,5.9,2.7,5.9,5.9C341.4,100.3,338.8,103,335.5,103z"/>
	<path class="st6" d="M327.8,59.1l-1.6-0.3c-0.2-0.5-0.4-1.1-0.7-1.6l1-1.3c0.4-0.6,0.3-1.4-0.2-1.9l-1.4-1.4
		c-0.3-0.3-0.6-0.4-1-0.4c-0.3,0-0.6,0.1-0.8,0.3l-1.4,1c-0.5-0.3-1.1-0.5-1.6-0.7l-0.3-1.6c-0.1-0.7-0.7-1.2-1.4-1.2h-2
		c-0.7,0-1.3,0.5-1.4,1.2l-0.3,1.7c-0.5,0.2-1.1,0.4-1.6,0.7l-1.3-1c-0.2-0.2-0.5-0.3-0.8-0.3c-0.4,0-0.7,0.2-1,0.4l-1.5,1.4
		c-0.5,0.5-0.6,1.3-0.2,1.9l1,1.4c-0.3,0.5-0.5,1-0.6,1.6l-1.6,0.3c-0.7,0.1-1.2,0.7-1.2,1.4v2c0,0.7,0.5,1.3,1.2,1.4l1.7,0.3
		c0.2,0.5,0.4,1.1,0.7,1.6l-1,1.3c-0.4,0.6-0.3,1.4,0.2,1.9l1.4,1.4c0.3,0.3,0.6,0.4,1,0.4c0.3,0,0.6-0.1,0.8-0.3l1.4-1
		c0.5,0.3,1,0.5,1.5,0.6l0.3,1.6c0.1,0.7,0.7,1.2,1.4,1.2h2.1c0.7,0,1.3-0.5,1.4-1.2l0.3-1.6c0.5-0.2,1.1-0.4,1.6-0.7l1.3,1
		c0.2,0.2,0.5,0.3,0.8,0.3c0.4,0,0.7-0.2,1-0.4l1.4-1.4c0.5-0.5,0.6-1.3,0.2-1.9l-1-1.4c0.3-0.5,0.5-1,0.7-1.6l1.6-0.3
		c0.7-0.1,1.2-0.7,1.2-1.4v-2C329,59.9,328.5,59.3,327.8,59.1z M317.4,66.5c-2.7,0-4.9-2.2-4.9-4.9c0-2.7,2.2-4.9,4.9-4.9
		c2.7,0,4.9,2.2,4.9,4.9C322.2,64.3,320.1,66.5,317.4,66.5z"/>
	<polygon class="st6" points="315.5,82 271.7,82 271.7,112.6 295,112.6 292.5,120.4 302.7,112.6 315.5,112.6 	"/>
	<g>
		<circle class="st2" cx="284.7" cy="97.8" r="1.7"/>
		<circle class="st2" cx="293.2" cy="97.8" r="1.7"/>
		<circle class="st2" cx="301.7" cy="97.8" r="1.7"/>
	</g>
</g>
<g id="DESIGNED_BY_FREEPIK">
</g>
</svg>
