<?xml version="1.0" encoding="utf-8"?>
<!-- Generator: Adobe Illustrator 22.0.1, SVG Export Plug-In . SVG Version: 6.00 Build 0)  -->
<svg version="1.1" xmlns="http://www.w3.org/2000/svg" xmlns:xlink="http://www.w3.org/1999/xlink" x="0px" y="0px"
	 viewBox="0 0 286.7 392.1" style="enable-background:new 0 0 286.7 392.1;" xml:space="preserve">
<style type="text/css">
	.st0{fill:#ADD7D7;}
	.st1{fill:#DBDDDE;}
	.st2{fill:#A7A9AC;}
	.st3{fill:#F2C8B4;}
	.st4{fill:#383643;}
	.st5{fill:#231F20;}
	.st6{fill:#2D1B10;}
	.st7{fill:#3C2415;}
	.st8{fill:#FFFFFF;}
	.st9{fill:#E6E7E8;}
	.st10{fill:#F15D44;}
	.st11{opacity:0.6;fill:#F2C8B4;}
	.st12{fill:#42404D;}
	.st13{fill:#B99A8B;}
	.st14{fill:#DCC2A7;}
	.st15{fill:#D1D3D4;}
	.st16{fill:none;stroke:#F15D44;stroke-width:2;stroke-linecap:round;stroke-miterlimit:10;}
	.st17{fill:#4F3C30;}
	.st18{fill:#65C6BB;}
</style>
<g id="bg">
	<rect x="538.3" y="-960.3" class="st0" width="1200" height="1200"/>
</g>
<g id="businessman_5_">
	<g id="businessman_4_">
		<ellipse class="st1" cx="1631.7" cy="54" rx="57.5" ry="7.7"/>
		<g>
			<rect x="1618.2" y="-206.9" class="st2" width="27" height="10.3"/>
			<rect x="1620.2" y="-214.5" class="st3" width="23" height="43.4"/>
			<polygon class="st3" points="1620.2,-212.4 1620.2,-210.8 1643.2,-202.7 1643.2,-212.4 			"/>
		</g>
		<g>
			<g>
				<polyline class="st4" points="1599.2,-71.7 1599.2,45.5 1625.6,45.5 1628.6,-71.7 1634.9,-71.7 1637.9,45.5 1664.2,45.5 
					1664.2,-71.7 1664.2,-93.8 1635.9,-93.8 1627.6,-93.8 1599.2,-93.8 1599.2,-71.7 				"/>
				<polygon class="st1" points="1599.2,-93.8 1664.2,-76.7 1664.2,-93.8 				"/>
				<path class="st5" d="M1629.3,50.1c0,7.9-35,7.9-35,0s7.8-11.2,17.5-11.2S1629.3,42.2,1629.3,50.1z"/>
				<path class="st5" d="M1669.1,50.1c0,7.9-35,7.9-35,0s7.8-11.2,17.5-11.2S1669.1,42.2,1669.1,50.1z"/>
			</g>
			<g>
				<path class="st6" d="M1676.9-65.9c-1.4,0-2.5-1.1-2.5-2.5v-11.9c0-1.4,1.1-2.5,2.5-2.5s2.5,1.1,2.5,2.5v11.9
					C1679.4-67,1678.3-65.9,1676.9-65.9z"/>
				<path class="st7" d="M1669.4-64.4v58.1c0,2.2,1.3,4,2.9,4h9.3c1.6,0,2.9-1.8,2.9-4v-58.1c0-2.2-1.3-4-2.9-4h-9.3
					C1670.7-68.4,1669.4-66.6,1669.4-64.4z"/>
			</g>
			<g>
				<polygon class="st5" points="1664.2,-93.8 1599.2,-93.8 1599.2,-101 1664.2,-101 				"/>
				<path class="st4" d="M1634.7-91.9h-5.9c-2.2,0-4.1-1.8-4.1-4.1v-2.9c0-2.2,1.8-4.1,4.1-4.1h5.9c2.2,0,4.1,1.8,4.1,4.1v2.9
					C1638.8-93.7,1636.9-91.9,1634.7-91.9z M1628.8-100.9c-1.1,0-2.1,0.9-2.1,2.1v2.9c0,1.1,0.9,2.1,2.1,2.1h5.9
					c1.1,0,2.1-0.9,2.1-2.1v-2.9c0-1.1-0.9-2.1-2.1-2.1H1628.8z"/>
			</g>
			<g>
				<path class="st8" d="M1667.7-165.6v-28.1c-5.6-5.4-12.7-9.2-20.5-10.3c-0.4,0-0.7-0.1-1.1-0.1l-14.4,19.7l-14.4-19.7
					c-0.4,0-0.7,0.1-1.1,0.1c-7.8,1-14.9,4.9-20.5,10.3v28.1c0,0.1,0,0.1,0,0.2v60.4c0,2.2,1.8,4,4,4h32c0,0,32,0,32,0
					c2.2,0,4-1.8,4-4v-60.4C1667.7-165.5,1667.7-165.6,1667.7-165.6z"/>
				<polygon class="st9" points="1661.7,-177.1 1667.7,-144.1 1667.7,-164.4 				"/>
			</g>
			<g>
				<g>
					<polygon class="st10" points="1637.2,-186.8 1635,-182.6 1628.4,-182.6 1626.2,-186.8 1631.7,-191.3 					"/>
					<polygon class="st9" points="1618.2,-206.9 1631.7,-191.3 1623.7,-183.9 1612.5,-203.8 					"/>
					<polygon class="st9" points="1645.2,-206.9 1631.7,-191.3 1639.7,-183.9 1651,-203.8 					"/>
					<polygon class="st10" points="1635,-181.6 1638.7,-111.4 1631.7,-104.8 1624.7,-111.4 1628.4,-181.6 					"/>
				</g>
			</g>
		</g>
		<g>
			<g>
				<path class="st3" d="M1676-78.3c0,0,0.2-1.2,0.4-3.1c0.3-1.9,0.5-4.4,0.7-6.9c0.2-2.5,0.3-5.1,0.4-7c0.1-1.9,0.1-3.2,0.1-3.2
					l13.5,0.2c0,0,0,1.4-0.1,3.4c0,2.1-0.2,4.8-0.4,7.6c-0.2,2.8-0.5,5.5-0.8,7.6c-0.2,2.1-0.5,3.5-0.5,3.5c-0.2,1.1-0.5,2.1-1,3
					c-0.5,0.9-1.2,1.6-1.9,2.2c-1.5,1.2-3.3,1.7-5.1,1.3c-1.8-0.4-3.3-1.6-4.3-3.1c-0.5-0.8-0.8-1.6-1-2.5
					C1675.8-76.3,1675.8-77.3,1676-78.3z"/>
				<path class="st3" d="M1671.8-83.6c0.4-3.4,1.6-6.2,2.8-8.3c1.2-2.1,2.3-3.3,2.4-3.4c1-0.8,2.4-0.6,3.1,0.6
					c0.7,1.1,0.5,2.7-0.6,3.4c0,0-0.2,0.3-0.5,0.7s-0.6,1-1,1.8c-0.8,1.5-1.5,3.5-1.8,5.8c-0.2,1.3-1.3,2.3-2.5,2.1
					C1672.5-81.2,1671.7-82.4,1671.8-83.6z"/>
			</g>
			<path class="st8" d="M1692.4-95.6l-16.2-0.6c0.5-14.5-0.8-29.7-4.1-45.3c-2.2-10.4-4.8-19.1-8-26.7c-2.7-6.3-5.8-12.6-10.5-16.2
				l10.9-12.1c7.7,5.9,11,13.7,14.5,22c3.6,8.6,6.6,18.3,9,29.7C1691.4-128,1692.9-111.4,1692.4-95.6z"/>
		</g>
		<g>
			<g>
				<path class="st3" d="M1543.6-284.4c0,0,0,1.4,0.3,3.5c0.2,2.1,0.4,4.9,0.8,7.7c0.4,2.8,0.8,5.5,1.1,7.6c0.4,2,0.7,3.4,0.7,3.4
					l-14.7,2.9c0,0-0.3-1.5-0.7-3.8c-0.3-2.3-0.8-5.3-1.2-8.3c-0.4-3-0.6-6-0.9-8.3c-0.2-2.3-0.3-3.7-0.3-3.7
					c-0.3-4.8,2.9-8.7,7-8.8C1539.8-292.3,1543.3-288.9,1543.6-284.4z"/>
				<path class="st3" d="M1549.3-279.6c0.2,1.9,0.1,3.7-0.2,5.3c-0.2,1.6-0.6,3.1-1,4.3c-0.8,2.5-1.8,4.1-1.9,4.2
					c-0.9,1.1-2.5,1.1-3.5,0.1c-1-1-1.1-2.8-0.1-3.8c0,0,0.2-0.3,0.4-0.8c0.2-0.5,0.5-1.2,0.7-2.1c0.4-1.7,1-4.1,0.7-6.7
					c-0.1-1.5,0.9-2.7,2.2-2.9C1548-282.1,1549.2-281,1549.3-279.6z"/>
			</g>
			<path class="st8" d="M1604.7-182.6c-18.7,0-37.5-10.3-50.7-24.8c-15.6-17.1-21.4-39.2-24.4-54.4l17.7-3.5
				c4.2,21,10.3,35.1,20,45.8c11,12.1,30.3,18.3,45.5,16.3v20.1C1610.1-182.8,1607.4-182.6,1604.7-182.6z"/>
		</g>
		<g>
			<path class="st3" d="M1631.7-284.9c-13.8,0-25,11.2-25,25v26c0,13.8,11.2,25,25,25c13.8,0,25-11.2,25-25v-26
				C1656.7-273.7,1645.5-284.9,1631.7-284.9z"/>
			<g>
				<path class="st10" d="M1641.4-224.8c0,4.4-4,8-9,8c-5,0-9-3.6-9-8H1641.4z"/>
				<path class="st8" d="M1638.8-221.8h-13c-0.6,0-1-0.4-1-1v-2h15v2C1639.8-222.3,1639.4-221.8,1638.8-221.8z"/>
			</g>
			<path class="st7" d="M1658.9-278.4c1.7-2.6,2.9-5.8,2.8-9.3c-1.8,0.4-3.3,0.5-4.7,0.4c1-1.3,1.3-2.8,1.4-3.5
				c0-0.2-0.2-0.3-0.4-0.2c-5.2,2.5-11.5-0.6-11.5-0.6c-4.1-2-8.4-3.1-14.8-2.9c-21,0-27.1,16.1-27.1,16.1
				c-4.7,11.1-3.4,26.3,2.2,40.5c0.1,0.2,0.2,0.5,0.3,0.7c-0.2-1.1-0.4-2.3-0.5-3.5c0.1-4.6-0.4-9.4,0.1-8.9
				c4.2-5.6,5.7-17.1,5.7-17.1s8.9,1.9,19.3,2.3c10.4-0.4,19.3-2.3,19.3-2.3s1.4,11.5,5.7,17.1c0.6-0.5,0.1,4.3,0.1,8.9
				c-0.1,1.2-0.3,2.3-0.5,3.5c0.1-0.2,0.2-0.5,0.3-0.7C1662.3-252.1,1663.6-267.3,1658.9-278.4z"/>
			<g>
				<g>
					<path class="st3" d="M1624.2-246.5c0.1,2.2-1.6,4-3.8,4.1c-2.2,0.1-4-1.6-4.1-3.8c-0.1-2.2,1.6-4,3.8-4.1
						C1622.3-250.4,1624.1-248.7,1624.2-246.5z"/>
					<path class="st7" d="M1624.2-247.5c0.1,2.2-1.6,4-3.8,4.1c-2.2,0.1-4-1.6-4.1-3.8c-0.1-2.2,1.6-4,3.8-4.1
						C1622.3-251.4,1624.1-249.7,1624.2-247.5z"/>
					<path class="st8" d="M1622.6-248.7c0,0.5-0.4,1-1,1c-0.5,0-1-0.4-1-1c0-0.5,0.4-1,1-1C1622.1-249.6,1622.5-249.2,1622.6-248.7z
						"/>
				</g>
				<g>
					<path class="st3" d="M1647.2-246.5c0.1,2.2-1.6,4-3.8,4.1c-2.2,0.1-4-1.6-4.1-3.8c-0.1-2.2,1.6-4,3.8-4.1
						C1645.3-250.4,1647.1-248.7,1647.2-246.5z"/>
					<path class="st7" d="M1647.2-247.5c0.1,2.2-1.6,4-3.8,4.1c-2.2,0.1-4-1.6-4.1-3.8c-0.1-2.2,1.6-4,3.8-4.1
						C1645.3-251.4,1647.1-249.7,1647.2-247.5z"/>
					<path class="st8" d="M1645.6-248.7c0,0.5-0.4,1-1,1c-0.5,0-1-0.4-1-1c0-0.5,0.4-1,1-1C1645.1-249.6,1645.5-249.2,1645.6-248.7z
						"/>
				</g>
			</g>
			<g>
				<path class="st3" d="M1606.7-249.5c-2.8,0-5,2.2-5,5v5.2c0,2.8,2.2,5,5,5c2.8,0,5-2.2,5-5v-5.2
					C1611.7-247.3,1609.5-249.5,1606.7-249.5z"/>
				<path class="st3" d="M1656.7-249.5c-2.8,0-5,2.2-5,5v5.2c0,2.8,2.2,5,5,5c2.8,0,5-2.2,5-5v-5.2
					C1661.7-247.3,1659.5-249.5,1656.7-249.5z"/>
			</g>
			<path class="st11" d="M1660-248.3c-0.8-0.7-1.9-1.2-3.1-1.2c0,0-0.1,0-0.1,0c-4.3-5.6-5.7-17.1-5.7-17.1s-8.9,1.9-19.3,2.3
				c0,0,0,14.8,0,14.8c-3.6,7.8-6,19-6,19h6v21.5c13.8,0,25-11.2,25-25v-0.4c2.8,0,5-2.2,5-5v-5.2C1661.7-246,1661-247.4,1660-248.3
				z"/>
		</g>
	</g>
	<g id="businessman_11_">
		<ellipse class="st1" cx="1425" cy="54" rx="57.5" ry="7.7"/>
		<g>
			<rect x="1411.5" y="-206.9" class="st2" width="27" height="10.3"/>
			<rect x="1413.5" y="-214.5" class="st3" width="23" height="43.4"/>
			<polygon class="st3" points="1413.5,-213.4 1413.5,-210.8 1436.5,-202.7 1436.5,-213.4 			"/>
		</g>
		<g>
			<g>
				<polyline class="st4" points="1392.5,-71.7 1392.5,45.5 1418.8,45.5 1421.8,-71.7 1428.1,-71.7 1431.1,45.5 1457.5,45.5 
					1457.5,-71.7 1457.5,-93.8 1429.1,-93.8 1420.8,-93.8 1392.5,-93.8 1392.5,-71.7 				"/>
				<polygon class="st1" points="1392.5,-93.8 1457.5,-76.7 1457.5,-93.8 				"/>
				<path class="st5" d="M1422.6,50.1c0,7.9-35,7.9-35,0s7.8-11.2,17.5-11.2S1422.6,42.2,1422.6,50.1z"/>
				<path class="st5" d="M1462.4,50.1c0,7.9-35,7.9-35,0s7.8-11.2,17.5-11.2S1462.4,42.2,1462.4,50.1z"/>
			</g>
			<g>
				<polygon class="st5" points="1457.4,-93.8 1392.5,-93.8 1392.5,-101 1457.5,-101 				"/>
				<path class="st4" d="M1428-91.9h-5.9c-2.2,0-4.1-1.8-4.1-4.1v-2.9c0-2.2,1.8-4.1,4.1-4.1h5.9c2.2,0,4.1,1.8,4.1,4.1v2.9
					C1432-93.7,1430.2-91.9,1428-91.9z M1422-100.9c-1.1,0-2.1,0.9-2.1,2.1v2.9c0,1.1,0.9,2.1,2.1,2.1h5.9c1.1,0,2.1-0.9,2.1-2.1
					v-2.9c0-1.1-0.9-2.1-2.1-2.1H1422z"/>
			</g>
			<g>
				<path class="st8" d="M1461-165.6v-28.1c-5.6-5.4-12.7-9.2-20.5-10.3c-0.4,0-0.7-0.1-1.1-0.1l-14.4,19.7l-14.4-19.7
					c-0.4,0-0.7,0.1-1.1,0.1c-7.8,1-14.9,4.9-20.5,10.3l0,28.1c0,0.1,0,0.1,0,0.2v60.4c0,2.2,1.8,4,4,4h32c0,0,32,0,32,0
					c2.2,0,4-1.8,4-4v-60.4C1461-165.5,1461-165.6,1461-165.6z"/>
				<polygon class="st10" points="1430.5,-186.8 1428.3,-182.6 1421.6,-182.6 1419.5,-186.8 1425,-191.3 				"/>
				<polygon class="st9" points="1411.5,-206.9 1425,-191.3 1417,-183.9 1405.8,-203.8 				"/>
				<polygon class="st9" points="1438.5,-206.9 1425,-191.3 1433,-183.9 1444.2,-203.8 				"/>
				<polygon class="st10" points="1428.3,-181.6 1432,-111.4 1425,-104.8 1418,-111.4 1421.6,-181.6 				"/>
			</g>
		</g>
		<g>
			<g>
				<path class="st3" d="M1416.2-153.5c0,0-4,0.7-8,1.2c-2,0.3-4,0.5-5.5,0.6c-1.5,0.1-2.5,0.2-2.5,0.2l1.1,15c0,0,1.1-0.1,2.8-0.2
					c1.7-0.2,3.8-0.4,6-0.7c4.3-0.6,8.6-1.3,8.6-1.3c3.4-0.6,5.4-4.4,4.6-8.5C1422.5-151.3,1419.3-154.1,1416.2-153.5z"/>
				<path class="st3" d="M1408.5-146.7c-0.6,0-1.3-0.2-1.8-0.6c-1.3-1-1.6-2.9-0.5-4.2c1.2-1.5,4.2-6.3,4.2-10.2c0-1.7,1.3-3,3-3
					c1.7,0,3,1.3,3,3c0,6.6-4.9,13.1-5.5,13.8C1410.3-147.1,1409.4-146.7,1408.5-146.7z"/>
			</g>
			<path class="st9" d="M1394.3-132.7c-1.8,0-3.6-0.1-5.3-0.2l0-4c4.3,0.3,9.1,0.2,14.5-0.3l0.4,4
				C1400.5-132.9,1397.3-132.7,1394.3-132.7z"/>
			<path class="st9" d="M1394.3-150.7c-2,0-3.8-0.1-5.4-0.2l0-4c3,0.3,7.2,0.4,12.8-0.1l0.4,4
				C1399.3-150.9,1396.7-150.7,1394.3-150.7z"/>
			<path class="st8" d="M1394.3-134.7c-12.7,0-21.7-3-26.8-8.9c-2.9-3.4-5.8-9.2-3.5-18.1c2.3-9.1,8.6-16.4,15-23
				c4.9-5,10.3-9.7,16-14l10.7,14.5c-5,3.7-9.6,7.7-13.9,12.1c-4.7,4.8-9.2,10-10.5,15c-0.4,1.4-0.2,1.9-0.2,1.9
				c0.8,1.2,7.3,3.4,20.8,2.2l1.7,17.9C1400.3-134.9,1397.2-134.7,1394.3-134.7z"/>
		</g>
		<g>
			<g>
				<polygon class="st3" points="1504.2,-202.7 1499.1,-192.8 1512.3,-185.9 1521.1,-202.6 				"/>
				<path class="st3" d="M1500.9-203.6c-3,5.8,0.6,12.9,0.8,13.2c0.6,1.2,2.1,1.7,3.3,1.3c1.2-0.5,1.7-1.8,1.1-3
					c0,0-0.2-0.4-0.4-0.9c-0.2-0.6-0.5-1.4-0.7-2.3c-0.4-1.8-0.6-4.1,0.4-6c0.6-1.1,0-2.5-1.2-3.2S1501.4-204.7,1500.9-203.6z"/>
			</g>
			<path class="st8" d="M1486.4-143.5c-2.6,0-5-1.1-6.7-3l-33.8-38.3c0,0,10.2-12.7,13.7-10.2c3.5,2.5,25,26.8,25,26.8l14.2-27.2
				l15.9,8.3l-20.3,38.8c-1.4,2.6-3.9,4.4-6.9,4.8C1487.2-143.6,1486.8-143.5,1486.4-143.5z"/>
			<polyline class="st9" points="1471.1,-183.2 1468.5,-159.2 1472.4,-154.8 1471.1,-183.2 			"/>
		</g>
		<g>
			<rect x="1471.1" y="-199.5" class="st8" width="73.7" height="100"/>
			<path class="st3" d="M1521.1-202.9c1.7,3.3,0.1,7.5-3.5,9.5c-3.7,1.9-8,0.8-9.8-2.5l-3.6-6.8
				C1513.6-208.7,1521.1-202.9,1521.1-202.9z"/>
		</g>
		<g>
			<path class="st3" d="M1429.8-284.6c-13.8-0.7-25.6,9.9-26.3,23.7l-1.4,26c-0.7,13.8,9.9,25.6,23.7,26.3
				c13.8,0.7,25.6-9.9,26.3-23.7l1.4-26C1454.1-272.1,1443.5-283.8,1429.8-284.6z"/>
			<g>
				<path class="st10" d="M1435.6-224.1c-0.2,4.4-4.4,7.8-9.4,7.5c-5-0.3-8.8-4-8.6-8.5L1435.6-224.1z"/>
				<path class="st8" d="M1432.9-221.2l-13-0.7c-0.6,0-1-0.5-0.9-1.1l0.1-2l15,0.8l-0.1,2C1433.9-221.6,1433.4-221.2,1432.9-221.2z"
					/>
			</g>
			<path class="st7" d="M1456.5-276.6c1.8-2.5,3.2-5.6,3.3-9.2c-1.8,0.3-3.4,0.3-4.7,0.2c1.1-1.3,1.5-2.7,1.6-3.4
				c0-0.2-0.2-0.3-0.3-0.3c-5.3,2.2-11.4-1.2-11.4-1.2c-4-2.3-8.3-3.6-14.6-3.7c-21-1.1-27.9,14.7-27.9,14.7
				c-5.3,10.8-4.8,26.1,0,40.6c0.1,0.2,0.2,0.5,0.3,0.7c-0.2-1.1-0.3-2.3-0.3-3.5c0.3-4.5,0.1-9.4,0.6-8.9
				c4.5-5.4,6.6-16.8,6.6-16.8s8.8,2.4,19.2,3.4c10.4,0.1,19.4-1.3,19.4-1.3s0.8,11.5,4.8,17.4c0.6-0.5-0.1,4.3-0.3,8.9
				c-0.2,1.2-0.4,2.3-0.7,3.4c0.1-0.2,0.2-0.5,0.4-0.7C1458.5-250.2,1460.6-265.3,1456.5-276.6z"/>
			<g>
				<g>
					<path class="st3" d="M1420.2-246.6c0,2.2-1.8,3.9-4,3.9c-2.2,0-3.9-1.8-3.9-4s1.8-3.9,4-3.9
						C1418.5-250.6,1420.2-248.8,1420.2-246.6z"/>
					<path class="st7" d="M1420.3-247.6c0,2.2-1.8,3.9-4,3.9c-2.2,0-3.9-1.8-3.9-4c0-2.2,1.8-3.9,4-3.9
						C1418.6-251.6,1420.3-249.8,1420.3-247.6z"/>
					<path class="st8" d="M1418.7-248.8c0,0.5-0.5,1-1,1c-0.5,0-1-0.5-1-1c0-0.5,0.5-1,1-1C1418.3-249.8,1418.7-249.4,1418.7-248.8z
						"/>
				</g>
				<g>
					<path class="st3" d="M1443.2-245.4c0,2.2-1.8,3.9-4,3.9s-3.9-1.8-3.9-4c0-2.2,1.8-3.9,4-3.9
						C1441.5-249.4,1443.2-247.6,1443.2-245.4z"/>
					<path class="st7" d="M1443.2-246.4c0,2.2-1.8,3.9-4,3.9c-2.2,0-3.9-1.8-3.9-4c0-2.2,1.8-3.9,4-3.9
						C1441.5-250.4,1443.3-248.6,1443.2-246.4z"/>
					<path class="st8" d="M1441.7-247.6c0,0.5-0.5,1-1,1c-0.5,0-1-0.5-1-1s0.5-1,1-1C1441.2-248.6,1441.7-248.2,1441.7-247.6z"/>
				</g>
			</g>
			<g>
				<path class="st3" d="M1402.9-250.5c-2.8-0.1-5.1,2-5.3,4.7l-0.3,5.2c-0.1,2.8,2,5.1,4.7,5.3s5.1-2,5.3-4.7l0.3-5.2
					C1407.8-248,1405.7-250.4,1402.9-250.5z"/>
				<path class="st3" d="M1452.9-247.9c-2.8-0.1-5.1,2-5.3,4.7l-0.3,5.2c-0.1,2.8,2,5.1,4.7,5.3c2.8,0.1,5.1-2,5.3-4.7l0.3-5.2
					C1457.7-245.4,1455.6-247.8,1452.9-247.9z"/>
			</g>
			<path class="st11" d="M1456-246.5c-0.8-0.8-1.8-1.3-3-1.4c0,0-0.1,0-0.1,0c-4-5.9-4.8-17.4-4.8-17.4s-9,1.4-19.4,1.3
				c0,0-0.8,14.8-0.8,14.8c-4,7.6-7,18.7-7,18.7l6,0.3l-1.1,21.5c13.8,0.7,25.6-9.9,26.3-23.7l0-0.4c2.8,0.1,5.1-2,5.3-4.7l0.3-5.2
				C1457.7-244.2,1457.1-245.6,1456-246.5z"/>
		</g>
	</g>
	<g id="businessman_2_">
		<ellipse class="st1" cx="1256.7" cy="54" rx="57.5" ry="7.7"/>
		<g>
			<rect x="1243.2" y="-206.6" class="st2" width="27" height="10.3"/>
			<rect x="1245.2" y="-214.2" class="st3" width="23" height="43.4"/>
			<polygon class="st3" points="1245.2,-212.1 1245.2,-210.5 1268.2,-202.4 1268.2,-212.1 			"/>
		</g>
		<g>
			<g>
				<polyline class="st4" points="1224.2,-71.4 1224.2,45.8 1250.6,45.8 1253.6,-71.4 1259.9,-71.4 1262.9,45.8 1289.2,45.8 
					1289.2,-71.4 1289.2,-93.5 1260.9,-93.5 1252.6,-93.5 1224.2,-93.5 1224.2,-71.4 				"/>
				<polygon class="st1" points="1224.2,-93.5 1289.2,-76.4 1289.2,-93.5 				"/>
				<path class="st5" d="M1254.3,50.3c0,7.9-35,7.9-35,0s7.8-11.2,17.5-11.2S1254.3,42.5,1254.3,50.3z"/>
				<path class="st5" d="M1294.1,50.3c0,7.9-35,7.9-35,0s7.8-11.2,17.5-11.2S1294.1,42.5,1294.1,50.3z"/>
			</g>
			<g>
				<polygon class="st5" points="1289.2,-93.5 1224.2,-93.5 1224.2,-100.8 1289.2,-100.8 				"/>
				<path class="st4" d="M1259.7-91.6h-5.9c-2.2,0-4.1-1.8-4.1-4.1v-2.9c0-2.2,1.8-4.1,4.1-4.1h5.9c2.2,0,4.1,1.8,4.1,4.1v2.9
					C1263.8-93.5,1261.9-91.6,1259.7-91.6z M1253.7-100.7c-1.1,0-2.1,0.9-2.1,2.1v2.9c0,1.1,0.9,2.1,2.1,2.1h5.9
					c1.1,0,2.1-0.9,2.1-2.1v-2.9c0-1.1-0.9-2.1-2.1-2.1H1253.7z"/>
			</g>
			<g>
				<path class="st3" d="M1332.8-155.3c-1.6,0-3.1-0.5-4.5-1.5c-3.3-2.5-4-7.2-1.5-10.5l12.5-16.7c2.5-3.3,7.2-4,10.5-1.5
					c3.3,2.5,4,7.2,1.5,10.5l-12.5,16.7C1337.3-156.3,1335-155.3,1332.8-155.3z"/>
				<path class="st8" d="M1311.6-126.9c-0.4,0-0.8,0-1.1-0.1c-3.1-0.4-5.8-2.4-7.1-5.3l-19.1-43.2l16.5-7.3l13.1,29.5l17.8-22.6
					l14.1,11.2l-27.1,34.3C1316.9-128.2,1314.3-126.9,1311.6-126.9z"/>
				<path class="st5" d="M1340-176.7c-0.2,0-0.4-0.1-0.6-0.2c-0.5-0.3-0.6-1-0.3-1.5c0-0.1,41.1-58,41.1-58c0.1-0.2,0.3-0.3,0.6-0.3
					c0.1,0,0.3,0,0.4,0.1c0.3,0.2,0.4,0.7,0.2,1l-40.4,58.4C1340.7-176.9,1340.3-176.7,1340-176.7z"/>
				<path class="st3" d="M1336.5-174.5c-1.2,0-2.2-0.8-2.4-2c-0.1-0.4-0.8-4.1,1.7-6.7c1.7-1.8,4.3-2.5,7.7-2.1
					c1.4,0.2,2.3,1.4,2.1,2.8c-0.2,1.4-1.4,2.3-2.8,2.1c-1.7-0.2-2.9,0-3.4,0.5c-0.6,0.7-0.5,2-0.4,2.3c0.3,1.4-0.6,2.7-1.9,3
					C1336.8-174.5,1336.6-174.5,1336.5-174.5z"/>
			</g>
			<g>
				<path class="st3" d="M1233.9-82.3c-0.9,0-1.8-0.4-2.2-1.2c-2.4-4-7-6.2-7.1-6.2c-1.3-0.5-1.8-2-1.3-3.3c0.5-1.3,2-1.8,3.3-1.3
					c0.3,0.1,6.2,2.7,9.4,8.3c0.7,1.2,0.3,2.7-0.9,3.4C1234.7-82.4,1234.3-82.3,1233.9-82.3z"/>
				<path class="st3" d="M1210.4-95c2.5,6.9,5.7,14.4,9.7,22.3c1.3,2.6,4,4.1,6.7,4.1c1.2,0,2.3-0.3,3.4-0.8
					c3.7-1.9,5.1-6.4,3.3-10.1c-3.9-7.6-6.9-14.7-9.3-21.3L1210.4-95z"/>
				<path class="st8" d="M1211.6-87.4c-17.2-31.6-14.8-57.5-9.7-73.7c5.5-17.8,15.5-28.1,15.9-28.5l6.4,6.3l6.5,6.3
					c-1.2,1.3-29.9,32.2-3.3,81.1L1211.6-87.4z"/>
			</g>
			<g>
				<path class="st8" d="M1304.2-168.7c0-15.9-14.3-32.8-31.9-35c-0.4,0-0.7-0.1-1.1-0.1l-14.4,19.7l-14.4-19.7
					c-0.4,0-0.7,0.1-1.1,0.1c-17.6,2.3-32,19.1-32,35.1l11.5,3.3c0,0.1,0,0.1,0,0.2v60.4c0,2.2,1.8,4,4,4h64c2.2,0,4-1.8,4-4v-60.4
					c0-0.1,0-0.1,0-0.2L1304.2-168.7z"/>
				<polygon class="st9" points="1285.7,-174.2 1292.7,-144.3 1292.7,-162.7 				"/>
			</g>
			<g>
				<polygon class="st10" points="1262.2,-186.5 1260,-182.3 1253.4,-182.3 1251.2,-186.5 1256.7,-191 				"/>
				<polygon class="st9" points="1243.2,-206.6 1256.7,-191 1248.7,-183.6 1237.5,-203.6 				"/>
				<polygon class="st9" points="1270.2,-206.6 1256.7,-191 1264.7,-183.6 1275.9,-203.6 				"/>
				<polygon class="st10" points="1260,-181.3 1263.7,-111.2 1256.7,-104.5 1249.7,-111.2 1253.4,-181.3 				"/>
			</g>
		</g>
		<g>
			<path class="st3" d="M1251.8-284.5c-13.8,1.2-23.9,13.3-22.7,27.1l2.3,25.9c1.2,13.8,13.3,23.9,27.1,22.7
				c13.8-1.2,23.9-13.3,22.7-27.1l-2.3-25.9C1277.7-275.5,1265.6-285.7,1251.8-284.5z"/>
			<g>
				<path class="st10" d="M1266.1-225.4c0.4,4.4-3.3,8.3-8.3,8.8c-5,0.4-9.3-2.8-9.7-7.2L1266.1-225.4z"/>
				<path class="st8" d="M1263.8-222.2l-13,1.1c-0.6,0-1-0.4-1.1-0.9l-0.2-2l14.9-1.3l0.2,2C1264.7-222.8,1264.3-222.3,1263.8-222.2
					z"/>
			</g>
			<path class="st7" d="M1279.4-280.4c1.5-2.8,2.4-6,2-9.5c-1.7,0.5-3.3,0.8-4.6,0.8c0.9-1.4,1.1-2.9,1.1-3.6c0-0.2-0.2-0.3-0.4-0.2
				c-5,2.9-11.5,0.4-11.5,0.4c-4.3-1.7-8.7-2.4-15-1.6c-20.9,1.8-25.6,18.4-25.6,18.4c-3.7,11.5-1.1,26.5,5.7,40.2
				c0.1,0.2,0.3,0.5,0.4,0.7c-0.3-1.1-0.6-2.2-0.8-3.4c-0.3-4.5-1.3-9.3-0.6-8.9c3.7-6,4.2-17.5,4.2-17.5s9,1.1,19.4,0.7
				c10.4-1.4,19-4,19-4s2.4,11.3,7.1,16.5c0.5-0.6,0.5,4.3,0.9,8.8c0,1.2-0.1,2.3-0.2,3.5c0.1-0.2,0.2-0.5,0.3-0.7
				C1285.1-254.4,1285.1-269.7,1279.4-280.4z"/>
			<g>
				<g>
					<path class="st3" d="M1247.6-245.6c0.3,2.2-1.3,4.1-3.4,4.4c-2.2,0.3-4.1-1.3-4.4-3.4c-0.3-2.2,1.3-4.1,3.4-4.4
						C1245.4-249.3,1247.4-247.8,1247.6-245.6z"/>
					<path class="st7" d="M1247.6-246.6c0.3,2.2-1.3,4.1-3.4,4.4c-2.2,0.3-4.1-1.3-4.4-3.4c-0.3-2.2,1.3-4.1,3.4-4.4
						C1245.3-250.3,1247.3-248.8,1247.6-246.6z"/>
					<path class="st8" d="M1245.8-247.6c0.1,0.5-0.3,1-0.9,1.1c-0.5,0.1-1-0.3-1.1-0.9s0.3-1,0.9-1.1
						C1245.3-248.5,1245.8-248.1,1245.8-247.6z"/>
				</g>
				<g>
					<path class="st3" d="M1270.6-247.6c0.3,2.2-1.3,4.1-3.4,4.4c-2.2,0.3-4.1-1.3-4.4-3.4c-0.3-2.2,1.3-4.1,3.4-4.4
						C1268.3-251.3,1270.3-249.8,1270.6-247.6z"/>
					<path class="st7" d="M1270.5-248.6c0.3,2.2-1.3,4.1-3.4,4.4c-2.2,0.3-4.1-1.3-4.4-3.4c-0.3-2.2,1.3-4.1,3.4-4.4
						C1268.2-252.3,1270.2-250.8,1270.5-248.6z"/>
					<path class="st8" d="M1268.8-249.6c0.1,0.5-0.3,1-0.9,1.1c-0.5,0.1-1-0.3-1.1-0.9c-0.1-0.5,0.3-1,0.9-1.1
						C1268.2-250.5,1268.7-250.1,1268.8-249.6z"/>
				</g>
			</g>
			<g>
				<path class="st3" d="M1230-247.1c-2.8,0.2-4.8,2.7-4.5,5.4l0.5,5.2c0.2,2.8,2.7,4.8,5.4,4.5c2.8-0.2,4.8-2.7,4.5-5.4l-0.5-5.2
					C1235.2-245.3,1232.8-247.3,1230-247.1z"/>
				<path class="st3" d="M1279.8-251.4c-2.8,0.2-4.8,2.7-4.5,5.4l0.5,5.2c0.2,2.8,2.7,4.8,5.4,4.5c2.8-0.2,4.8-2.7,4.5-5.4l-0.5-5.2
					C1285-249.6,1282.6-251.7,1279.8-251.4z"/>
			</g>
			<path class="st11" d="M1283.1-250.5c-0.9-0.6-2-1-3.2-0.9c0,0-0.1,0-0.1,0c-4.7-5.2-7.2-16.5-7.2-16.5s-8.7,2.7-19,4
				c0,0,1.3,14.8,1.3,14.8c-3,8-4.3,19.5-4.3,19.5l6-0.5l1.9,21.4c13.8-1.2,23.9-13.3,22.7-27.1l0-0.4c2.8-0.2,4.8-2.7,4.5-5.4
				l-0.5-5.2C1285.1-248.4,1284.3-249.7,1283.1-250.5z"/>
			<path class="st4" d="M1279.5-252.9l-3.3,0.9c-0.5-2.5-2.7-4.3-5.3-4.1l-10,0.9c-2.7,0.2-4.6,2.5-4.5,5.2l-3,0.3
				c-0.4-2.6-2.7-4.5-5.4-4.3l-10,0.9c-2.6,0.2-4.5,2.4-4.5,4.9l-3.4-0.3c-0.6-0.1-1,0.3-1.1,0.9c-0.1,0.5,0.3,1,0.9,1.1l4,0.4
				l1.1,4.4c0.3,2.7,2.7,4.7,5.4,4.5l8-0.7c2.7-0.2,4.7-2.6,4.6-5.3l0.3-4.4l3.6-0.3l1.1,4.2c0.3,2.7,2.7,4.7,5.4,4.5l8-0.7
				c2.7-0.2,4.7-2.6,4.6-5.3l0.4-4.5l3.9-1.1c0.5-0.1,0.8-0.7,0.7-1.2C1280.6-252.7,1280-253,1279.5-252.9z M1250.9-243.4l0,0.2
				c0.1,1.6-1.1,3.1-2.7,3.3l-8,0.7c-1.6,0.1-3.1-1.1-3.3-2.7l-1.3-5.1c0-0.2,0-0.3-0.1-0.4l-0.1-0.5c-0.1-1.6,1.1-3,2.7-3.2l10-0.9
				c1.6-0.1,3.1,1,3.2,2.7L1250.9-243.4z M1273.8-245.4l0,0.2c0.1,1.6-1.1,3.1-2.7,3.3l-8,0.7c-1.6,0.1-3.1-1.1-3.3-2.7l-1.5-6
				c-0.1-1.6,1.1-3,2.7-3.2l10-0.9c1.6-0.1,3.1,1,3.2,2.7l0,0.5c0,0.1-0.1,0.3,0,0.4L1273.8-245.4z"/>
		</g>
	</g>
	<g id="businessman_10_">
		<ellipse class="st1" cx="1070.3" cy="54" rx="57.5" ry="7.7"/>
		<g>
			<rect x="1056.8" y="-206.9" class="st2" width="27" height="10.3"/>
			<rect x="1058.8" y="-214.5" class="st3" width="23" height="43.4"/>
			<polygon class="st3" points="1058.8,-213.4 1058.8,-210.8 1081.8,-202.7 1081.8,-213.4 			"/>
		</g>
		<g>
			<g>
				<polyline class="st4" points="1037.8,-71.7 1037.8,45.5 1064.2,45.5 1067.2,-71.7 1073.5,-71.7 1076.5,45.5 1102.8,45.5 
					1102.8,-71.7 1102.8,-93.8 1074.5,-93.8 1066.2,-93.8 1037.8,-93.8 1037.8,-71.7 				"/>
				<polygon class="st1" points="1037.8,-93.8 1102.8,-76.7 1102.8,-93.8 				"/>
				<path class="st5" d="M1067.9,50.1c0,7.9-35,7.9-35,0s7.8-11.2,17.5-11.2C1060.1,38.8,1067.9,42.2,1067.9,50.1z"/>
				<path class="st5" d="M1107.7,50.1c0,7.9-35,7.9-35,0s7.8-11.2,17.5-11.2C1099.9,38.8,1107.7,42.2,1107.7,50.1z"/>
			</g>
			<g>
				<polygon class="st5" points="1102.8,-93.8 1037.8,-93.8 1037.8,-101 1102.8,-101 				"/>
				<path class="st4" d="M1073.3-91.9h-5.9c-2.2,0-4.1-1.8-4.1-4.1v-2.9c0-2.2,1.8-4.1,4.1-4.1h5.9c2.2,0,4.1,1.8,4.1,4.1v2.9
					C1077.4-93.7,1075.5-91.9,1073.3-91.9z M1067.4-100.9c-1.1,0-2.1,0.9-2.1,2.1v2.9c0,1.1,0.9,2.1,2.1,2.1h5.9
					c1.1,0,2.1-0.9,2.1-2.1v-2.9c0-1.1-0.9-2.1-2.1-2.1H1067.4z"/>
			</g>
			<g>
				<path class="st8" d="M1106.3-165.6v-28.1c-5.6-5.4-12.7-9.2-20.5-10.3c-0.4,0-0.7-0.1-1.1-0.1l-14.4,20.7l-14.4-20.7
					c-0.4,0-0.7,0.1-1.1,0.1c-7.8,1-14.9,4.9-20.5,10.3l0,28.1c0,0.1,0,0.1,0,0.2v60.4c0,2.2,1.8,4,4,4h32c0,0,32,0,32,0
					c2.2,0,4-1.8,4-4v-60.4C1106.3-165.5,1106.3-165.6,1106.3-165.6z"/>
				<polygon class="st9" points="1096.3,-178.4 1106.3,-153.3 1106.3,-170.6 				"/>
			</g>
			<g>
				<g>
					<polygon class="st10" points="1075.8,-186.8 1073.6,-182.6 1067,-182.6 1064.8,-186.8 1070.3,-191.3 					"/>
					<polygon class="st9" points="1056.8,-206.9 1070.3,-191.3 1062.3,-183.9 1051.1,-203.8 					"/>
					<polygon class="st9" points="1083.8,-206.9 1070.3,-191.3 1078.3,-183.9 1089.6,-203.8 					"/>
					<polygon class="st10" points="1073.6,-181.6 1077.3,-111.4 1070.3,-104.8 1063.3,-111.4 1067,-181.6 					"/>
				</g>
			</g>
		</g>
		<g>
			<path class="st12" d="M1085.3-159.8l-0.7,0.1c-1.2,0.1-2.2-0.8-2.3-2c-0.1-1.2,0.8-2.2,2-2.3l0.7-0.1c1.2-0.1,2.2,0.8,2.3,2
				C1087.4-161,1086.5-159.9,1085.3-159.8z"/>
			
				<rect x="1084.1" y="-161.5" transform="matrix(0.9962 -8.715951e-02 8.715951e-02 0.9962 16.367 94.1776)" class="st5" width="5" height="42.3"/>
			<polygon class="st12" points="1086,-119.1 1088.9,-114.3 1091,-119.5 			"/>
			<polygon class="st12" points="1089.9,-147.2 1088.8,-159.6 1081.8,-159 1081.7,-160 1089.7,-160.7 1090.9,-147.3 			"/>
		</g>
		<g>
			<g>
				<path class="st3" d="M1089.5-143.2c0,0-0.3,0-0.8,0.1c-0.5,0.1-1.2,0.1-2.1,0.2c-1.7,0.1-4,0.3-6.3,0.5
					c-2.3,0.1-4.6,0.2-6.3,0.3c-1.7,0-2.8,0-2.8,0l0,15c0,0,1.3,0,3.2,0c1.9-0.1,4.4-0.2,6.9-0.3c2.5-0.2,5-0.4,6.8-0.6
					c0.9-0.1,1.7-0.1,2.2-0.2c0.5-0.1,0.8-0.1,0.8-0.1c3.9-0.5,6.6-4.2,6-8.3S1093.1-143.6,1089.5-143.2z"/>
				<path class="st3" d="M1084.7-147.1c-1.6,0.1-3,0.7-4.3,1.4c-1.3,0.7-2.4,1.5-3.3,2.4c-1.9,1.7-3,3.5-3.1,3.6
					c-0.7,1.1-0.5,2.7,0.5,3.5c1,0.8,2.4,0.5,3.2-0.6c0,0,0.2-0.3,0.6-0.8s0.9-1.1,1.6-1.7c1.3-1.3,3.1-2.7,5.3-2.8
					c1.2-0.1,2.1-1.3,2-2.7C1087-146.1,1085.9-147.2,1084.7-147.1z"/>
			</g>
			<path class="st9" d="M1073.4-123.6c-10,0-26.3-0.1-39-7.5l0-4.7c12.1,8.1,28.9,8.2,39,8.2L1073.4-123.6z"/>
			<path class="st9" d="M1073.4-141.6c-14.4-0.1-30.2-1-36.3-11c-4.5-7.5-1.3-17.5,4.2-25.2l1.9,1.3c-4.7,6.7-6.1,16.1-2.7,21.8
				c5,8.2,19.6,9,32.8,9L1073.4-141.6z"/>
			<path class="st8" d="M1073.4-125.6c-13.5-0.1-38.7-0.2-49.9-18.7c-10.8-17.8,2-46,18.1-55.1l8.6,15c-8.5,6.6-17,21.5-11.3,30.8
				c5.5,9.1,20.7,9.9,34.5,10L1073.4-125.6z"/>
		</g>
		<g>
			<g>
				<polygon class="st13" points="1186.7,-174.2 1169.6,-168.4 1174.4,-154.2 1186.7,-158.3 				"/>
				<path class="st3" d="M1183.4-177.6c-7,2.3-9.8,10.1-9.9,10.5c-0.5,1.3,0.2,2.7,1.5,3.2c1.3,0.5,2.7-0.2,3.2-1.5
					c0,0,0.1-0.4,0.4-1c0.3-0.6,0.7-1.4,1.2-2.2c1.1-1.6,2.8-3.5,5.1-4.2c1.3-0.4,2-1.9,1.6-3.2
					C1186.2-177.3,1184.8-178.1,1183.4-177.6z"/>
			</g>
			<path class="st8" d="M1128.5-137.8c-2.9,0-5.7-1.4-7.4-3.9l-30.7-44.2c0,0,14.7-9,15.9-7.9c4,3.5,25.7,36.3,25.7,36.3l39.5-13.2
				l5.7,17.1l-45.9,15.3C1130.4-137.9,1129.4-137.8,1128.5-137.8z"/>
			<polygon class="st9" points="1113,-185.2 1110.4,-157 1115.3,-150.1 			"/>
		</g>
		<g>
			<rect x="1113" y="-202" class="st14" width="70.5" height="90"/>
			<rect x="1117.1" y="-196.8" class="st8" width="62.3" height="79.5"/>
			<rect x="1148.3" y="-132.5" class="st15" width="25" height="1"/>
			<polygon class="st2" points="1156.2,-190.2 1140.3,-190.2 1136.5,-202 1160,-202 			"/>
		</g>
		<path class="st3" d="M1186.7-158.3l-7.6-2.5c-3.9-1.3-6.1-5.6-4.8-9.5c1.3-3.9,5.6-6,9.5-4.7l2.8,0.9
			C1191.3-170.8,1186.7-158.3,1186.7-158.3z"/>
		<g>
			<path class="st3" d="M1064.4-284.8c-13.8,1.2-23.9,13.3-22.7,27.1l2.3,25.9c1.2,13.8,13.3,23.9,27.1,22.7s23.9-13.3,22.7-27.1
				l-2.3-25.9C1090.3-275.8,1078.2-286,1064.4-284.8z"/>
			<g>
				<path class="st10" d="M1078.7-225.7c0.4,4.4-3.3,8.3-8.3,8.8s-9.3-2.8-9.7-7.2L1078.7-225.7z"/>
				<path class="st8" d="M1076.4-222.5l-13,1.1c-0.6,0-1-0.4-1.1-0.9l-0.2-2l14.9-1.3l0.2,2C1077.4-223,1076.9-222.6,1076.4-222.5z"
					/>
			</g>
			<path class="st7" d="M1092-280.7c1.5-2.8,2.4-6,2-9.5c-1.7,0.5-3.3,0.8-4.6,0.8c0.9-1.4,1.1-2.9,1.1-3.6c0-0.2-0.2-0.3-0.4-0.2
				c-5,2.9-11.5,0.4-11.5,0.4c-4.3-1.7-8.7-2.4-15-1.6c-20.9,1.8-25.6,18.4-25.6,18.4c-3.7,11.5-1.1,26.5,5.7,40.2
				c0.1,0.2,0.3,0.5,0.4,0.7c-0.3-1.1-0.6-2.2-0.8-3.4c-0.3-4.5-1.3-9.3-0.6-8.9c3.7-6,4.2-17.5,4.2-17.5s9,1.1,19.4,0.7
				c10.4-1.4,19-4,19-4s2.4,11.3,7.1,16.5c0.5-0.6,0.5,4.3,0.9,8.8c0,1.2-0.1,2.3-0.2,3.5c0.1-0.2,0.2-0.5,0.3-0.7
				C1097.7-254.7,1097.7-270,1092-280.7z"/>
			<g>
				<g>
					<path class="st3" d="M1060.2-245.9c0.3,2.2-1.3,4.1-3.4,4.4c-2.2,0.3-4.1-1.3-4.4-3.4c-0.3-2.2,1.3-4.1,3.4-4.4
						C1058-249.6,1060-248.1,1060.2-245.9z"/>
					<path class="st7" d="M1060.2-246.9c0.3,2.2-1.3,4.1-3.4,4.4c-2.2,0.3-4.1-1.3-4.4-3.4c-0.3-2.2,1.3-4.1,3.4-4.4
						C1057.9-250.6,1059.9-249,1060.2-246.9z"/>
					<path class="st8" d="M1058.4-247.9c0.1,0.5-0.3,1-0.9,1.1c-0.5,0.1-1-0.3-1.1-0.9c-0.1-0.5,0.3-1,0.9-1.1
						C1057.9-248.8,1058.4-248.4,1058.4-247.9z"/>
				</g>
				<g>
					<path class="st3" d="M1083.2-247.9c0.3,2.2-1.3,4.1-3.4,4.4c-2.2,0.3-4.1-1.3-4.4-3.4c-0.3-2.2,1.3-4.1,3.4-4.4
						C1080.9-251.6,1082.9-250.1,1083.2-247.9z"/>
					<path class="st7" d="M1083.1-248.9c0.3,2.2-1.3,4.1-3.4,4.4c-2.2,0.3-4.1-1.3-4.4-3.4c-0.3-2.2,1.3-4.1,3.4-4.4
						C1080.8-252.6,1082.8-251.1,1083.1-248.9z"/>
					<path class="st8" d="M1081.4-249.9c0.1,0.5-0.3,1-0.9,1.1c-0.5,0.1-1-0.3-1.1-0.9c-0.1-0.5,0.3-1,0.9-1.1
						C1080.8-250.8,1081.3-250.4,1081.4-249.9z"/>
				</g>
			</g>
			<g>
				<path class="st3" d="M1042.6-247.3c-2.8,0.2-4.8,2.7-4.5,5.4l0.5,5.2c0.2,2.8,2.7,4.8,5.4,4.5c2.8-0.2,4.8-2.7,4.5-5.4l-0.5-5.2
					C1047.8-245.5,1045.4-247.6,1042.6-247.3z"/>
				<path class="st3" d="M1092.4-251.7c-2.8,0.2-4.8,2.7-4.5,5.4l0.5,5.2c0.2,2.8,2.7,4.8,5.4,4.5c2.8-0.2,4.8-2.7,4.5-5.4l-0.5-5.2
					C1097.6-249.9,1095.2-251.9,1092.4-251.7z"/>
			</g>
			<path class="st11" d="M1095.7-250.8c-0.9-0.6-2-1-3.2-0.9c0,0-0.1,0-0.1,0c-4.7-5.2-7.2-16.5-7.2-16.5s-8.7,2.7-19,4
				c0,0,1.3,14.8,1.3,14.8c-3,8-4.3,19.5-4.3,19.5l6-0.5l1.9,21.4c13.8-1.2,23.9-13.3,22.7-27.1l0-0.4c2.8-0.2,4.8-2.7,4.5-5.4
				l-0.5-5.2C1097.7-248.7,1096.9-249.9,1095.7-250.8z"/>
		</g>
	</g>
	<g id="businessman_9_">
		<ellipse class="st1" cx="907.7" cy="54" rx="57.5" ry="7.7"/>
		<g>
			<rect x="894.2" y="-206.9" class="st2" width="27" height="10.3"/>
			<rect x="896.2" y="-214.5" class="st3" width="23" height="43.4"/>
			<polygon class="st3" points="896.2,-212.4 896.2,-210.8 919.2,-202.7 919.2,-212.4 			"/>
		</g>
		<g>
			<polyline class="st4" points="875.2,-71.7 875.2,45.5 901.5,45.5 904.5,-71.7 910.8,-71.7 913.8,45.5 940.2,45.5 940.2,-71.7 
				940.2,-93.8 911.8,-93.8 903.5,-93.8 875.2,-93.8 875.2,-71.7 			"/>
			<polygon class="st1" points="875.2,-93.8 940.2,-76.7 940.2,-93.8 			"/>
			<path class="st5" d="M905.2,50.1c0,7.9-35,7.9-35,0s7.8-11.2,17.5-11.2C897.4,38.8,905.2,42.2,905.2,50.1z"/>
			<path class="st5" d="M945.1,50.1c0,7.9-35,7.9-35,0s7.8-11.2,17.5-11.2C937.2,38.8,945.1,42.2,945.1,50.1z"/>
		</g>
		<g>
			<polygon class="st5" points="940.1,-93.8 875.2,-93.8 875.2,-101 940.2,-101 			"/>
			<path class="st4" d="M910.6-91.9h-5.9c-2.2,0-4.1-1.8-4.1-4.1v-2.9c0-2.2,1.8-4.1,4.1-4.1h5.9c2.2,0,4.1,1.8,4.1,4.1v2.9
				C914.7-93.7,912.9-91.9,910.6-91.9z M904.7-100.9c-1.1,0-2.1,0.9-2.1,2.1v2.9c0,1.1,0.9,2.1,2.1,2.1h5.9c1.1,0,2.1-0.9,2.1-2.1
				v-2.9c0-1.1-0.9-2.1-2.1-2.1H904.7z"/>
		</g>
		<g>
			<path class="st8" d="M943.7-165.6v-28.1c-5.6-5.4-12.7-9.2-20.5-10.3c-0.4,0-0.7-0.1-1.1-0.1l-14.4,19.7l-14.4-19.7
				c-0.4,0-0.7,0.1-1.1,0.1c-7.8,1-14.9,4.9-20.5,10.3v28.1c0,0.1,0,0.1,0,0.2v60.4c0,2.2,1.8,4,4,4h32c0,0,32,0,32,0
				c2.2,0,4-1.8,4-4v-60.4C943.7-165.5,943.7-165.6,943.7-165.6z"/>
			<path class="st3" d="M1013.7-192c-2.6-2.7-9.4-0.7-15.9,4.6c1.4-2.9,1.8-5,0.2-5.9c-3.1-1.7-6.3,6.1-11.3,15.2
				c-0.4,0.7-0.7,1.3-1,2l-10.3,9.9l10.4,10.8l13.9-13.3c2-1.3,4.1-2.9,6.2-4.9C1013.2-180.6,1016.8-188.8,1013.7-192z"/>
			<polygon class="st9" points="937.7,-167.4 943.7,-153.3 943.7,-170.6 			"/>
			<path class="st8" d="M968.5-136.2C968.5-136.2,968.5-136.2,968.5-136.2c-2.8,0-5.5-1.2-7.4-3.2l-23.5-27.9l6-26.4l24.9,32.8
				l17.1-18.2l14.6,13.7l-24.5,26.1C973.9-137.4,971.3-136.2,968.5-136.2z"/>
		</g>
		<g>
			<path class="st3" d="M884.8-82.6c-0.9,0-1.8-0.4-2.2-1.2c-2.4-4-7-6.2-7.1-6.2c-1.3-0.5-1.8-2-1.3-3.3c0.5-1.3,2-1.8,3.3-1.3
				c0.3,0.1,6.2,2.7,9.4,8.3c0.7,1.2,0.3,2.7-0.9,3.4C885.6-82.7,885.2-82.6,884.8-82.6z"/>
			<path class="st3" d="M861.4-95.3c2.5,6.9,5.7,14.4,9.7,22.3c1.3,2.6,4,4.1,6.7,4.1c1.2,0,2.3-0.3,3.4-0.8
				c3.7-1.9,5.1-6.4,3.3-10.1c-3.9-7.6-6.9-14.7-9.3-21.3L861.4-95.3z"/>
			<path class="st8" d="M862.6-87.7c-17.3-31.7-14-58.8-8.2-75.9c6.3-18.6,16.8-29.8,17.3-30.3l13,12.4l-6.5-6.2l6.5,6.2
				c-1.4,1.5-33.1,36.1-6.3,85.2L862.6-87.7z"/>
		</g>
		<g>
			<g>
				<polygon class="st10" points="913.1,-186.8 911,-182.6 904.3,-182.6 902.2,-186.8 907.7,-191.3 				"/>
				<polygon class="st9" points="894.2,-206.9 907.7,-191.3 899.7,-183.9 888.4,-203.8 				"/>
				<polygon class="st9" points="921.2,-206.9 907.7,-191.3 915.7,-183.9 926.9,-203.8 				"/>
				<polygon class="st10" points="911,-181.6 914.7,-111.4 907.7,-104.8 900.7,-111.4 904.3,-181.6 				"/>
			</g>
		</g>
		<g>
			<path class="st3" d="M907.7-284.9c-13.8,0-25,11.2-25,25v26c0,13.8,11.2,25,25,25c13.8,0,25-11.2,25-25v-26
				C932.7-273.7,921.5-284.9,907.7-284.9z"/>
			<path class="st7" d="M934.8-278.4c1.7-2.6,2.9-5.8,2.8-9.3c-1.8,0.4-3.3,0.5-4.7,0.4c1-1.3,1.3-2.8,1.4-3.5
				c0-0.2-0.2-0.3-0.4-0.2c-5.2,2.5-11.5-0.6-11.5-0.6c-4.1-2-8.4-3.1-14.8-2.9c-21,0-27.1,16.1-27.1,16.1
				c-4.7,11.1-3.4,26.3,2.2,40.5c0.1,0.2,0.2,0.5,0.3,0.7c-0.2-1.1-0.4-2.3-0.5-3.5c0.1-4.6-0.4-9.4,0.1-8.9
				c4.2-5.6,5.7-17.1,5.7-17.1s8.9,1.9,19.3,2.3c10.4-0.4,19.3-2.3,19.3-2.3s1.4,11.5,5.7,17.1c0.6-0.5,0.1,4.3,0.1,8.9
				c-0.1,1.2-0.3,2.3-0.5,3.5c0.1-0.2,0.2-0.5,0.3-0.7C938.2-252.1,939.5-267.3,934.8-278.4z"/>
			<g>
				<g>
					<path class="st3" d="M900.1-246.5c0.1,2.2-1.6,4-3.8,4.1c-2.2,0.1-4-1.6-4.1-3.8c-0.1-2.2,1.6-4,3.8-4.1
						C898.2-250.4,900-248.7,900.1-246.5z"/>
					<path class="st7" d="M900.1-247.5c0.1,2.2-1.6,4-3.8,4.1c-2.2,0.1-4-1.6-4.1-3.8c-0.1-2.2,1.6-4,3.8-4.1
						C898.2-251.4,900-249.7,900.1-247.5z"/>
					<path class="st8" d="M898.5-248.7c0,0.5-0.4,1-1,1c-0.5,0-1-0.4-1-1c0-0.5,0.4-1,1-1C898-249.6,898.5-249.2,898.5-248.7z"/>
				</g>
				<g>
					<path class="st3" d="M923.1-246.5c0.1,2.2-1.6,4-3.8,4.1c-2.2,0.1-4-1.6-4.1-3.8c-0.1-2.2,1.6-4,3.8-4.1
						C921.2-250.4,923-248.7,923.1-246.5z"/>
					<path class="st7" d="M923.1-247.5c0.1,2.2-1.6,4-3.8,4.1c-2.2,0.1-4-1.6-4.1-3.8c-0.1-2.2,1.6-4,3.8-4.1
						C921.2-251.4,923-249.7,923.1-247.5z"/>
					<path class="st8" d="M921.5-248.7c0,0.5-0.4,1-1,1c-0.5,0-1-0.4-1-1c0-0.5,0.4-1,1-1C921-249.6,921.5-249.2,921.5-248.7z"/>
				</g>
			</g>
			<g>
				<path class="st3" d="M882.7-249.5c-2.8,0-5,2.2-5,5v5.2c0,2.8,2.2,5,5,5c2.8,0,5-2.2,5-5v-5.2
					C887.7-247.3,885.4-249.5,882.7-249.5z"/>
				<path class="st3" d="M932.7-249.5c-2.8,0-5,2.2-5,5v5.2c0,2.8,2.2,5,5,5c2.8,0,5-2.2,5-5v-5.2
					C937.7-247.3,935.4-249.5,932.7-249.5z"/>
			</g>
			<path class="st11" d="M935.9-248.3c-0.8-0.7-1.9-1.2-3.1-1.2c0,0-0.1,0-0.1,0c-4.3-5.6-5.7-17.1-5.7-17.1s-8.9,1.9-19.3,2.3
				c0,0,0,14.8,0,14.8c-3.6,7.8-6,19-6,19h6v21.5c13.8,0,25-11.2,25-25v-0.4c2.8,0,5-2.2,5-5v-5.2C937.7-246,937-247.4,935.9-248.3z
				"/>
		</g>
	</g>
	<g id="businessman_8_">
		<ellipse class="st1" cx="1628.2" cy="-418.8" rx="57.5" ry="7.7"/>
		<g>
			<rect x="1614.6" y="-680.1" class="st2" width="27" height="10.3"/>
			<rect x="1616.7" y="-687.7" class="st3" width="23" height="43.4"/>
			<polygon class="st3" points="1616.7,-685.6 1616.7,-684 1639.7,-675.9 1639.7,-685.6 			"/>
		</g>
		<g>
			<g>
				<polyline class="st4" points="1595.7,-544.9 1595.7,-427.7 1622,-427.7 1625,-544.9 1631.3,-544.9 1634.3,-427.7 1660.7,-427.7 
					1660.7,-544.9 1660.7,-567 1632.3,-567 1624,-567 1595.7,-567 1595.7,-544.9 				"/>
				<polygon class="st1" points="1595.7,-567 1660.7,-549.9 1660.7,-567 				"/>
				<g>
					<path class="st5" d="M1625.7-423.1c0,7.9-35,7.9-35,0s7.8-11.2,17.5-11.2C1617.9-434.4,1625.7-431,1625.7-423.1z"/>
				</g>
				<path class="st5" d="M1665.6-423.1c0,7.9-35,7.9-35,0s7.8-11.2,17.5-11.2C1657.7-434.4,1665.6-431,1665.6-423.1z"/>
			</g>
			<g>
				<polygon class="st5" points="1660.6,-567 1595.7,-567 1595.7,-574.2 1660.7,-574.2 				"/>
				<path class="st4" d="M1631.1-565.1h-5.9c-2.2,0-4.1-1.8-4.1-4.1v-2.9c0-2.2,1.8-4.1,4.1-4.1h5.9c2.2,0,4.1,1.8,4.1,4.1v2.9
					C1635.2-566.9,1633.4-565.1,1631.1-565.1z M1625.2-574.1c-1.1,0-2.1,0.9-2.1,2.1v2.9c0,1.1,0.9,2.1,2.1,2.1h5.9
					c1.1,0,2.1-0.9,2.1-2.1v-2.9c0-1.1-0.9-2.1-2.1-2.1H1625.2z"/>
			</g>
			<g>
				<path class="st8" d="M1664.2-638.8V-667c-5.6-5.4-12.7-9.2-20.5-10.3c-0.4,0-0.7-0.1-1.1-0.1l-14.4,19.7l-14.4-19.7
					c-0.4,0-0.7,0.1-1.1,0.1c-7.8,1-14.9,4.9-20.5,10.3v28.1c0,0.1,0,0.1,0,0.2v60.4c0,2.2,1.8,4,4,4h32c0,0,32,0,32,0
					c2.2,0,4-1.8,4-4v-60.4C1664.2-638.7,1664.2-638.8,1664.2-638.8z"/>
				<polygon class="st10" points="1633.6,-660 1631.4,-655.8 1624.8,-655.8 1622.7,-660 1628.2,-664.5 				"/>
				<polygon class="st9" points="1614.6,-680.1 1628.2,-664.5 1620.2,-657.1 1608.9,-677 				"/>
				<polygon class="st9" points="1641.7,-680.1 1628.2,-664.5 1636.2,-657.1 1647.4,-677 				"/>
				<polygon class="st10" points="1631.4,-654.8 1635.2,-584.6 1628.2,-578 1621.2,-584.6 1624.8,-654.8 				"/>
			</g>
		</g>
		<g>
			<polygon class="st14" points="1628.2,-577.5 1598.4,-586.5 1593,-641.5 1628.2,-635.5 			"/>
			<polygon class="st13" points="1628.2,-635.5 1663.3,-641.5 1657.9,-586.5 1628.2,-577.5 			"/>
		</g>
		<g>
			<g>
				<path class="st3" d="M1658.1-618.9c0,0,3.7,0.8,7.3,1.3c0.9,0.1,1.8,0.2,2.7,0.3c0.8,0.1,1.6,0.2,2.3,0.2
					c1.3,0.1,2.2,0.1,2.2,0.1l-0.7,15c0,0-1.1-0.1-2.8-0.2c-0.8-0.1-1.8-0.2-2.8-0.3c-1-0.1-2-0.3-3.1-0.4c-4.2-0.6-8.1-1.5-8.1-1.5
					c-3.2-0.6-4.9-4.5-3.9-8.6C1652.1-616.8,1655.3-619.5,1658.1-618.9z"/>
				<path class="st3" d="M1662.4-622.5c2.5,0.5,4.3,2.3,5.6,4.2c1.3,1.8,2.1,3.6,2.2,3.7c0.5,1.1,0.3,2.7-0.6,3.5
					c-0.9,0.8-2,0.5-2.5-0.7c0,0-0.2-0.4-0.4-0.9c-0.3-0.5-0.6-1.2-1.1-1.8c-1-1.4-2.3-2.8-3.9-3.1c-1-0.2-1.5-1.4-1.3-2.8
					C1660.5-621.7,1661.4-622.7,1662.4-622.5z"/>
			</g>
			<path class="st8" d="M1670.3-601.3c-1.9,0-1.9-0.1-3.7-0.3l1.4-17.9c5.6,0.5,7.2,1.1,8.6-0.1c0.1-0.1,0.1-0.1,0.1-0.1
				c0.1-0.3,1.1-2.3-0.7-5.9c-5.3-10.9-16-20.5-25.4-29.4l12.4-13.1c10.2,9.6,21.6,21,28.2,34.5c8,16.3,0.4,25-3.2,28
				C1682.8-601.4,1676.5-601.3,1670.3-601.3z"/>
		</g>
		<g>
			<g>
				<path class="st3" d="M1598.2-618.9c0,0-3.7,0.8-7.3,1.3c-0.9,0.1-1.8,0.2-2.7,0.3c-0.8,0.1-1.6,0.2-2.3,0.2
					c-1.3,0.1-2.2,0.1-2.2,0.1l0.7,15c0,0,1.1-0.1,2.8-0.2c0.8-0.1,1.7-0.2,2.8-0.3c1-0.1,2-0.3,3.1-0.4c4.2-0.6,8.1-1.5,8.1-1.5
					c3.2-0.6,4.9-4.5,3.9-8.6C1604.2-616.8,1601.1-619.5,1598.2-618.9z"/>
				<path class="st3" d="M1593.9-622.5c-2.5,0.5-4.3,2.3-5.6,4.2c-1.3,1.8-2.1,3.6-2.2,3.7c-0.5,1.1-0.3,2.7,0.6,3.5
					c0.9,0.8,2,0.5,2.5-0.7c0,0,0.2-0.4,0.4-0.9c0.3-0.5,0.6-1.2,1.1-1.8c1-1.4,2.3-2.8,3.9-3.1c1-0.2,1.5-1.4,1.3-2.8
					C1595.8-621.7,1594.9-622.7,1593.9-622.5z"/>
			</g>
			<path class="st8" d="M1586-601.3c-6.2,0-12.5-0.1-17.7-4.3c-3.6-3-11.3-11.6-3.2-28c6.7-13.6,18.1-24.9,28.2-34.5l12.4,13.1
				c-9.4,8.9-20.1,18.5-25.4,29.4c-1.8,3.6-0.8,5.5-0.7,6c0,0,0,0,0.1,0.1c1.4,1.2,3,0.5,8.6,0.1l1.4,17.9
				C1587.8-601.4,1587.9-601.3,1586-601.3z"/>
		</g>
		<g>
			<path class="st3" d="M1628.2-758.1c-13.8,0-25,11.2-25,25v26c0,13.8,11.2,25,25,25c13.8,0,25-11.2,25-25v-26
				C1653.2-746.9,1642-758.1,1628.2-758.1z"/>
			<path class="st7" d="M1655.3-751.6c1.7-2.6,2.9-5.8,2.8-9.3c-1.8,0.4-3.3,0.5-4.7,0.4c1-1.3,1.3-2.8,1.4-3.5
				c0-0.2-0.2-0.3-0.4-0.2c-5.2,2.5-11.5-0.6-11.5-0.6c-4.1-2-8.4-3.1-14.8-2.9c-21,0-27.1,16.1-27.1,16.1
				c-4.7,11.1-3.4,26.3,2.2,40.5c0.1,0.2,0.2,0.5,0.3,0.7c-0.2-1.1-0.4-2.3-0.5-3.5c0.1-4.6-0.4-9.4,0.1-8.9
				c4.2-5.6,5.7-17.1,5.7-17.1s8.9,1.9,19.3,2.3c10.4-0.4,19.3-2.3,19.3-2.3s1.4,11.5,5.7,17.1c0.6-0.5,0.1,4.3,0.1,8.9
				c-0.1,1.2-0.3,2.3-0.5,3.5c0.1-0.2,0.2-0.5,0.3-0.7C1658.7-725.3,1660-740.5,1655.3-751.6z"/>
			<g>
				<g>
					
						<ellipse transform="matrix(0.6774 -0.7356 0.7356 0.6774 1047.146 958.6948)" class="st3" cx="1616.7" cy="-714.6" rx="3.9" ry="3.9"/>
					
						<ellipse transform="matrix(0.6774 -0.7356 0.7356 0.6774 1047.8816 958.3723)" class="st7" cx="1616.7" cy="-715.6" rx="3.9" ry="3.9"/>
					<path class="st8" d="M1619-714.8c0,0.5-0.4,1-1,1c-0.5,0-1-0.4-1-1c0-0.5,0.4-1,1-1C1618.5-715.8,1619-715.4,1619-714.8z"/>
				</g>
				<g>
					
						<ellipse transform="matrix(0.6774 -0.7356 0.7356 0.6774 1054.5653 975.6136)" class="st3" cx="1639.7" cy="-714.6" rx="3.9" ry="3.9"/>
					
						<ellipse transform="matrix(0.6774 -0.7356 0.7356 0.6774 1055.3009 975.291)" class="st7" cx="1639.7" cy="-715.6" rx="3.9" ry="3.9"/>
					<path class="st8" d="M1642-714.8c0,0.5-0.4,1-1,1c-0.5,0-1-0.4-1-1c0-0.5,0.4-1,1-1C1641.5-715.8,1642-715.4,1642-714.8z"/>
				</g>
			</g>
			<g>
				<path class="st3" d="M1603.2-722.7c-2.8,0-5,2.2-5,5v5.2c0,2.8,2.2,5,5,5c2.8,0,5-2.2,5-5v-5.2
					C1608.2-720.5,1605.9-722.7,1603.2-722.7z"/>
				<path class="st3" d="M1653.2-722.7c-2.8,0-5,2.2-5,5v5.2c0,2.8,2.2,5,5,5c2.8,0,5-2.2,5-5v-5.2
					C1658.2-720.5,1655.9-722.7,1653.2-722.7z"/>
			</g>
			<path class="st11" d="M1656.4-721.5c-0.8-0.7-1.9-1.2-3.1-1.2c0,0-0.1,0-0.1,0c-4.3-5.6-5.7-17.1-5.7-17.1s-8.9,1.9-19.3,2.3
				c0,0,0,14.8,0,14.8c-3.6,7.8-6,24-6,24h6v16.5c13.8,0,25-11.2,25-25v-0.4c2.8,0,5-2.2,5-5v-5.2
				C1658.2-719.2,1657.5-720.6,1656.4-721.5z"/>
		</g>
	</g>
	<g id="businessman_7_">
		<ellipse class="st1" cx="1447.3" cy="-418.8" rx="57.5" ry="7.7"/>
		<g>
			<rect x="1433.8" y="-680.1" class="st2" width="27" height="10.3"/>
			<rect x="1435.8" y="-687.7" class="st3" width="23" height="43.4"/>
			<polygon class="st3" points="1435.8,-685.6 1435.8,-684 1458.8,-675.9 1458.8,-685.6 			"/>
		</g>
		<g>
			<polyline class="st4" points="1414.8,-544.9 1414.8,-427.7 1441.1,-427.7 1444.1,-544.9 1450.5,-544.9 1453.5,-427.7 
				1479.8,-427.7 1479.8,-544.9 1479.8,-567 1451.5,-567 1443.1,-567 1414.8,-567 1414.8,-544.9 			"/>
			<polygon class="st1" points="1414.8,-567 1479.8,-549.9 1479.8,-567 			"/>
			<path class="st5" d="M1444.9-423.1c0,7.9-35,7.9-35,0s7.8-11.2,17.5-11.2C1437.1-434.4,1444.9-431,1444.9-423.1z"/>
			<path class="st5" d="M1484.7-423.1c0,7.9-35,7.9-35,0s7.8-11.2,17.5-11.2C1476.9-434.4,1484.7-431,1484.7-423.1z"/>
		</g>
		<g>
			<g>
				<polygon class="st5" points="1479.8,-567 1414.8,-567 1414.8,-574.2 1479.8,-574.2 				"/>
				<path class="st4" d="M1450.3-565.1h-5.9c-2.2,0-4.1-1.8-4.1-4.1v-2.9c0-2.2,1.8-4.1,4.1-4.1h5.9c2.2,0,4.1,1.8,4.1,4.1v2.9
					C1454.3-566.9,1452.5-565.1,1450.3-565.1z M1444.3-574.1c-1.1,0-2.1,0.9-2.1,2.1v2.9c0,1.1,0.9,2.1,2.1,2.1h5.9
					c1.1,0,2.1-0.9,2.1-2.1v-2.9c0-1.1-0.9-2.1-2.1-2.1H1444.3z"/>
			</g>
		</g>
		<g>
			<g>
				<path class="st3" d="M1539.5-665.3l-12.2,13.2l11,10.2l12.2-13.2c2.4-2.6,1.9-7-1.2-9.8C1546.3-667.7,1541.9-667.9,1539.5-665.3
					z"/>
				<path class="st3" d="M1532.7-665.8c-4.2,4.6-3.9,10.9-3.8,11.2c0.3,1.3,1.6,2.2,2.8,2.1c1.3-0.1,2-1.2,1.7-2.5
					c0-0.1,0-1.1,0.4-2.6c0.4-1.5,1.1-3.3,2.5-4.8c0.8-0.9,0.6-2.3-0.4-3.3C1534.9-666.6,1533.5-666.7,1532.7-665.8z"/>
			</g>
			<path class="st8" d="M1508.7-611.9c-0.1,0-0.2,0-0.3,0c-2.6-0.1-5.1-1.3-6.7-3.3l-33.2-41c0,0,11.8-13.1,14.8-10.7
				c3,2.5,25.8,32.3,25.8,32.3l18.5-20l13.2,12.2l-25.6,27.7C1513.6-613,1511.2-611.9,1508.7-611.9z"/>
		</g>
		<g>
			<path class="st8" d="M1483.3-638.8V-667c-5.6-5.4-12.7-9.2-20.5-10.3c-0.4,0-0.7-0.1-1.1-0.1l-14.4,20.7l-14.4-20.7
				c-0.4,0-0.7,0.1-1.1,0.1c-7.8,1-14.9,4.9-20.5,10.3l0,28.1c0,0.1,0,0.1,0,0.2v60.4c0,2.2,1.8,4,4,4h32c0,0,32,0,32,0
				c2.2,0,4-1.8,4-4v-60.4C1483.3-638.7,1483.3-638.8,1483.3-638.8z"/>
			<polygon class="st9" points="1478.8,-644.3 1483.3,-626.5 1483.3,-643.8 			"/>
		</g>
		<g>
			<polygon class="st10" points="1452.8,-660 1450.6,-655.8 1444,-655.8 1441.8,-660 1447.3,-664.5 			"/>
			<polygon class="st10" points="1450.6,-654.8 1454.3,-584.6 1447.3,-578 1440.3,-584.6 1444,-654.8 			"/>
		</g>
		<g>
			<polygon class="st14" points="1472.1,-577.5 1422.5,-577.5 1417.2,-647.5 1477.5,-647.5 			"/>
			<polygon class="st2" points="1454.1,-637.4 1440.5,-637.4 1437.3,-647.5 1457.3,-647.5 			"/>
		</g>
		<g>
			<g>
				<path class="st3" d="M1422.3-618.9c0,0-3.7,0.8-7.3,1.3c-0.9,0.1-1.8,0.2-2.7,0.3c-0.8,0.1-1.6,0.2-2.3,0.2
					c-1.3,0.1-2.2,0.1-2.2,0.1l0.7,15c0,0,1.1-0.1,2.8-0.2c0.8-0.1,1.7-0.2,2.8-0.3c1-0.1,2-0.3,3.1-0.4c4.2-0.6,8.1-1.5,8.1-1.5
					c3.2-0.6,4.9-4.5,3.9-8.6C1428.3-616.8,1425.2-619.5,1422.3-618.9z"/>
				<path class="st3" d="M1418.1-622.5c-2.5,0.5-4.3,2.3-5.6,4.2c-1.3,1.8-2.1,3.6-2.2,3.7c-0.5,1.1-0.3,2.7,0.6,3.5
					c0.9,0.8,2,0.5,2.5-0.7c0,0,0.2-0.4,0.4-0.9c0.3-0.5,0.6-1.2,1.1-1.8c1-1.4,2.3-2.8,3.9-3.1c1-0.2,1.5-1.4,1.3-2.8
					C1420-621.7,1419-622.7,1418.1-622.5z"/>
			</g>
			<path class="st8" d="M1405.1-600.3c-6.2,0-12.5-1.1-17.7-5.3c-3.6-3-11.3-11.6-3.2-28c6.7-13.6,18.1-24.9,28.2-34.5l12.4,13.1
				c-9.4,8.9-19.1,18.5-24.4,29.4c-1.8,3.6-1.8,5.5-1.7,6c0,0,0,0,0.1,0.1c1.4,1.2,5,1.5,10.6,1.1l1.4,17.9
				C1409-600.4,1407.1-600.3,1405.1-600.3z"/>
		</g>
		<g>
			<polygon class="st9" points="1433.8,-680.1 1447.3,-664.5 1439.3,-657.1 1428.1,-677 			"/>
			<polygon class="st9" points="1460.8,-680.1 1447.3,-664.5 1455.3,-657.1 1466.5,-677 			"/>
		</g>
		<g>
			<path class="st3" d="M1447.3-758.1c-13.8,0-25,11.2-25,25v26c0,13.8,11.2,25,25,25c13.8,0,25-11.2,25-25v-26
				C1472.3-746.9,1461.1-758.1,1447.3-758.1z"/>
			<path class="st7" d="M1474.4-751.6c1.7-2.6,2.9-5.8,2.8-9.3c-1.8,0.4-3.3,0.5-4.7,0.4c1-1.3,1.3-2.8,1.4-3.5
				c0-0.2-0.2-0.3-0.4-0.2c-5.2,2.5-11.5-0.6-11.5-0.6c-4.1-2-8.4-3.1-14.8-2.9c-21,0-27.1,16.1-27.1,16.1
				c-4.7,11.1-3.4,26.3,2.2,40.5c0.1,0.2,0.2,0.5,0.3,0.7c-0.2-1.1-0.4-2.3-0.5-3.5c0.1-4.6-0.4-9.4,0.1-8.9
				c4.2-5.6,5.7-17.1,5.7-17.1s8.9,1.9,19.3,2.3c10.4-0.4,19.3-2.3,19.3-2.3s1.4,11.5,5.7,17.1c0.6-0.5,0.1,4.3,0.1,8.9
				c-0.1,1.2-0.3,2.3-0.5,3.5c0.1-0.2,0.2-0.5,0.3-0.7C1477.8-725.3,1479.1-740.5,1474.4-751.6z"/>
			<g>
				<g>
					<path class="st3" d="M1439.8-719.7c0.1,2.2-1.6,4-3.8,4.1c-2.2,0.1-4-1.6-4.1-3.8c-0.1-2.2,1.6-4,3.8-4.1
						S1439.7-721.9,1439.8-719.7z"/>
					<path class="st7" d="M1439.8-720.7c0.1,2.2-1.6,4-3.8,4.1c-2.2,0.1-4-1.6-4.1-3.8c-0.1-2.2,1.6-4,3.8-4.1
						S1439.7-722.9,1439.8-720.7z"/>
					<path class="st8" d="M1438.1-721.8c0,0.5-0.4,1-1,1c-0.5,0-1-0.4-1-1c0-0.5,0.4-1,1-1C1437.7-722.8,1438.1-722.4,1438.1-721.8z
						"/>
				</g>
				<g>
					<path class="st3" d="M1462.8-719.7c0.1,2.2-1.6,4-3.8,4.1c-2.2,0.1-4-1.6-4.1-3.8c-0.1-2.2,1.6-4,3.8-4.1
						S1462.7-721.9,1462.8-719.7z"/>
					<path class="st7" d="M1462.8-720.7c0.1,2.2-1.6,4-3.8,4.1c-2.2,0.1-4-1.6-4.1-3.8c-0.1-2.2,1.6-4,3.8-4.1
						S1462.7-722.9,1462.8-720.7z"/>
					<path class="st8" d="M1461.1-721.8c0,0.5-0.4,1-1,1c-0.5,0-1-0.4-1-1c0-0.5,0.4-1,1-1C1460.7-722.8,1461.1-722.4,1461.1-721.8z
						"/>
				</g>
			</g>
			<g>
				<path class="st3" d="M1422.3-722.7c-2.8,0-5,2.2-5,5v5.2c0,2.8,2.2,5,5,5c2.8,0,5-2.2,5-5v-5.2
					C1427.3-720.5,1425.1-722.7,1422.3-722.7z"/>
				<path class="st3" d="M1472.3-722.7c-2.8,0-5,2.2-5,5v5.2c0,2.8,2.2,5,5,5c2.8,0,5-2.2,5-5v-5.2
					C1477.3-720.5,1475.1-722.7,1472.3-722.7z"/>
			</g>
			<path class="st11" d="M1475.5-721.5c-0.8-0.7-1.9-1.2-3.1-1.2c0,0-0.1,0-0.1,0c-4.3-5.6-5.7-17.1-5.7-17.1s-8.9,1.9-19.3,2.3
				c0,0,0,14.8,0,14.8c-3.6,7.8-6,19-6,19h6v21.5c13.8,0,25-11.2,25-25v-0.4c2.8,0,5-2.2,5-5v-5.2
				C1477.3-719.2,1476.6-720.6,1475.5-721.5z"/>
		</g>
	</g>
	<g id="businessman_1_">
		<ellipse class="st1" cx="1283.6" cy="-418.8" rx="57.5" ry="7.7"/>
		<g>
			<rect x="1270.1" y="-680.1" class="st2" width="27" height="10.3"/>
			<rect x="1272.1" y="-687.7" class="st3" width="23" height="43.4"/>
			<polygon class="st3" points="1272.1,-685.6 1272.1,-684 1295.1,-675.9 1295.1,-685.6 			"/>
		</g>
		<g>
			<polyline class="st4" points="1251.1,-544.9 1251.1,-427.7 1277.4,-427.7 1280.4,-544.9 1286.8,-544.9 1289.8,-427.7 
				1316.1,-427.7 1316.1,-544.9 1316.1,-567 1287.8,-567 1279.4,-567 1251.1,-567 1251.1,-544.9 			"/>
			<polygon class="st1" points="1251.1,-567 1316.1,-549.9 1316.1,-567 			"/>
			<path class="st5" d="M1281.2-423.1c0,7.9-35,7.9-35,0s7.8-11.2,17.5-11.2S1281.2-431,1281.2-423.1z"/>
			<path class="st5" d="M1321-423.1c0,7.9-35,7.9-35,0s7.8-11.2,17.5-11.2S1321-431,1321-423.1z"/>
		</g>
		<g>
			<polygon class="st5" points="1316.1,-567 1251.1,-567 1251.1,-574.2 1316.1,-574.2 			"/>
			<path class="st4" d="M1286.6-565.1h-5.9c-2.2,0-4.1-1.8-4.1-4.1v-2.9c0-2.2,1.8-4.1,4.1-4.1h5.9c2.2,0,4.1,1.8,4.1,4.1v2.9
				C1290.6-566.9,1288.8-565.1,1286.6-565.1z M1280.6-574.1c-1.1,0-2.1,0.9-2.1,2.1v2.9c0,1.1,0.9,2.1,2.1,2.1h5.9
				c1.1,0,2.1-0.9,2.1-2.1v-2.9c0-1.1-0.9-2.1-2.1-2.1H1280.6z"/>
		</g>
		<g>
			<path class="st3" d="M1260.8-555.8c-0.9,0-1.8-0.4-2.2-1.2c-2.4-4-7-6.2-7.1-6.2c-1.3-0.5-1.8-2-1.3-3.3c0.5-1.3,2-1.8,3.3-1.3
				c0.3,0.1,6.2,2.7,9.4,8.3c0.7,1.2,0.3,2.7-0.9,3.4C1261.6-555.9,1261.2-555.8,1260.8-555.8z"/>
			<path class="st3" d="M1237.3-568.5c2.5,6.9,5.7,14.4,9.7,22.3c1.3,2.6,4,4.1,6.7,4.1c1.2,0,2.3-0.3,3.4-0.8
				c3.7-1.9,5.1-6.4,3.3-10.1c-3.9-7.6-6.9-14.7-9.3-21.3L1237.3-568.5z"/>
			<path class="st8" d="M1238.5-560.9c-17.2-31.6-14.8-57.5-9.7-73.7c5.5-17.8,17-30.4,17-30.4l11.8,14.4
				c-1.2,1.3-29.9,32.2-3.3,81.1L1238.5-560.9z"/>
		</g>
		<g>
			<path class="st3" d="M1364.6-661.7c-0.9-0.3-1.9,0-2.5,0.7c0-0.9-0.5-1.8-1.5-2.2c-0.9-0.3-1.9,0-2.5,0.7c0-0.9-0.5-1.8-1.5-2.2
				c-0.8-0.3-1.7-0.1-2.3,0.5l3.5-9.6c0.4-1.2-0.2-2.4-1.3-2.9c-1.2-0.4-2.4,0.2-2.9,1.3l-7.6,21l-2.9,9.8l13.7,6.6l3.3-9
				c0.9,0,1.7-0.6,2-1.5l3.8-10.5C1366.4-660,1365.8-661.2,1364.6-661.7z"/>
			<path class="st8" d="M1338.5-600.4c-3.6,0-6.8-2.1-8.2-5.4l-18.1-40.8l-1-2.4l16.5-7.3l10.1,22.8l6.4-17.4l16.9,6.2l-14.1,38.3
				c-1.3,3.4-4.5,5.8-8.2,5.9C1338.6-600.4,1338.5-600.4,1338.5-600.4z"/>
		</g>
		<g>
			<path class="st8" d="M1331.1-642.2c0-15.9-14.3-32.8-31.9-35.1c-0.4,0-0.7-0.1-1.1-0.1l-14.4,20.7l-14.4-20.7
				c-0.4,0-0.7,0.1-1.1,0.1c-17.6,2.3-32,19.1-32,35.1l11.5,3.3c0,0.1,0,0.1,0,0.2v60.4c0,2.2,1.8,4,4,4h64c2.2,0,4-1.8,4-4v-60.4
				c0-0.1,0-0.1,0-0.2L1331.1-642.2z"/>
			<polygon class="st10" points="1289.1,-660 1286.9,-655.8 1280.3,-655.8 1278.1,-660 1283.6,-664.5 			"/>
			<polygon class="st9" points="1270.1,-680.1 1283.6,-664.5 1275.6,-657.1 1264.4,-677 			"/>
			<polygon class="st9" points="1297.1,-680.1 1283.6,-664.5 1291.6,-657.1 1302.8,-677 			"/>
			<polygon class="st10" points="1286.9,-654.8 1290.6,-584.6 1283.6,-578 1276.6,-584.6 1280.3,-654.8 			"/>
		</g>
		<g>
			<path class="st3" d="M1283.6-758.1c-13.8,0-25,11.2-25,25v26c0,13.8,11.2,25,25,25c13.8,0,25-11.2,25-25v-26
				C1308.6-746.9,1297.4-758.1,1283.6-758.1z"/>
			<g>
				<path class="st10" d="M1292.7-698c0,4.4-4,8-9,8c-5,0-9-3.6-9-8H1292.7z"/>
				<path class="st8" d="M1290.1-695h-13c-0.6,0-1-0.4-1-1v-2h15v2C1291.1-695.5,1290.7-695,1290.1-695z"/>
			</g>
			<path class="st7" d="M1310.7-751.6c1.7-2.6,2.9-5.8,2.8-9.3c-1.8,0.4-3.3,0.5-4.7,0.4c1-1.3,1.3-2.8,1.4-3.5
				c0-0.2-0.2-0.3-0.4-0.2c-5.2,2.5-11.5-0.6-11.5-0.6c-4.1-2-8.4-3.1-14.8-2.9c-21,0-27.1,16.1-27.1,16.1
				c-4.7,11.1-3.4,26.3,2.2,40.5c0.1,0.2,0.2,0.5,0.3,0.7c-0.2-1.1-0.4-2.3-0.5-3.5c0.1-4.6-0.4-9.4,0.1-8.9
				c4.2-5.6,5.7-17.1,5.7-17.1s8.9,1.9,19.3,2.3c10.4-0.4,19.3-2.3,19.3-2.3s1.4,11.5,5.7,17.1c0.6-0.5,0.1,4.3,0.1,8.9
				c-0.1,1.2-0.3,2.3-0.5,3.5c0.1-0.2,0.2-0.5,0.3-0.7C1314.1-725.3,1315.4-740.5,1310.7-751.6z"/>
			<g>
				<g>
					<path class="st3" d="M1276.1-719.7c0.1,2.2-1.6,4-3.8,4.1s-4-1.6-4.1-3.8c-0.1-2.2,1.6-4,3.8-4.1S1276-721.9,1276.1-719.7z"/>
					<path class="st7" d="M1276.1-720.7c0.1,2.2-1.6,4-3.8,4.1s-4-1.6-4.1-3.8c-0.1-2.2,1.6-4,3.8-4.1S1276-722.9,1276.1-720.7z"/>
					<path class="st8" d="M1274.4-721.8c0,0.5-0.4,1-1,1s-1-0.4-1-1c0-0.5,0.4-1,1-1C1274-722.8,1274.4-722.4,1274.4-721.8z"/>
				</g>
				<g>
					<path class="st3" d="M1299.1-719.7c0.1,2.2-1.6,4-3.8,4.1s-4-1.6-4.1-3.8c-0.1-2.2,1.6-4,3.8-4.1S1299-721.9,1299.1-719.7z"/>
					<path class="st7" d="M1299.1-720.7c0.1,2.2-1.6,4-3.8,4.1s-4-1.6-4.1-3.8c-0.1-2.2,1.6-4,3.8-4.1S1299-722.9,1299.1-720.7z"/>
					<path class="st8" d="M1297.4-721.8c0,0.5-0.4,1-1,1s-1-0.4-1-1c0-0.5,0.4-1,1-1C1297-722.8,1297.4-722.4,1297.4-721.8z"/>
				</g>
			</g>
			<g>
				<path class="st3" d="M1258.6-722.7c-2.8,0-5,2.2-5,5v5.2c0,2.8,2.2,5,5,5c2.8,0,5-2.2,5-5v-5.2
					C1263.6-720.5,1261.4-722.7,1258.6-722.7z"/>
				<path class="st3" d="M1308.6-722.7c-2.8,0-5,2.2-5,5v5.2c0,2.8,2.2,5,5,5c2.8,0,5-2.2,5-5v-5.2
					C1313.6-720.5,1311.4-722.7,1308.6-722.7z"/>
			</g>
			<path class="st11" d="M1311.8-721.5c-0.8-0.7-1.9-1.2-3.1-1.2c0,0-0.1,0-0.1,0c-4.3-5.6-5.7-17.1-5.7-17.1s-8.9,1.9-19.3,2.3
				c0,0,0,14.8,0,14.8c-3.6,7.8-6,19-6,19h6v21.5c13.8,0,25-11.2,25-25v-0.4c2.8,0,5-2.2,5-5v-5.2
				C1313.6-719.2,1312.9-720.6,1311.8-721.5z"/>
			<path class="st4" d="M1308.4-724.2l-3.4,0.6c-0.2-2.5-2.4-4.5-5-4.5h-10c-2.7,0-4.9,2.1-5,4.8h-3c-0.1-2.6-2.3-4.8-5-4.8h-10
				c-2.6,0-4.7,2-5,4.5l-3.4-0.6c-0.5-0.1-1.1,0.3-1.2,0.8c-0.1,0.5,0.3,1.1,0.8,1.2l4,0.7l0.7,4.5c0,2.7,2.3,4.9,5,4.9h8
				c2.7,0,5-2.2,5-4.9l0.7-4.3h3.6l0.7,4.3c0,2.7,2.3,4.9,5,4.9h8c2.7,0,5-2.2,5-4.9l0.7-4.5l3.9-0.7c0.5-0.1,0.9-0.6,0.8-1.2
				C1309.5-723.9,1309-724.3,1308.4-724.2z M1279.1-717.2l0,0.2c0,1.7-1.3,3-3,3h-8c-1.7,0-3-1.3-3-3l-0.8-5.2c0-0.2,0-0.3-0.1-0.4
				l-0.1-0.5c0-1.6,1.4-2.9,3-2.9h10c1.6,0,3,1.3,3,2.9L1279.1-717.2z M1302.1-717.2l0,0.2c0,1.7-1.3,3-3,3h-8c-1.7,0-3-1.3-3-3
				l-1-6.1c0-1.6,1.4-2.9,3-2.9h10c1.6,0,3,1.3,3,2.9l-0.1,0.5c-0.1,0.1-0.1,0.3-0.1,0.4L1302.1-717.2z"/>
		</g>
	</g>
	<g id="businessman_6_">
		<ellipse class="st1" cx="134.8" cy="367" rx="75" ry="7.7"/>
		<g>
			<g id="l-leg-group">
				<path class="st5" d="M172.3,349.6c0,0-4.7,6.2,0.1,15.5c0.8,1.5,2.4,2.2,4,1.8l12.6-3.4l1.9-0.5l20.6-5.5
					c4.3-1.2,5.7-6.8,2.4-10.1c-3.9-3.8-8.8-6.4-18-4.1l-4.7-17.4l-23.6,6.3L172.3,349.6z"/>
				<path id="r-leg" class="st4" d="M169.4,348.9l-13.1-50.4l-35.2-64.7l25.5-13.8l36,66.3c0.6,1,1,2.1,1.3,3.3l13.6,52.1
					L169.4,348.9z"/>
			</g>
			<g id="r-leg-group">
				<path class="st5" d="M65.9,339.3c0,0-7.5,1.7-9.8,11.9c-0.4,1.6,0.4,3.3,1.9,4l11.8,5.5l1.8,0.8l19.4,9c4.1,1.9,8.8-1.6,8.3-6.2
					c-0.5-5.4-2.7-10.6-11.1-14.7l7.6-16.3L73.6,323L65.9,339.3z"/>
				<path id="l-leg" class="st4" d="M91,349.4L64.7,337l26.2-55.7l10.3-60.1l28.5,8.2l-10.7,58.9c-0.2,1.2-0.6,2.4-1.1,3.6L91,349.4
					z"/>
			</g>
			<rect x="98.2" y="218.3" class="st4" width="60" height="31.8"/>
			<polygon class="st1" points="158.2,235 98.2,218.3 158.2,218.3 			"/>
			<polygon class="st5" points="98.2,218.6 158.2,218.6 158.2,211.9 98.2,211.9 			"/>
		</g>
		<g>
			<g>
				<polygon class="st8" points="123.3,136.6 146.3,136.6 146.3,85.2 123.3,72.2 				"/>
				<polygon class="st8" points="146.3,84.3 146.3,100.9 146.3,107.5 123.3,86.1 123.3,75.3 				"/>
				<path class="st8" d="M160.6,156v52.5c0,2-1.6,3.6-3.6,3.6H99.3c-2,0-3.6-1.6-3.6-3.6V160c0-25.6,11.4-55.1,26.4-55.1l24.2,6
					C153.4,120.3,160.4,148.1,160.6,156z"/>
				<path class="st8" d="M160.7,207.8V156c-0.2-7.9-6.4-36.3-14.4-44.1"/>
				<path class="st8" d="M123.1,102.4c0,0-7,3.2-10.8,6.4l35.9,13.8l-2.1-11.6L123.1,102.4z"/>
				<polygon class="st8" points="146.1,110.9 147.9,120.4 152.5,122.5 				"/>
			</g>
			<g>
				<polygon class="st3" points="123.3,136.6 146.3,136.6 146.3,85.2 123.3,72.2 				"/>
				<polygon class="st3" points="146.3,84.3 146.3,100.9 146.3,107.5 123.3,86.1 123.3,75.3 				"/>
				<path class="st8" d="M160.6,156v52.5c0,2-1.6,3.6-3.6,3.6H99.3c-2,0-3.6-1.6-3.6-3.6V160c0-25.6,11.4-55.1,26.4-55.1l24.2,6
					C153.4,120.3,160.4,148.1,160.6,156z"/>
				<path class="st16" d="M160.7,207.8V156c-0.2-7.9-6.4-36.3-14.4-44.1"/>
				<path class="st9" d="M123.1,102.4c0,0-7,3.2-10.8,6.4l35.9,13.8l-2.1-11.6L123.1,102.4z"/>
				<polygon class="st10" points="146.1,110.9 147.9,120.4 152.5,122.5 				"/>
			</g>
		</g>
		<g id="r-hand">
			<path class="st3" d="M147.9,226c-0.9,0-1.8-0.4-2.2-1.2c-2.4-4-7-6.2-7.1-6.2c-1.3-0.5-1.8-2-1.3-3.3c0.5-1.3,2-1.8,3.3-1.3
				c0.3,0.1,6.2,2.7,9.4,8.3c0.7,1.2,0.3,2.7-0.9,3.4C148.7,225.8,148.3,225.9,147.9,226z"/>
			<path class="st3" d="M124.5,213.2c2.5,6.9,5.7,14.4,9.7,22.3c1.3,2.6,4,4.1,6.7,4.1c1.2,0,2.3-0.3,3.4-0.8
				c3.7-1.9,5.1-6.4,3.3-10.1c-3.9-7.6-6.9-14.7-9.3-21.3L124.5,213.2z"/>
			<path class="st9" d="M123.1,211.4l-1.6,0.8h-2.4c-20-44.1-6.3-75.8,0.6-87.4l3.4,2C116.6,138,103.3,168.5,123.1,211.4z"/>
			<path class="st9" d="M139.7,213.2c-27.3-50.1-3.4-81.2-2.1-82.8c0,0,0-0.1,0-0.1l3.1,2.5c-1,1.2-23.8,30.4,2.5,78.4L139.7,213.2z
				"/>
			<path class="st8" d="M125.7,220.8c-32.9-60.4-1.7-99.1-0.3-100.7l13.8,11.5l-6.9-5.8l7,5.7c-1,1.3-24.6,31.4,2.3,80.7
				L125.7,220.8z"/>
		</g>
		<g id="head-group">
			<path class="st3" d="M167.6,80.2c0,0-3.2-10.2-8.2-18V45.3V31.7c-44.2,0-36,27.9-36.1,29.8v0.6v15.2v0.4
				c0,8.9,7.9,16.8,17.9,21.2c8.6,3.8,18.2-2.6,18.2-11.9v-6.8H167.6z"/>
			<g id="eye">
				<path class="st3" d="M142.8,65.1c-0.1,2.2,1.6,4,3.8,4.1c2.2,0.1,4-1.6,4.1-3.8c0.1-2.2-1.6-4-3.8-4.1S142.9,62.9,142.8,65.1z"
					/>
				<path class="st7" d="M142.8,64.1c-0.1,2.2,1.6,4,3.8,4.1c2.2,0.1,4-1.6,4.1-3.8c0.1-2.2-1.6-4-3.8-4.1S142.9,61.9,142.8,64.1z"
					/>
				<path class="st8" d="M144.4,62.9c0,0.5,0.4,1,1,1c0.5,0,1-0.4,1-1c0-0.5-0.4-1-1-1C144.9,62,144.4,62.4,144.4,62.9z"/>
			</g>
			<path class="st7" d="M166.4,26.7c-1.8,0.9-3.8,0.9-5.6,0.7c1-1.3,1.2-2.7,1.3-3.3c0-0.2-0.2-0.3-0.4-0.2c-3.1,1.5-6.7,1-9.1,0.4
				c-21-9.3-33-3.2-33-3.2c-40.9,15.9-19.5,72.8,3.4,72.8V62.1l8.9-16.2c0,0,21.5,0,21.5,0c13.1-1.5,12.9-17.6,13.1-19
				C166.8,26.7,166.6,26.6,166.4,26.7z"/>
			<path class="st3" d="M123.3,62.1c2.8,0,5,2.2,5,5v5.2c0,2.8-2.2,5-5,5c-2.8,0-5-2.2-5-5v-5.2C118.3,64.3,120.5,62.1,123.3,62.1z"
				/>
		</g>
	</g>
	<g id="businessman">
		<ellipse class="st1" cx="982.4" cy="-418.8" rx="57.5" ry="7.7"/>
		<g>
			<rect x="968.9" y="-680.1" class="st2" width="27" height="10.3"/>
			<rect x="970.9" y="-687.7" class="st3" width="23" height="43.4"/>
			<polygon class="st3" points="970.9,-685.6 970.9,-684 993.9,-675.9 993.9,-685.6 			"/>
		</g>
		<g>
			<polyline class="st4" points="949.9,-544.9 949.9,-427.7 976.2,-427.7 979.2,-544.9 985.6,-544.9 988.6,-427.7 1014.9,-427.7 
				1014.9,-544.9 1014.9,-567 986.6,-567 978.2,-567 949.9,-567 949.9,-544.9 			"/>
			<polygon class="st1" points="949.9,-567 1014.9,-549.9 1014.9,-567 			"/>
			<path class="st5" d="M980.3-423.1c0,7.9-35,7.9-35,0s7.8-11.2,17.5-11.2C972.5-434.4,980.3-431,980.3-423.1z"/>
			<path class="st5" d="M1020.1-423.1c0,7.9-35,7.9-35,0s7.8-11.2,17.5-11.2S1020.1-431,1020.1-423.1z"/>
		</g>
		<g>
			<path class="st6" d="M957.9-530.2h-9.4c-5.5,0-9.9-4.4-9.9-9.9v-2.5c0-5.5,4.4-9.9,9.9-9.9h9.4c5.5,0,9.9,4.4,9.9,9.9v2.5
				C967.8-534.7,963.4-530.2,957.9-530.2z M948.5-547.8c-2.9,0-5.2,2.3-5.2,5.2v2.5c0,2.9,2.3,5.2,5.2,5.2h9.4
				c2.9,0,5.2-2.3,5.2-5.2v-2.5c0-2.9-2.3-5.2-5.2-5.2H948.5z"/>
			<path class="st7" d="M995.7-532.1v47.2c0,5.2-4.2,9.4-9.4,9.4h-66.1c-5.2,0-9.4-4.2-9.4-9.4v-47.2c0-5.2,4.2-9.4,9.4-9.4h66.1
				C991.5-541.6,995.7-537.3,995.7-532.1z"/>
			<path class="st17" d="M995.7-532.1v13.2l-42.5,11.3l-42.5-11.3v-13.2c0-5.2,4.2-9.4,9.4-9.4h66.1
				C991.5-541.6,995.7-537.3,995.7-532.1z"/>
			<path class="st6" d="M954.9-502.4h-3.2c-1.1,0-2-0.9-2-2v-6.3c0-1.1,0.9-2,2-2h3.2c1.1,0,2,0.9,2,2v6.3
				C956.9-503.3,956-502.4,954.9-502.4z"/>
		</g>
		<g>
			<polygon class="st5" points="1014.9,-567 949.9,-567 949.9,-574.2 1014.9,-574.2 			"/>
			<path class="st4" d="M985.4-565.1h-5.9c-2.2,0-4.1-1.8-4.1-4.1v-2.9c0-2.2,1.8-4.1,4.1-4.1h5.9c2.2,0,4.1,1.8,4.1,4.1v2.9
				C989.4-566.9,987.6-565.1,985.4-565.1z M979.4-574.1c-1.1,0-2.1,0.9-2.1,2.1v2.9c0,1.1,0.9,2.1,2.1,2.1h5.9
				c1.1,0,2.1-0.9,2.1-2.1v-2.9c0-1.1-0.9-2.1-2.1-2.1H979.4z"/>
		</g>
		<g>
			<path class="st3" d="M1005.2-555.8c0.9,0,1.8-0.4,2.2-1.2c2.4-4,7-6.2,7.1-6.2c1.3-0.5,1.8-2,1.3-3.3c-0.5-1.3-2-1.8-3.3-1.3
				c-0.3,0.1-6.2,2.7-9.4,8.3c-0.7,1.2-0.3,2.7,0.9,3.4C1004.4-555.9,1004.8-555.8,1005.2-555.8z"/>
			<path class="st3" d="M1028.7-568.5c-2.5,6.9-5.7,14.4-9.7,22.3c-1.3,2.6-4,4.1-6.7,4.1c-1.2,0-2.3-0.3-3.4-0.8
				c-3.7-1.9-5.1-6.4-3.3-10.1c3.9-7.6,6.9-14.7,9.3-21.3L1028.7-568.5z"/>
			<path class="st8" d="M1027.5-560.9l-15.8-8.6c26.7-48.9-2-79.8-3.3-81.1l12.9-12.5c0.4,0.4,10.3,10.7,15.9,28.5
				C1042.3-618.4,1044.7-592.5,1027.5-560.9z"/>
			<path class="st8" d="M1027.5-560.9l-15.8-8.6c26.7-48.9-2-79.8-3.3-81.1l12.9-12.5c0.4,0.4,10.3,10.7,15.9,28.5
				C1042.3-618.4,1044.7-592.5,1027.5-560.9z"/>
		</g>
		<g>
			<path class="st3" d="M959.6-555.8c-0.9,0-1.8-0.4-2.2-1.2c-2.4-4-7-6.2-7.1-6.2c-1.3-0.5-1.8-2-1.3-3.3c0.5-1.3,2-1.8,3.3-1.3
				c0.3,0.1,6.2,2.7,9.4,8.3c0.7,1.2,0.3,2.7-0.9,3.4C960.4-555.9,960-555.8,959.6-555.8z"/>
			<path class="st3" d="M936.1-568.5c2.5,6.9,5.7,14.4,9.7,22.3c1.3,2.6,4,4.1,6.7,4.1c1.2,0,2.3-0.3,3.4-0.8
				c3.7-1.9,5.1-6.4,3.3-10.1c-3.9-7.6-6.9-14.7-9.3-21.3L936.1-568.5z"/>
			<path class="st8" d="M937.3-560.9c-17.2-31.6-14.8-57.5-9.7-73.7c5.6-17.8,15.5-28.1,15.9-28.5l6.4,6.3l6.5,6.3
				c-1.2,1.3-29.9,32.2-3.3,81.1L937.3-560.9z"/>
		</g>
		<g>
			<path class="st8" d="M1029.9-642.2c0-15.9-14.3-32.8-31.9-35.1c-0.4,0-0.7-0.1-1.1-0.1c-1-0.1-2,16.3-14.4,16.3
				s-13.5-16.4-14.4-16.3c-0.4,0-0.7,0.1-1.1,0.1c-17.6,2.3-32,19.1-32,35.1l11.5,3.3c0,0.1,0,0.1,0,0.2v60.4c0,2.2,1.8,4,4,4h64
				c2.2,0,4-1.8,4-4v-60.4c0-0.1,0-0.1,0-0.2L1029.9-642.2z"/>
			<polygon class="st10" points="987.9,-660 985.7,-655.8 979,-655.8 976.9,-660 982.4,-664.5 			"/>
			<polygon class="st9" points="968.9,-680.1 982.4,-664.5 974.4,-657.1 963.2,-677 			"/>
			<polygon class="st9" points="995.9,-680.1 982.4,-664.5 990.4,-657.1 1001.6,-677 			"/>
			<polygon class="st10" points="985.7,-654.8 989.4,-584.6 982.4,-578 975.4,-584.6 979,-654.8 			"/>
		</g>
		<g>
			<path class="st3" d="M982.4-758.1c-13.8,0-25,11.2-25,25v26c0,13.8,11.2,25,25,25c13.8,0,25-11.2,25-25v-26
				C1007.4-746.9,996.2-758.1,982.4-758.1z"/>
			<path class="st7" d="M1009.5-751.6c1.7-2.6,2.9-5.8,2.8-9.3c-1.8,0.4-3.3,0.5-4.7,0.4c1-1.3,1.3-2.8,1.4-3.5
				c0-0.2-0.2-0.3-0.4-0.2c-5.2,2.5-11.5-0.6-11.5-0.6c-4.1-2-8.4-3.1-14.8-2.9c-21,0-27.1,16.1-27.1,16.1
				c-4.7,11.1-3.4,26.3,2.2,40.5c0.1,0.2,0.2,0.5,0.3,0.7c-0.2-1.1-0.4-2.3-0.5-3.5c0.1-4.6-0.4-9.4,0.1-8.9
				c4.2-5.6,5.7-17.1,5.7-17.1s8.9,1.9,19.3,2.3c10.4-0.4,19.3-2.3,19.3-2.3s1.4,11.5,5.7,17.1c0.6-0.5,0.1,4.3,0.1,8.9
				c-0.1,1.2-0.3,2.3-0.5,3.5c0.1-0.2,0.2-0.5,0.3-0.7C1012.9-725.3,1014.2-740.5,1009.5-751.6z"/>
			<g>
				<g>
					<path class="st3" d="M974.8-719.7c0.1,2.2-1.6,4-3.8,4.1s-4-1.6-4.1-3.8c-0.1-2.2,1.6-4,3.8-4.1
						C972.9-723.6,974.8-721.9,974.8-719.7z"/>
					<path class="st7" d="M974.8-720.7c0.1,2.2-1.6,4-3.8,4.1s-4-1.6-4.1-3.8c-0.1-2.2,1.6-4,3.8-4.1
						C972.9-724.6,974.8-722.9,974.8-720.7z"/>
					<path class="st8" d="M973.2-721.8c0,0.5-0.4,1-1,1c-0.5,0-1-0.4-1-1c0-0.5,0.4-1,1-1C972.8-722.8,973.2-722.4,973.2-721.8z"/>
				</g>
				<g>
					<path class="st3" d="M997.8-719.7c0.1,2.2-1.6,4-3.8,4.1s-4-1.6-4.1-3.8c-0.1-2.2,1.6-4,3.8-4.1
						C995.9-723.6,997.8-721.9,997.8-719.7z"/>
					<path class="st7" d="M997.8-720.7c0.1,2.2-1.6,4-3.8,4.1s-4-1.6-4.1-3.8c-0.1-2.2,1.6-4,3.8-4.1
						C995.9-724.6,997.8-722.9,997.8-720.7z"/>
					<path class="st8" d="M996.2-721.8c0,0.5-0.4,1-1,1c-0.5,0-1-0.4-1-1c0-0.5,0.4-1,1-1C995.8-722.8,996.2-722.4,996.2-721.8z"/>
				</g>
			</g>
			<g>
				<path class="st3" d="M957.4-722.7c-2.8,0-5,2.2-5,5v5.2c0,2.8,2.2,5,5,5s5-2.2,5-5v-5.2C962.4-720.5,960.2-722.7,957.4-722.7z"
					/>
				<path class="st3" d="M1007.4-722.7c-2.8,0-5,2.2-5,5v5.2c0,2.8,2.2,5,5,5s5-2.2,5-5v-5.2
					C1012.4-720.5,1010.2-722.7,1007.4-722.7z"/>
			</g>
			<path class="st11" d="M1010.6-721.5c-0.8-0.7-1.9-1.2-3.1-1.2c0,0-0.1,0-0.1,0c-4.3-5.6-5.7-17.1-5.7-17.1s-8.9,1.9-19.3,2.3
				c0,0,0,14.8,0,14.8c-3.6,7.8-6,19-6,19h6v21.5c13.8,0,25-11.2,25-25v-0.4c2.8,0,5-2.2,5-5v-5.2
				C1012.4-719.2,1011.7-720.6,1010.6-721.5z"/>
			<path class="st4" d="M1007.2-724.2l-3.4,0.6c-0.2-2.5-2.4-4.5-5-4.5h-10c-2.7,0-4.9,2.1-5,4.8h-3c-0.1-2.6-2.3-4.8-5-4.8h-10
				c-2.6,0-4.7,2-5,4.5l-3.4-0.6c-0.5-0.1-1.1,0.3-1.2,0.8c-0.1,0.5,0.3,1.1,0.8,1.2l4,0.7l0.7,4.5c0,2.7,2.3,4.9,5,4.9h8
				c2.7,0,5-2.2,5-4.9l0.7-4.3h3.6l0.7,4.3c0,2.7,2.3,4.9,5,4.9h8c2.7,0,5-2.2,5-4.9l0.7-4.5l3.9-0.7c0.5-0.1,0.9-0.6,0.8-1.2
				C1008.3-723.9,1007.8-724.3,1007.2-724.2z M977.9-717.2l0,0.2c0,1.7-1.3,3-3,3h-8c-1.7,0-3-1.3-3-3l-0.8-5.2c0-0.2,0-0.3-0.1-0.4
				l-0.1-0.5c0-1.6,1.4-2.9,3-2.9h10c1.6,0,3,1.3,3,2.9L977.9-717.2z M1000.9-717.2l0,0.2c0,1.7-1.3,3-3,3h-8c-1.7,0-3-1.3-3-3
				l-1-6.1c0-1.6,1.4-2.9,3-2.9h10c1.6,0,3,1.3,3,2.9l-0.1,0.5c-0.1,0.1-0.1,0.3-0.1,0.4L1000.9-717.2z"/>
		</g>
	</g>
	<g id="businessman_3_">
		<ellipse class="st1" cx="730.6" cy="47.8" rx="103.5" ry="13.8"/>
		<g>
			<rect x="706.3" y="-421.7" class="st2" width="48.6" height="18.5"/>
			<rect x="709.9" y="-435.4" class="st3" width="41.4" height="78.1"/>
			<polygon class="st3" points="709.9,-431.6 709.9,-428.7 751.3,-414.2 751.3,-431.6 			"/>
		</g>
		<g>
			<polygon class="st4" points="789.1,-218.2 738.1,-218.2 738.1,-218.2 723.1,-218.2 723.1,-218.2 672.1,-218.2 665.1,32.6 
				712.5,32.6 724.9,-178.4 724.9,-178.4 736.3,-178.4 736.3,-178.4 748.7,32.6 796.1,32.6 			"/>
			<polygon class="st1" points="672.1,-218.2 789.1,-187.4 789.1,-218.2 			"/>
			<path class="st5" d="M805.6,40.8c0,14.1-63,14.1-63,0s14.1-20.2,31.5-20.2C791.5,20.6,805.6,26.7,805.6,40.8z"/>
			<path class="st5" d="M655.7,40.8c0,14.1,63,14.1,63,0s-14.1-20.2-31.5-20.2C669.8,20.6,655.7,26.7,655.7,40.8z"/>
		</g>
		<g>
			<polygon class="st5" points="789,-218.2 672.1,-218.2 672.1,-231.2 789.1,-231.2 			"/>
			<path class="st4" d="M736-214.7h-10.7c-4,0-7.3-3.3-7.3-7.3v-5.2c0-4,3.3-7.3,7.3-7.3H736c4,0,7.3,3.3,7.3,7.3v5.2
				C743.3-218,740-214.7,736-214.7z M725.3-231c-2,0-3.7,1.7-3.7,3.7v5.2c0,2,1.7,3.7,3.7,3.7H736c2,0,3.7-1.7,3.7-3.7v-5.2
				c0-2-1.7-3.7-3.7-3.7H725.3z"/>
		</g>
		<g>
			<g>
				<path class="st3" d="M841.6-596.2c3.5,13.4,5.9,27.5,7.3,41.3c6.4-0.7,26.2-2.3,26.8-3.1c1.6-2.1-2-14.2-2.3-16.2
					c-1.6-10.3-2.2-27.8-9.7-35.8C853.4-621,838.2-609.6,841.6-596.2z"/>
				<path class="st3" d="M836.1-584.8c1.6,7.7,7.2,16.7,14,20.9c4.5,2.8,11.5,2.8,8.4-5.1c-2-5-9.8-8.9-12.5-14.3
					c-1.2-2.4-0.9-6.2-4.1-7.2C838.3-591.5,835.4-588.2,836.1-584.8z"/>
			</g>
			<path class="st8" d="M775.7-379.2c41.8-6.1,72.8-32.7,89.7-73.3c17-40.9,15.1-87,12.5-110.8l-32.2,3.5
				c3.9,35.8,0.3,69.5-10.2,94.8c-12.4,29.9-40.4,45.2-70.7,49.6L775.7-379.2z"/>
		</g>
		<g>
			<g>
				<path class="st3" d="M619.7-596.2c-3.5,13.4-5.9,27.5-7.3,41.3c-6.4-0.7-26.2-2.3-26.8-3.1c-1.6-2.1,2-14.2,2.3-16.2
					c1.6-10.3,2.2-27.8,9.7-35.8C607.8-621,623-609.6,619.7-596.2z"/>
				<path class="st3" d="M625.2-584.8c-1.6,7.7-7.2,16.7-14,20.9c-4.5,2.8-11.5,2.8-8.4-5.1c2-5,9.8-8.9,12.5-14.3
					c1.2-2.4,0.9-6.2,4.1-7.2C622.9-591.5,625.9-588.2,625.2-584.8z"/>
			</g>
			<path class="st8" d="M685.5-379.2c-41.8-6.1-72.8-32.7-89.7-73.3c-17-40.9-15.1-87-12.5-110.8l32.2,3.5
				c-3.9,35.8-0.3,69.5,10.2,94.8c12.4,29.9,40.4,45.2,70.7,49.6L685.5-379.2z"/>
		</g>
		<g>
			<path class="st8" d="M795.5-397.9c-10-9.7-22.9-16.8-37-18.6c-0.6-0.1-1.3-0.1-1.9-0.2l-25.8,34.4l-26.2-34.4
				c-0.6,0.1-1.3,0.1-1.9,0.2c-14,1.8-26.9,8.8-36.9,18.4v159.7c0,4,3.2,7.2,7.2,7.2h115.2c4,0,7.2-3.2,7.2-7.2L795.5-397.9z"/>
			<polygon class="st10" points="740.5,-385.5 736.5,-378 724.6,-378 720.8,-385.5 730.6,-393.6 			"/>
			<polygon class="st9" points="706.3,-421.7 730.6,-393.6 716.2,-380.3 696,-416.2 			"/>
			<polygon class="st9" points="754.9,-421.7 730.6,-393.6 745,-380.3 765.2,-416.2 			"/>
			<polygon class="st10" points="736.5,-376.2 743.2,-249.9 730.6,-238 718,-249.9 724.6,-376.2 			"/>
		</g>
		<g>
			<path class="st3" d="M730.6-562.1c-24.9,0-45,20.1-45,45v46.8c0,24.9,20.1,45,45,45s45-20.1,45-45v-46.8
				C775.6-542,755.5-562.1,730.6-562.1z"/>
			<g>
				<path class="st10" d="M747-454c0,8-7.3,14.4-16.2,14.4c-8.9,0-16.2-6.4-16.2-14.4H747z"/>
				<path class="st8" d="M743.1-448.6h-25c-0.6,0-1-0.4-1-1v-4.4h27v4.4C744.1-449,743.7-448.6,743.1-448.6z"/>
			</g>
			<path class="st7" d="M779.5-550.4c3.1-4.7,5.3-10.4,5-16.8c-3.2,0.7-6,0.9-8.5,0.8c1.8-2.4,2.4-5,2.5-6.2c0-0.3-0.3-0.6-0.6-0.4
				c-9.3,4.5-20.7-1-20.7-1c-7.4-3.7-15.2-5.6-26.6-5.3c-37.8,0-48.8,29-48.8,29c-8.5,20-6.1,47.4,3.9,72.9c0.2,0.4,0.4,0.9,0.6,1.3
				c-0.4-2-0.7-4.1-0.9-6.2c0.1-8.2-0.8-16.9,0.2-16c7.6-10.1,10.2-30.8,10.2-30.8s16,3.4,34.8,4.2c18.8-0.8,34.8-4.2,34.8-4.2
				s2.6,20.6,10.2,30.8c1-0.9,0.1,7.8,0.3,16c-0.2,2.1-0.5,4.2-0.9,6.2c0.2-0.4,0.4-0.9,0.6-1.3C785.6-503,787.9-530.4,779.5-550.4z
				"/>
			<g>
				<g>
					<path class="st3" d="M717-493c0.1,3.9-2.9,7.2-6.9,7.4c-3.9,0.1-7.2-2.9-7.4-6.9c-0.1-3.9,2.9-7.2,6.9-7.4
						C713.6-500,716.9-497,717-493z"/>
					<path class="st7" d="M717-494.8c0.1,3.9-2.9,7.2-6.9,7.4c-3.9,0.1-7.2-2.9-7.4-6.9c-0.1-3.9,2.9-7.2,6.9-7.4
						C713.6-501.8,716.9-498.8,717-494.8z"/>
					<path class="st8" d="M714.1-496.9c0,1-0.7,1.8-1.7,1.8c-1,0-1.8-0.7-1.8-1.7c0-1,0.7-1.8,1.7-1.8S714.1-497.9,714.1-496.9z"/>
				</g>
				<g>
					<path class="st3" d="M758.4-493c0.1,3.9-2.9,7.2-6.9,7.4c-3.9,0.1-7.2-2.9-7.4-6.9c-0.1-3.9,2.9-7.2,6.9-7.4
						C755-500,758.3-497,758.4-493z"/>
					<path class="st7" d="M758.4-494.8c0.1,3.9-2.9,7.2-6.9,7.4s-7.2-2.9-7.4-6.9s2.9-7.2,6.9-7.4
						C755-501.8,758.3-498.8,758.4-494.8z"/>
					<path class="st8" d="M755.5-496.9c0,1-0.7,1.8-1.7,1.8c-1,0-1.8-0.7-1.8-1.7c0-1,0.7-1.8,1.7-1.8
						C754.7-498.6,755.5-497.9,755.5-496.9z"/>
				</g>
			</g>
			<g>
				<path class="st3" d="M685.6-498.4c-5,0-9,4-9,9v9.4c0,5,4,9,9,9c5,0,9-4,9-9v-9.4C694.6-494.4,690.6-498.4,685.6-498.4z"/>
				<path class="st3" d="M775.6-498.4c-5,0-9,4-9,9v9.4c0,5,4,9,9,9c5,0,9-4,9-9v-9.4C784.6-494.4,780.6-498.4,775.6-498.4z"/>
			</g>
			<path class="st11" d="M781.4-496.2c-1.5-1.3-3.4-2.1-5.6-2.2c-0.1,0-0.1,0-0.2,0c-7.7-10.2-10.3-30.8-10.3-30.8s-16,3.4-34.8,4.2
				c0,0,0,26.7,0,26.7c-6.6,14-10.8,34.2-10.8,34.2h10.8v38.7c24.9,0,45-20.1,45-45v-0.7c5,0,9-4,9-9v-9.4
				C784.6-492.1,783.4-494.6,781.4-496.2z"/>
		</g>
		<g>
			<rect x="618.1" y="-729" class="st8" width="225" height="138"/>
			<g>
				<path class="st18" d="M643.1-637.2v-5.2l-0.7-0.2c-3.8-1.1-5.9-4.4-6.4-9.7l-0.1-1.6l6.3-0.9l0.2,1.6c0.5,3.7,1.2,4.7,3.4,4.7
					c2.5,0,3.1-2.2,3.1-4c0-3-1.6-4-4.8-5.9l-0.3-0.2c-3.5-2.1-6.9-4-6.9-9.7c0-4.2,2.2-7.6,5.6-9l0.6-0.3v-5h5.4v5l0.6,0.2
					c2.9,1.1,4.9,3.8,5.7,7.8l0.3,1.7l-6.3,1l-0.3-1.5c-0.5-2.3-1.4-3.4-2.8-3.4c-0.9,0-2.5,0.4-2.5,3.4c0,1.9,0.5,2.4,4.7,4.9
					c4.1,2.5,7.3,4.8,7.3,10.5c0,4.9-2.3,8.6-6.1,9.9l-0.7,0.2v5.3H643.1z"/>
				<path class="st18" d="M674-642.2c-5.5,0-9.3-3.9-9.3-9.6v-25.6h6.4v24.5c0,3.3,0.7,4.4,2.9,4.4c2.2,0,3-1.2,3-4.4v-24.5h6.4
					v25.5C683.3-646.2,679.5-642.2,674-642.2z"/>
				<path class="st18" d="M703-642.2c-4.1,0-11.1-2.3-11.1-17.8c0-15.5,6.9-17.8,11.1-17.8c2.7,0,6.4,1,9.1,5.9l0.8,1.4l-5.5,3.3
					l-0.8-1.6c-0.9-1.9-2.1-2.8-3.6-2.8c-3.7,0-4.5,6.3-4.5,11.6c0,5.3,0.8,11.6,4.5,11.6c2,0,3.6-2.2,4.2-3.2l0.9-1.5l5.3,3.7
					l-0.8,1.3C710.2-644.3,706.8-642.2,703-642.2z"/>
				<path class="st18" d="M731.3-642.2c-4.1,0-11.1-2.3-11.1-17.8c0-15.5,6.9-17.8,11.1-17.8c2.7,0,6.4,1,9.1,5.9l0.8,1.4l-5.5,3.3
					l-0.8-1.6c-0.9-1.9-2.1-2.8-3.6-2.8c-3.7,0-4.5,6.3-4.5,11.6c0,5.3,0.8,11.6,4.5,11.6c2,0,3.6-2.2,4.2-3.2l0.9-1.5l5.3,3.7
					l-0.8,1.3C738.5-644.3,735.1-642.2,731.3-642.2z"/>
				<polygon class="st18" points="750.6,-642.6 750.6,-677.4 769.2,-677.4 769.2,-671.3 757,-671.3 757,-664.1 767.1,-664.1 
					767.1,-658 757,-658 757,-648.7 769.2,-648.7 769.2,-642.6 				"/>
				<path class="st18" d="M784.9-637.2v-5.2l-0.7-0.2c-3.8-1.1-5.9-4.4-6.4-9.7l-0.1-1.6l6.3-0.9l0.2,1.6c0.5,3.7,1.2,4.7,3.4,4.7
					c2.5,0,3.1-2.2,3.1-4c0-3-1.6-4-4.8-5.9l-0.3-0.2c-3.5-2.1-6.9-4-6.9-9.7c0-4.2,2.2-7.6,5.6-9l0.6-0.3v-5h5.4v5l0.6,0.2
					c2.9,1.1,4.9,3.8,5.7,7.8l0.3,1.7l-6.3,1l-0.3-1.5c-0.5-2.3-1.4-3.4-2.8-3.4c-0.9,0-2.5,0.4-2.5,3.4c0,1.9,0.5,2.4,4.7,4.9
					c4.1,2.5,7.3,4.8,7.3,10.5c0,4.9-2.3,8.6-6.1,9.9l-0.7,0.2v5.3H784.9z"/>
				<path class="st18" d="M813.2-637.2v-5.2l-0.7-0.2c-3.8-1.1-5.9-4.4-6.4-9.7l-0.1-1.6l6.3-0.9l0.2,1.6c0.5,3.7,1.2,4.7,3.4,4.7
					c2.5,0,3.1-2.2,3.1-4c0-3-1.6-4-4.8-5.9l-0.3-0.2c-3.5-2.1-6.9-4-6.9-9.7c0-4.2,2.2-7.6,5.6-9l0.6-0.3v-5h5.4v5l0.6,0.2
					c2.9,1.1,4.9,3.9,5.7,7.8l0.3,1.7l-6.3,1l-0.3-1.5c-0.5-2.3-1.4-3.4-2.8-3.4c-0.9,0-2.5,0.4-2.5,3.4c0,1.9,0.5,2.4,4.7,4.9
					c4.1,2.5,7.3,4.8,7.3,10.5c0,4.9-2.3,8.6-6.1,9.9l-0.7,0.2v5.3H813.2z"/>
			</g>
		</g>
	</g>
</g>
</svg>
