<?xml version="1.0" encoding="utf-8"?>
<!-- Generator: Adobe Illustrator 19.0.0, SVG Export Plug-In . SVG Version: 6.00 Build 0)  -->
<svg version="1.1" id="Layer_1" xmlns="http://www.w3.org/2000/svg" xmlns:xlink="http://www.w3.org/1999/xlink" x="0px" y="0px"
	 viewBox="0 0 158.1 150.7" style="enable-background:new 0 0 158.1 150.7;" xml:space="preserve">
<style type="text/css">
	.st0{fill:none;stroke:#818181;stroke-width:4;stroke-miterlimit:10;}
	.st1{fill:#818181;}
</style>
<g id="XMLID_6394_">
	<g id="XMLID_486_">
		<path id="XMLID_488_" class="st0" d="M82.2,9.9c-38.4,0-69.5,27.9-69.5,62.3c0,12.7,4.2,24.5,11.5,34.3
			c-1,11.4-3.7,27.4-11.5,35.2c0,0,23.8-3.4,39.9-13.1c9,3.8,19,5.9,29.5,5.9c38.4,0,69.5-27.9,69.5-62.3
			C151.7,37.8,120.6,9.9,82.2,9.9L82.2,9.9z M82.2,9.9"/>
	</g>
	<g id="XMLID_482_">
		<path id="XMLID_485_" class="st1" d="M63.5,101.5c-3.9,0-7-3.2-7-7s3.2-7,7-7s7,3.2,7,7S67.4,101.5,63.5,101.5z"/>
		<path id="XMLID_484_" class="st1" d="M85.7,98c-1.9,0-3.5-1.6-3.5-3.5c0-10.3-8.4-18.7-18.7-18.7c-1.9,0-3.5-1.6-3.5-3.5
			s1.6-3.5,3.5-3.5c6.9,0,13.4,2.7,18.2,7.5c4.9,4.9,7.5,11.3,7.5,18.2C89.2,96.4,87.7,98,85.7,98z"/>
		<path id="XMLID_483_" class="st1" d="M104.5,98c-1.9,0-3.5-1.6-3.5-3.5c0-20.7-16.8-37.5-37.5-37.5c-1.9,0-3.5-1.6-3.5-3.5
			s1.6-3.5,3.5-3.5c6,0,11.8,1.2,17.3,3.5c5.3,2.2,10.1,5.4,14.1,9.5c4.1,4.1,7.3,8.8,9.5,14.1c2.3,5.5,3.5,11.3,3.5,17.3
			C108,96.4,106.4,98,104.5,98z"/>
	</g>
</g>
</svg>
